{"glyphs":{"0":{"ha":936,"x_min":49,"x_max":886,"o":"m 453 10 q 240 66 331 10 q 99 226 149 122 q 49 471 49 329 q 101 732 49 619 q 247 907 153 844 q 469 969 342 969 q 689 910 594 969 q 835 746 783 851 q 886 500 886 640 q 833 239 886 349 q 682 69 779 129 q 453 10 585 10 m 472 226 q 598 294 551 226 q 644 497 644 361 q 598 687 644 625 q 472 749 551 749 q 348 687 396 749 q 300 497 300 625 q 348 294 300 361 q 472 226 396 226 z "},"1":{"ha":525,"x_min":21,"x_max":456,"o":"m 311 961 q 372 942 347 961 q 413 878 396 924 q 444 732 433 825 q 456 506 456 639 q 448 338 456 422 q 428 185 440 254 q 399 75 415 115 q 357 6 379 26 q 301 -15 335 -15 q 242 8 265 -15 q 208 85 219 32 q 194 188 199 128 q 189 315 189 249 q 198 463 189 386 q 223 613 207 539 q 258 749 239 688 l 272 742 q 182 664 232 692 q 88 636 132 636 q 39 654 57 636 q 21 706 21 672 q 47 794 21 750 q 116 877 74 839 q 210 938 158 915 q 311 961 261 961 z "},"2":{"ha":739,"x_min":29,"x_max":710,"o":"m 357 954 q 622 878 535 954 q 710 681 710 803 q 660 507 710 588 q 508 352 611 426 q 242 201 404 278 l 257 232 q 578 206 482 240 q 674 99 674 172 q 633 13 674 43 q 507 -18 592 -18 q 392 -13 456 -18 q 265 1 329 -8 q 146 22 201 10 q 57 65 85 38 q 29 142 29 92 q 52 213 29 178 q 126 290 75 247 q 260 396 176 333 q 382 492 338 453 q 445 561 426 531 q 464 622 464 592 q 433 688 464 664 q 336 711 401 711 q 269 703 303 711 q 200 686 235 694 q 128 678 165 678 q 58 699 82 678 q 35 758 35 719 q 75 853 35 808 q 188 926 115 899 q 357 954 260 954 z "},"3":{"ha":747,"x_min":36,"x_max":703,"o":"m 379 968 q 544 941 472 968 q 656 860 615 914 q 697 724 697 806 q 634 563 697 633 q 438 460 571 492 l 431 476 q 636 403 569 464 q 703 247 703 343 q 662 114 703 174 q 539 19 621 54 q 333 -15 457 -15 q 155 4 221 -15 q 63 56 89 24 q 36 129 36 89 q 60 199 36 171 q 132 226 85 226 q 223 214 175 226 q 319 201 271 201 q 410 222 378 201 q 442 275 442 243 q 429 315 442 299 q 384 345 417 332 q 289 371 351 358 q 197 401 228 383 q 165 454 165 418 q 200 519 165 494 q 297 564 235 543 q 410 616 375 590 q 444 676 444 642 q 416 726 444 710 q 335 743 388 743 q 238 731 285 743 q 136 718 190 718 q 67 739 90 718 q 43 799 43 760 q 85 883 43 844 q 203 944 128 921 q 379 968 279 968 z "},"4":{"ha":818,"x_min":21,"x_max":797,"o":"m 461 -25 q 372 7 401 -25 q 342 99 342 39 q 353 179 342 136 q 382 264 364 222 l 390 244 q 285 219 347 229 q 161 210 224 210 q 55 240 89 210 q 21 325 21 269 q 43 458 21 382 q 100 615 65 535 q 174 761 135 696 q 313 929 238 869 q 490 989 388 989 q 636 940 593 989 q 679 799 679 892 q 664 624 679 724 q 619 424 649 525 l 601 439 q 640 449 619 446 q 678 453 661 453 q 797 344 797 453 q 760 260 797 289 q 664 231 724 231 q 619 234 640 231 q 582 243 597 238 l 593 250 q 603 192 599 226 q 607 125 607 157 q 569 13 607 51 q 461 -25 531 -25 m 281 424 q 350 441 319 424 q 403 492 381 458 q 437 572 425 526 q 449 675 449 618 q 434 741 449 719 q 396 763 419 763 q 330 739 361 763 q 273 678 299 715 q 232 594 247 640 q 217 506 217 549 q 234 442 217 461 q 281 424 251 424 z "},"5":{"ha":739,"x_min":36,"x_max":694,"o":"m 694 822 q 658 738 694 771 q 551 706 621 706 q 463 709 514 706 q 360 719 413 713 q 265 732 308 725 l 301 758 q 290 630 300 696 q 265 519 281 564 l 219 539 q 340 547 281 547 q 606 476 518 547 q 693 283 693 406 q 653 131 693 199 q 533 24 613 64 q 333 -15 453 -15 q 155 4 221 -15 q 63 58 89 24 q 36 133 36 92 q 63 203 36 175 q 138 231 89 231 q 235 218 182 231 q 333 206 289 206 q 431 227 397 206 q 464 285 464 249 q 425 351 464 331 q 317 372 386 372 q 246 371 283 372 q 186 369 208 369 q 105 392 131 369 q 79 474 79 415 q 83 590 79 522 q 94 724 88 658 q 108 833 101 790 q 150 926 119 894 q 244 958 181 958 q 351 956 292 958 q 472 949 411 954 q 576 938 532 944 q 694 822 694 919 z "},"6":{"ha":808,"x_min":31,"x_max":778,"o":"m 713 872 q 620 724 713 803 q 335 569 528 646 l 303 568 q 371 583 336 579 q 436 588 406 588 q 625 549 549 588 q 740 446 701 511 q 778 297 778 381 q 729 128 778 199 q 599 22 681 58 q 413 -14 517 -14 q 195 24 279 -14 q 71 131 111 63 q 31 288 31 199 q 53 448 31 372 q 125 599 76 524 q 249 760 174 675 q 378 885 317 838 q 493 956 439 933 q 597 978 547 978 q 681 949 650 978 q 713 872 713 921 m 411 421 q 292 389 333 421 q 250 307 250 357 q 290 234 250 261 q 397 207 329 207 q 513 240 471 207 q 554 322 554 272 q 515 395 554 369 q 411 421 475 421 z "},"7":{"ha":692,"x_min":21,"x_max":671,"o":"m 206 960 q 356 957 274 960 q 514 946 438 954 q 630 908 589 939 q 671 814 671 878 q 650 707 671 782 q 582 524 629 632 q 468 275 518 378 q 374 108 418 172 q 284 15 329 44 q 185 -15 239 -15 q 117 9 140 -15 q 93 82 93 33 q 112 171 93 117 q 163 289 131 225 q 249 435 199 356 q 361 599 300 515 q 489 757 422 682 l 500 729 q 336 714 424 719 q 182 710 249 708 q 21 821 21 713 q 71 926 21 893 q 206 960 121 960 z "},"8":{"ha":860,"x_min":44,"x_max":815,"o":"m 440 979 q 711 910 619 979 q 803 710 803 840 q 749 546 803 613 q 607 446 694 479 l 601 493 q 759 415 703 474 q 815 254 815 356 q 715 55 815 125 q 397 -15 615 -15 q 190 15 267 -15 q 78 101 113 46 q 44 228 44 157 q 111 401 44 332 q 300 494 178 469 l 304 436 q 134 504 200 442 q 68 682 68 567 q 117 848 68 782 q 251 947 167 914 q 440 979 335 979 m 574 671 q 532 736 574 717 q 433 756 490 756 q 313 729 356 756 q 269 657 269 703 q 301 594 269 617 q 407 571 333 571 q 531 595 489 571 q 574 671 574 619 m 435 393 q 309 363 351 393 q 267 290 267 332 q 306 223 267 243 q 421 203 344 203 q 549 231 510 203 q 589 304 589 258 q 557 369 589 344 q 435 393 525 393 z "},"9":{"ha":806,"x_min":31,"x_max":775,"o":"m 54 128 q 90 206 54 176 q 192 236 126 236 q 262 234 222 236 q 325 232 301 232 q 444 255 400 232 q 506 316 488 278 q 524 401 524 354 q 519 446 524 425 l 550 421 q 451 380 504 392 q 350 368 397 368 q 174 406 244 368 q 67 508 103 443 q 31 653 31 572 q 73 830 31 757 q 192 940 115 903 q 368 978 269 978 q 667 857 558 978 q 775 515 775 736 q 742 300 775 396 q 656 136 708 204 q 500 22 592 57 q 307 -14 408 -14 q 117 24 179 -14 q 54 128 54 63 m 393 757 q 282 726 325 757 q 239 643 239 696 q 278 567 239 597 q 386 538 317 538 q 494 569 454 538 q 535 653 535 600 q 498 727 535 697 q 393 757 461 757 z "},"A":{"ha":878,"x_min":33,"x_max":844,"o":"m 149 -10 q 63 27 93 -10 q 33 161 33 64 q 46 292 33 215 q 81 455 58 368 q 134 629 104 542 q 199 792 164 717 q 283 934 242 883 q 371 1006 325 985 q 467 1026 417 1026 q 606 975 542 1026 q 721 799 669 924 q 783 610 754 714 q 828 396 813 506 q 844 183 844 286 q 807 37 844 83 q 703 -10 769 -10 q 608 33 642 -10 q 564 174 574 75 q 558 302 558 236 q 564 429 558 368 l 613 324 q 505 305 569 308 q 370 308 440 301 q 240 333 300 314 l 333 426 q 326 295 335 360 q 307 178 318 231 q 278 75 297 117 q 228 12 260 33 q 149 -10 197 -10 m 458 489 q 564 515 529 489 q 599 588 599 540 q 588 653 599 615 q 560 726 578 690 q 516 785 542 761 q 461 808 490 808 q 406 784 431 808 q 362 723 381 760 q 332 647 343 686 q 321 576 321 607 q 356 513 321 536 q 458 489 392 489 z "},"Á":{"ha":878,"x_min":33,"x_max":844,"o":"m 149 -10 q 63 27 93 -10 q 33 161 33 64 q 46 292 33 215 q 81 455 58 368 q 134 629 104 542 q 199 792 164 717 q 283 934 242 883 q 371 1006 325 985 q 467 1026 417 1026 q 606 975 542 1026 q 721 799 669 924 q 783 610 754 714 q 828 396 813 506 q 844 183 844 286 q 807 37 844 83 q 703 -10 769 -10 q 608 33 642 -10 q 564 174 574 75 q 558 302 558 236 q 564 429 558 368 l 613 324 q 505 305 569 308 q 370 308 440 301 q 240 333 300 314 l 333 426 q 326 295 335 360 q 307 178 318 231 q 278 75 297 117 q 228 12 260 33 q 149 -10 197 -10 m 458 489 q 564 515 529 489 q 599 588 599 540 q 588 653 599 615 q 560 726 578 690 q 516 785 542 761 q 461 808 490 808 q 406 784 431 808 q 362 723 381 760 q 332 647 343 686 q 321 576 321 607 q 356 513 321 536 q 458 489 392 489 m 354 1082 q 386 1133 354 1106 q 468 1196 418 1161 q 558 1248 515 1225 q 635 1271 600 1271 q 685 1253 664 1271 q 719 1210 707 1235 q 732 1164 732 1185 q 706 1118 732 1136 q 628 1083 681 1100 q 542 1064 588 1072 q 458 1051 497 1056 q 392 1046 418 1046 q 365 1057 375 1046 q 354 1082 354 1068 z "},"Ă":{"ha":878,"x_min":33,"x_max":844,"o":"m 149 -10 q 63 27 93 -10 q 33 161 33 64 q 46 292 33 215 q 81 455 58 368 q 134 629 104 542 q 199 792 164 717 q 283 934 242 883 q 371 1006 325 985 q 467 1026 417 1026 q 606 975 542 1026 q 721 799 669 924 q 783 610 754 714 q 828 396 813 506 q 844 183 844 286 q 807 37 844 83 q 703 -10 769 -10 q 608 33 642 -10 q 564 174 574 75 q 558 302 558 236 q 564 429 558 368 l 613 324 q 505 305 569 308 q 370 308 440 301 q 240 333 300 314 l 333 426 q 326 295 335 360 q 307 178 318 231 q 278 75 297 117 q 228 12 260 33 q 149 -10 197 -10 m 458 489 q 564 515 529 489 q 599 588 599 540 q 588 653 599 615 q 560 726 578 690 q 516 785 542 761 q 461 808 490 808 q 406 784 431 808 q 362 723 381 760 q 332 647 343 686 q 321 576 321 607 q 356 513 321 536 q 458 489 392 489 m 483 1047 q 330 1097 385 1047 q 275 1214 275 1147 q 336 1276 275 1276 q 407 1218 394 1276 q 431 1169 415 1185 q 482 1153 447 1153 q 529 1167 514 1153 q 553 1210 544 1181 q 579 1269 563 1249 q 631 1290 596 1290 q 676 1272 661 1290 q 692 1221 692 1254 q 667 1135 692 1175 q 597 1072 643 1096 q 483 1047 550 1047 z "},"Ǎ":{"ha":878,"x_min":33,"x_max":844,"o":"m 149 -10 q 63 27 93 -10 q 33 161 33 64 q 46 292 33 215 q 81 455 58 368 q 134 629 104 542 q 199 792 164 717 q 283 934 242 883 q 371 1006 325 985 q 467 1026 417 1026 q 606 975 542 1026 q 721 799 669 924 q 783 610 754 714 q 828 396 813 506 q 844 183 844 286 q 807 37 844 83 q 703 -10 769 -10 q 608 33 642 -10 q 564 174 574 75 q 558 302 558 236 q 564 429 558 368 l 613 324 q 505 305 569 308 q 370 308 440 301 q 240 333 300 314 l 333 426 q 326 295 335 360 q 307 178 318 231 q 278 75 297 117 q 228 12 260 33 q 149 -10 197 -10 m 458 489 q 564 515 529 489 q 599 588 599 540 q 588 653 599 615 q 560 726 578 690 q 516 785 542 761 q 461 808 490 808 q 406 784 431 808 q 362 723 381 760 q 332 647 343 686 q 321 576 321 607 q 356 513 321 536 q 458 489 392 489 m 489 1060 q 420 1078 458 1060 q 342 1121 382 1096 q 270 1180 297 1151 q 243 1240 243 1208 q 261 1283 243 1267 q 307 1300 279 1300 q 391 1261 343 1300 q 489 1136 439 1222 l 467 1144 q 546 1253 500 1213 q 633 1293 592 1293 q 698 1272 672 1293 q 724 1215 724 1251 q 698 1158 724 1182 q 626 1107 672 1133 q 550 1073 589 1086 q 489 1060 511 1060 z "},"Â":{"ha":878,"x_min":33,"x_max":844,"o":"m 149 -10 q 63 27 93 -10 q 33 161 33 64 q 46 292 33 215 q 81 455 58 368 q 134 629 104 542 q 199 792 164 717 q 283 934 242 883 q 371 1006 325 985 q 467 1026 417 1026 q 606 975 542 1026 q 721 799 669 924 q 783 610 754 714 q 828 396 813 506 q 844 183 844 286 q 807 37 844 83 q 703 -10 769 -10 q 608 33 642 -10 q 564 174 574 75 q 558 302 558 236 q 564 429 558 368 l 613 324 q 505 305 569 308 q 370 308 440 301 q 240 333 300 314 l 333 426 q 326 295 335 360 q 307 178 318 231 q 278 75 297 117 q 228 12 260 33 q 149 -10 197 -10 m 458 489 q 564 515 529 489 q 599 588 599 540 q 588 653 599 615 q 560 726 578 690 q 516 785 542 761 q 461 808 490 808 q 406 784 431 808 q 362 723 381 760 q 332 647 343 686 q 321 576 321 607 q 356 513 321 536 q 458 489 392 489 m 489 1286 q 550 1273 511 1286 q 626 1238 589 1260 q 698 1188 672 1213 q 724 1131 724 1163 q 698 1074 724 1094 q 633 1053 672 1053 q 546 1092 592 1053 q 467 1201 500 1132 l 489 1210 q 391 1085 439 1124 q 307 1046 343 1046 q 261 1063 279 1046 q 243 1106 243 1079 q 270 1166 243 1138 q 342 1225 297 1194 q 420 1269 382 1251 q 489 1286 458 1286 z "},"Ä":{"ha":878,"x_min":33,"x_max":844,"o":"m 149 -10 q 63 27 93 -10 q 33 161 33 64 q 46 292 33 215 q 81 455 58 368 q 134 629 104 542 q 199 792 164 717 q 283 934 242 883 q 371 1006 325 985 q 467 1026 417 1026 q 606 975 542 1026 q 721 799 669 924 q 783 610 754 714 q 828 396 813 506 q 844 183 844 286 q 807 37 844 83 q 703 -10 769 -10 q 608 33 642 -10 q 564 174 574 75 q 558 302 558 236 q 564 429 558 368 l 613 324 q 505 305 569 308 q 370 308 440 301 q 240 333 300 314 l 333 426 q 326 295 335 360 q 307 178 318 231 q 278 75 297 117 q 228 12 260 33 q 149 -10 197 -10 m 458 489 q 564 515 529 489 q 599 588 599 540 q 588 653 599 615 q 560 726 578 690 q 516 785 542 761 q 461 808 490 808 q 406 784 431 808 q 362 723 381 760 q 332 647 343 686 q 321 576 321 607 q 356 513 321 536 q 458 489 392 489 m 319 1053 q 233 1082 261 1053 q 206 1150 206 1111 q 242 1231 206 1203 q 343 1260 278 1260 q 429 1228 401 1260 q 457 1154 457 1197 q 418 1078 457 1104 q 319 1053 379 1053 m 642 1274 q 732 1242 704 1274 q 760 1168 760 1210 q 726 1087 760 1114 q 628 1060 692 1060 q 538 1090 568 1060 q 508 1164 508 1121 q 545 1245 508 1217 q 642 1274 582 1274 z "},"À":{"ha":878,"x_min":33,"x_max":844,"o":"m 149 -10 q 63 27 93 -10 q 33 161 33 64 q 46 292 33 215 q 81 455 58 368 q 134 629 104 542 q 199 792 164 717 q 283 934 242 883 q 371 1006 325 985 q 467 1026 417 1026 q 606 975 542 1026 q 721 799 669 924 q 783 610 754 714 q 828 396 813 506 q 844 183 844 286 q 807 37 844 83 q 703 -10 769 -10 q 608 33 642 -10 q 564 174 574 75 q 558 302 558 236 q 564 429 558 368 l 613 324 q 505 305 569 308 q 370 308 440 301 q 240 333 300 314 l 333 426 q 326 295 335 360 q 307 178 318 231 q 278 75 297 117 q 228 12 260 33 q 149 -10 197 -10 m 458 489 q 564 515 529 489 q 599 588 599 540 q 588 653 599 615 q 560 726 578 690 q 516 785 542 761 q 461 808 490 808 q 406 784 431 808 q 362 723 381 760 q 332 647 343 686 q 321 576 321 607 q 356 513 321 536 q 458 489 392 489 m 611 1082 q 602 1057 611 1068 q 574 1046 593 1046 q 508 1051 549 1046 q 424 1064 468 1056 q 339 1083 379 1072 q 259 1118 285 1100 q 233 1164 233 1136 q 246 1210 233 1185 q 281 1253 258 1235 q 332 1271 304 1271 q 408 1248 365 1271 q 497 1196 450 1225 q 581 1133 550 1161 q 611 1082 611 1106 z "},"Ā":{"ha":878,"x_min":33,"x_max":844,"o":"m 149 -10 q 63 27 93 -10 q 33 161 33 64 q 46 292 33 215 q 81 455 58 368 q 134 629 104 542 q 199 792 164 717 q 283 934 242 883 q 371 1006 325 985 q 467 1026 417 1026 q 606 975 542 1026 q 721 799 669 924 q 783 610 754 714 q 828 396 813 506 q 844 183 844 286 q 807 37 844 83 q 703 -10 769 -10 q 608 33 642 -10 q 564 174 574 75 q 558 302 558 236 q 564 429 558 368 l 613 324 q 505 305 569 308 q 370 308 440 301 q 240 333 300 314 l 333 426 q 326 295 335 360 q 307 178 318 231 q 278 75 297 117 q 228 12 260 33 q 149 -10 197 -10 m 458 489 q 564 515 529 489 q 599 588 599 540 q 588 653 599 615 q 560 726 578 690 q 516 785 542 761 q 461 808 490 808 q 406 784 431 808 q 362 723 381 760 q 332 647 343 686 q 321 576 321 607 q 356 513 321 536 q 458 489 392 489 m 325 1054 q 239 1076 267 1054 q 211 1133 211 1099 q 236 1188 211 1168 q 319 1222 261 1207 q 418 1238 364 1232 q 527 1246 472 1243 q 628 1249 582 1249 q 726 1227 697 1249 q 756 1169 756 1206 q 730 1110 756 1132 q 654 1079 704 1088 q 550 1066 611 1072 q 429 1057 489 1060 q 325 1054 369 1054 z "},"Ą":{"ha":878,"x_min":33,"x_max":844,"o":"m 149 -10 q 63 27 93 -10 q 33 161 33 64 q 46 292 33 215 q 81 455 58 368 q 134 629 104 542 q 199 792 164 717 q 283 934 242 883 q 371 1006 325 985 q 467 1026 417 1026 q 606 975 542 1026 q 721 799 669 924 q 783 610 754 714 q 828 396 813 506 q 844 183 844 286 q 807 37 844 83 q 703 -10 769 -10 q 608 33 642 -10 q 564 174 574 75 q 558 302 558 236 q 564 429 558 368 l 613 324 q 505 305 569 308 q 370 308 440 301 q 240 333 300 314 l 333 426 q 326 295 335 360 q 307 178 318 231 q 278 75 297 117 q 228 12 260 33 q 149 -10 197 -10 m 458 489 q 564 515 529 489 q 599 588 599 540 q 588 653 599 615 q 560 726 578 690 q 516 785 542 761 q 461 808 490 808 q 406 784 431 808 q 362 723 381 760 q 332 647 343 686 q 321 576 321 607 q 356 513 321 536 q 458 489 392 489 m 682 -293 q 556 -261 606 -293 q 506 -167 506 -229 q 547 -61 506 -112 q 681 39 588 -10 l 800 42 q 691 -52 732 -3 q 650 -126 650 -101 q 662 -147 650 -142 q 694 -153 674 -153 q 725 -151 708 -153 q 760 -149 742 -149 q 805 -165 790 -149 q 819 -208 819 -181 q 784 -272 819 -251 q 682 -293 749 -293 z "},"Å":{"ha":878,"x_min":33,"x_max":844,"o":"m 149 -10 q 63 27 93 -10 q 33 161 33 64 q 46 292 33 215 q 81 455 58 368 q 134 629 104 542 q 199 792 164 717 q 283 934 242 883 q 371 1006 325 985 q 467 1026 417 1026 q 606 975 542 1026 q 721 799 669 924 q 783 610 754 714 q 828 396 813 506 q 844 183 844 286 q 807 37 844 83 q 703 -10 769 -10 q 608 33 642 -10 q 564 174 574 75 q 558 302 558 236 q 564 429 558 368 l 613 324 q 505 305 569 308 q 370 308 440 301 q 240 333 300 314 l 333 426 q 326 295 335 360 q 307 178 318 231 q 278 75 297 117 q 228 12 260 33 q 149 -10 197 -10 m 458 489 q 564 515 529 489 q 599 588 599 540 q 588 653 599 615 q 560 726 578 690 q 516 785 542 761 q 461 808 490 808 q 406 784 431 808 q 362 723 381 760 q 332 647 343 686 q 321 576 321 607 q 356 513 321 536 q 458 489 392 489 m 479 1043 q 347 1073 400 1043 q 294 1165 294 1103 q 347 1270 294 1229 q 496 1311 399 1311 q 628 1273 586 1311 q 669 1182 669 1235 q 619 1082 669 1121 q 479 1043 568 1043 m 471 1122 q 546 1135 515 1122 q 576 1176 576 1149 q 553 1220 576 1204 q 482 1236 531 1236 q 410 1217 433 1236 q 388 1175 388 1197 q 410 1137 388 1151 q 471 1122 433 1122 z "},"Ã":{"ha":878,"x_min":33,"x_max":844,"o":"m 149 -10 q 63 27 93 -10 q 33 161 33 64 q 46 292 33 215 q 81 455 58 368 q 134 629 104 542 q 199 792 164 717 q 283 934 242 883 q 371 1006 325 985 q 467 1026 417 1026 q 606 975 542 1026 q 721 799 669 924 q 783 610 754 714 q 828 396 813 506 q 844 183 844 286 q 807 37 844 83 q 703 -10 769 -10 q 608 33 642 -10 q 564 174 574 75 q 558 302 558 236 q 564 429 558 368 l 613 324 q 505 305 569 308 q 370 308 440 301 q 240 333 300 314 l 333 426 q 326 295 335 360 q 307 178 318 231 q 278 75 297 117 q 228 12 260 33 q 149 -10 197 -10 m 458 489 q 564 515 529 489 q 599 588 599 540 q 588 653 599 615 q 560 726 578 690 q 516 785 542 761 q 461 808 490 808 q 406 784 431 808 q 362 723 381 760 q 332 647 343 686 q 321 576 321 607 q 356 513 321 536 q 458 489 392 489 m 400 1256 q 490 1235 450 1256 q 567 1179 529 1214 q 583 1172 576 1171 q 592 1182 589 1172 q 624 1253 606 1231 q 681 1276 643 1276 q 740 1213 740 1276 q 724 1144 740 1183 q 672 1076 707 1106 q 579 1047 636 1047 q 490 1074 528 1047 q 414 1147 451 1101 q 397 1158 404 1160 q 385 1136 389 1157 q 352 1060 372 1083 q 293 1038 332 1038 q 245 1058 264 1038 q 226 1107 226 1079 q 249 1178 226 1144 q 311 1234 272 1213 q 400 1256 350 1256 z "},"Æ":{"ha":1276,"x_min":33,"x_max":1249,"o":"m 149 -10 q 63 27 93 -10 q 33 161 33 64 q 47 292 33 215 q 85 454 61 368 q 143 628 110 540 q 215 792 176 715 q 303 933 261 882 q 389 1005 344 983 q 483 1026 433 1026 q 622 975 558 1026 q 729 799 685 924 l 613 313 q 505 294 569 297 q 370 297 440 290 q 240 322 300 303 l 333 426 q 326 295 335 360 q 307 178 318 231 q 278 75 297 117 q 228 12 260 33 q 149 -10 197 -10 m 444 478 q 540 503 508 478 q 571 576 571 529 q 563 661 571 618 q 542 740 556 704 q 508 797 528 775 q 464 819 488 819 q 409 793 435 819 q 363 727 383 767 q 332 644 343 688 q 321 565 321 600 q 353 501 321 525 q 444 478 385 478 m 1028 1022 q 1200 990 1151 1022 q 1249 897 1249 958 q 1192 801 1249 833 q 1014 768 1135 768 q 898 770 963 768 q 764 778 833 772 l 781 793 q 790 684 793 742 q 767 574 786 626 l 754 583 q 840 598 790 592 q 942 608 889 604 q 1039 613 994 613 q 1174 585 1135 613 q 1214 519 1214 558 q 1169 447 1214 476 q 1015 417 1124 417 q 879 422 949 417 q 744 438 810 428 l 763 454 q 783 372 778 419 q 787 278 789 325 q 772 196 785 231 l 763 206 q 858 231 804 221 q 969 247 913 242 q 1075 253 1026 253 q 1203 230 1161 253 q 1246 153 1246 207 q 1226 88 1246 115 q 1156 40 1206 61 q 1072 15 1122 26 q 966 -2 1022 4 q 856 -8 910 -8 q 694 17 758 -8 q 601 90 631 42 q 561 218 575 140 q 547 432 547 296 l 610 479 l 661 783 l 625 897 q 722 972 660 944 q 863 1010 783 999 q 1028 1022 942 1022 z "},"B":{"ha":882,"x_min":69,"x_max":831,"o":"m 353 -7 q 196 26 257 -7 q 107 128 135 58 q 78 242 88 175 q 69 396 69 308 q 79 634 69 538 q 109 794 89 731 q 156 897 129 857 q 278 992 193 957 q 518 1026 363 1026 q 696 997 629 1026 q 793 919 763 968 q 824 810 824 871 q 767 657 824 717 q 618 563 710 597 l 618 557 q 774 492 718 546 q 831 340 831 439 q 790 201 831 264 q 680 91 749 138 q 526 19 611 44 q 353 -7 442 -7 m 415 192 q 517 210 472 192 q 586 260 561 229 q 611 333 611 292 q 568 410 611 379 q 435 442 525 442 q 331 410 371 442 q 292 311 292 379 q 322 219 292 247 q 415 192 353 192 m 419 614 q 553 649 500 614 q 607 743 607 685 q 570 813 607 786 q 464 839 533 839 q 347 810 393 839 q 301 715 301 781 q 333 638 301 661 q 419 614 365 614 z "},"C":{"ha":907,"x_min":49,"x_max":888,"o":"m 542 -15 q 267 44 376 -15 q 103 210 157 103 q 49 460 49 317 q 110 737 49 618 q 285 921 171 856 q 563 986 400 986 q 801 930 714 986 q 888 782 888 874 q 851 687 888 722 q 749 651 815 651 q 672 665 707 651 q 600 692 638 679 q 513 706 563 706 q 406 685 454 706 q 328 617 357 665 q 299 485 299 568 q 356 312 299 363 q 510 261 414 261 q 590 267 547 261 q 673 280 633 274 q 739 286 713 286 q 831 256 796 286 q 865 167 865 226 q 784 35 865 85 q 542 -15 703 -15 z "},"Ć":{"ha":907,"x_min":49,"x_max":888,"o":"m 542 -15 q 267 44 376 -15 q 103 210 157 103 q 49 460 49 317 q 110 737 49 618 q 285 921 171 856 q 563 986 400 986 q 801 930 714 986 q 888 782 888 874 q 851 687 888 722 q 749 651 815 651 q 672 665 707 651 q 600 692 638 679 q 513 706 563 706 q 406 685 454 706 q 328 617 357 665 q 299 485 299 568 q 356 312 299 363 q 510 261 414 261 q 590 267 547 261 q 673 280 633 274 q 739 286 713 286 q 831 256 796 286 q 865 167 865 226 q 784 35 865 85 q 542 -15 703 -15 m 371 1082 q 403 1133 371 1106 q 485 1196 435 1161 q 574 1248 532 1225 q 651 1271 617 1271 q 702 1253 681 1271 q 736 1210 724 1235 q 749 1164 749 1185 q 723 1118 749 1136 q 644 1083 697 1100 q 559 1064 604 1072 q 474 1051 514 1056 q 408 1046 435 1046 q 381 1057 392 1046 q 371 1082 371 1068 z "},"Č":{"ha":907,"x_min":49,"x_max":888,"o":"m 542 -15 q 267 44 376 -15 q 103 210 157 103 q 49 460 49 317 q 110 737 49 618 q 285 921 171 856 q 563 986 400 986 q 801 930 714 986 q 888 782 888 874 q 851 687 888 722 q 749 651 815 651 q 672 665 707 651 q 600 692 638 679 q 513 706 563 706 q 406 685 454 706 q 328 617 357 665 q 299 485 299 568 q 356 312 299 363 q 510 261 414 261 q 590 267 547 261 q 673 280 633 274 q 739 286 713 286 q 831 256 796 286 q 865 167 865 226 q 784 35 865 85 q 542 -15 703 -15 m 506 1060 q 437 1078 475 1060 q 358 1121 399 1096 q 287 1180 314 1151 q 260 1240 260 1208 q 278 1283 260 1267 q 324 1300 296 1300 q 408 1261 360 1300 q 506 1136 456 1222 l 483 1144 q 563 1253 517 1213 q 650 1293 608 1293 q 715 1272 689 1293 q 740 1215 740 1251 q 715 1158 740 1182 q 643 1107 689 1133 q 567 1073 606 1086 q 506 1060 528 1060 z "},"Ç":{"ha":907,"x_min":49,"x_max":888,"o":"m 542 -15 q 267 44 376 -15 q 103 210 157 103 q 49 460 49 317 q 110 737 49 618 q 285 921 171 856 q 563 986 400 986 q 801 930 714 986 q 888 782 888 874 q 851 687 888 722 q 749 651 815 651 q 672 665 707 651 q 600 692 638 679 q 513 706 563 706 q 406 685 454 706 q 328 617 357 665 q 299 485 299 568 q 356 312 299 363 q 510 261 414 261 q 590 267 547 261 q 673 280 633 274 q 739 286 713 286 q 831 256 796 286 q 865 167 865 226 q 784 35 865 85 q 542 -15 703 -15 m 403 -289 q 315 -228 315 -289 q 337 -181 315 -196 q 386 -161 358 -167 q 451 -152 419 -154 q 499 -146 483 -150 q 522 -137 513 -143 q 531 -122 531 -131 q 519 -106 531 -112 q 475 -96 507 -99 q 380 -70 411 -83 q 349 -29 349 -57 q 369 6 349 -4 q 418 15 389 15 q 524 -2 471 15 q 612 -53 576 -19 q 647 -135 647 -86 q 615 -211 647 -176 q 528 -267 583 -246 q 403 -289 474 -289 z "},"Ċ":{"ha":907,"x_min":49,"x_max":888,"o":"m 542 -15 q 267 44 376 -15 q 103 210 157 103 q 49 460 49 317 q 110 737 49 618 q 285 921 171 856 q 563 986 400 986 q 801 930 714 986 q 888 782 888 874 q 851 687 888 722 q 749 651 815 651 q 672 665 707 651 q 600 692 638 679 q 513 706 563 706 q 406 685 454 706 q 328 617 357 665 q 299 485 299 568 q 356 312 299 363 q 510 261 414 261 q 590 267 547 261 q 673 280 633 274 q 739 286 713 286 q 831 256 796 286 q 865 167 865 226 q 784 35 865 85 q 542 -15 703 -15 m 511 1290 q 608 1256 578 1290 q 638 1176 638 1221 q 601 1090 638 1121 q 499 1060 565 1060 q 403 1093 435 1060 q 372 1172 372 1126 q 410 1260 372 1231 q 511 1290 449 1290 z "},"D":{"ha":978,"x_min":28,"x_max":929,"o":"m 279 -32 q 139 -19 189 -32 q 70 19 89 -6 q 50 75 51 43 q 94 158 49 124 q 263 200 140 192 l 229 161 q 209 310 215 225 q 204 486 203 394 q 213 661 206 578 q 235 803 219 744 l 375 804 q 300 783 346 792 q 207 774 254 774 q 72 799 115 774 q 28 869 28 824 q 104 981 28 940 q 339 1021 181 1021 q 662 960 531 1021 q 861 792 793 900 q 929 542 929 685 q 883 312 929 417 q 751 130 838 207 q 546 10 665 53 q 279 -32 426 -32 m 485 240 q 572 272 528 240 q 647 363 617 303 q 676 511 676 424 q 658 628 676 578 q 609 714 639 679 q 544 767 579 749 q 475 785 510 785 q 435 758 450 785 q 415 673 421 731 q 410 525 410 615 q 425 312 410 383 q 485 240 440 240 z "},"Ð":{"ha":978,"x_min":28,"x_max":929,"o":"m 279 -32 q 139 -19 189 -32 q 70 19 89 -6 q 50 75 51 43 q 94 158 49 124 q 263 200 140 192 l 229 161 q 209 310 215 225 q 204 486 203 394 q 213 661 206 578 q 235 803 219 744 l 375 804 q 300 783 346 792 q 207 774 254 774 q 72 799 115 774 q 28 869 28 824 q 104 981 28 940 q 339 1021 181 1021 q 662 960 531 1021 q 861 792 793 900 q 929 542 929 685 q 883 312 929 417 q 751 130 838 207 q 546 10 665 53 q 279 -32 426 -32 m 147 400 q 78 419 100 400 q 56 472 56 439 q 76 528 56 506 q 149 561 97 550 q 242 576 189 569 q 352 585 296 582 q 454 588 408 588 q 535 567 511 588 q 558 510 558 546 q 468 422 558 442 q 367 411 428 417 q 247 403 307 406 q 147 400 188 400 m 485 240 q 572 272 528 240 q 647 363 617 303 q 676 511 676 424 q 658 628 676 578 q 609 714 639 679 q 544 767 579 749 q 475 785 510 785 q 435 758 450 785 q 415 673 421 731 q 410 525 410 615 q 425 312 410 383 q 485 240 440 240 z "},"Ď":{"ha":978,"x_min":28,"x_max":929,"o":"m 279 -32 q 139 -19 189 -32 q 70 19 89 -6 q 50 75 51 43 q 94 158 49 124 q 263 200 140 192 l 229 161 q 209 310 215 225 q 204 486 203 394 q 213 661 206 578 q 235 803 219 744 l 375 804 q 300 783 346 792 q 207 774 254 774 q 72 799 115 774 q 28 869 28 824 q 104 981 28 940 q 339 1021 181 1021 q 662 960 531 1021 q 861 792 793 900 q 929 542 929 685 q 883 312 929 417 q 751 130 838 207 q 546 10 665 53 q 279 -32 426 -32 m 485 240 q 572 272 528 240 q 647 363 617 303 q 676 511 676 424 q 658 628 676 578 q 609 714 639 679 q 544 767 579 749 q 475 785 510 785 q 435 758 450 785 q 415 673 421 731 q 410 525 410 615 q 425 312 410 383 q 485 240 440 240 m 481 1060 q 412 1078 450 1060 q 333 1121 374 1096 q 262 1180 289 1151 q 235 1240 235 1208 q 253 1283 235 1267 q 299 1300 271 1300 q 383 1261 335 1300 q 481 1136 431 1222 l 458 1144 q 538 1253 492 1213 q 625 1293 583 1293 q 690 1272 664 1293 q 715 1215 715 1251 q 690 1158 715 1182 q 618 1107 664 1133 q 542 1073 581 1086 q 481 1060 503 1060 z "},"Đ":{"ha":978,"x_min":28,"x_max":929,"o":"m 279 -32 q 139 -19 189 -32 q 70 19 89 -6 q 50 75 51 43 q 94 158 49 124 q 263 200 140 192 l 229 161 q 209 310 215 225 q 204 486 203 394 q 213 661 206 578 q 235 803 219 744 l 375 804 q 300 783 346 792 q 207 774 254 774 q 72 799 115 774 q 28 869 28 824 q 104 981 28 940 q 339 1021 181 1021 q 662 960 531 1021 q 861 792 793 900 q 929 542 929 685 q 883 312 929 417 q 751 130 838 207 q 546 10 665 53 q 279 -32 426 -32 m 147 400 q 78 419 100 400 q 56 472 56 439 q 76 528 56 506 q 149 561 97 550 q 242 576 189 569 q 352 585 296 582 q 454 588 408 588 q 535 567 511 588 q 558 510 558 546 q 468 422 558 442 q 367 411 428 417 q 247 403 307 406 q 147 400 188 400 m 485 240 q 572 272 528 240 q 647 363 617 303 q 676 511 676 424 q 658 628 676 578 q 609 714 639 679 q 544 767 579 749 q 475 785 510 785 q 435 758 450 785 q 415 673 421 731 q 410 525 410 615 q 425 312 410 383 q 485 240 440 240 z "},"E":{"ha":797,"x_min":69,"x_max":771,"o":"m 550 1022 q 722 990 674 1022 q 771 897 771 958 q 714 801 771 833 q 536 768 657 768 q 420 770 485 768 q 286 778 356 772 l 301 793 q 312 684 315 742 q 289 574 308 626 l 276 583 q 361 598 311 592 q 464 608 411 604 q 561 613 517 613 q 697 585 657 613 q 736 519 736 558 q 691 447 736 476 q 538 417 646 417 q 401 422 471 417 q 265 438 332 428 l 285 454 q 305 372 299 419 q 309 278 311 325 q 293 196 307 231 l 285 206 q 381 231 326 221 q 491 247 435 242 q 597 253 547 253 q 726 230 683 253 q 768 153 768 207 q 747 88 768 115 q 678 40 726 61 q 593 15 643 26 q 488 -2 543 4 q 376 -8 432 -8 q 215 17 279 -8 q 124 90 151 42 q 83 224 96 142 q 69 449 69 306 q 79 669 69 582 q 106 810 89 756 q 146 897 124 865 q 244 972 182 944 q 385 1010 306 999 q 550 1022 464 1022 z "},"É":{"ha":797,"x_min":69,"x_max":771,"o":"m 550 1022 q 722 990 674 1022 q 771 897 771 958 q 714 801 771 833 q 536 768 657 768 q 420 770 485 768 q 286 778 356 772 l 301 793 q 312 684 315 742 q 289 574 308 626 l 276 583 q 361 598 311 592 q 464 608 411 604 q 561 613 517 613 q 697 585 657 613 q 736 519 736 558 q 691 447 736 476 q 538 417 646 417 q 401 422 471 417 q 265 438 332 428 l 285 454 q 305 372 299 419 q 309 278 311 325 q 293 196 307 231 l 285 206 q 381 231 326 221 q 491 247 435 242 q 597 253 547 253 q 726 230 683 253 q 768 153 768 207 q 747 88 768 115 q 678 40 726 61 q 593 15 643 26 q 488 -2 543 4 q 376 -8 432 -8 q 215 17 279 -8 q 124 90 151 42 q 83 224 96 142 q 69 449 69 306 q 79 669 69 582 q 106 810 89 756 q 146 897 124 865 q 244 972 182 944 q 385 1010 306 999 q 550 1022 464 1022 m 321 1082 q 353 1133 321 1106 q 435 1196 385 1161 q 524 1248 482 1225 q 601 1271 567 1271 q 652 1253 631 1271 q 686 1210 674 1235 q 699 1164 699 1185 q 673 1118 699 1136 q 594 1083 647 1100 q 509 1064 554 1072 q 424 1051 464 1056 q 358 1046 385 1046 q 331 1057 342 1046 q 321 1082 321 1068 z "},"Ě":{"ha":797,"x_min":69,"x_max":771,"o":"m 550 1022 q 722 990 674 1022 q 771 897 771 958 q 714 801 771 833 q 536 768 657 768 q 420 770 485 768 q 286 778 356 772 l 301 793 q 312 684 315 742 q 289 574 308 626 l 276 583 q 361 598 311 592 q 464 608 411 604 q 561 613 517 613 q 697 585 657 613 q 736 519 736 558 q 691 447 736 476 q 538 417 646 417 q 401 422 471 417 q 265 438 332 428 l 285 454 q 305 372 299 419 q 309 278 311 325 q 293 196 307 231 l 285 206 q 381 231 326 221 q 491 247 435 242 q 597 253 547 253 q 726 230 683 253 q 768 153 768 207 q 747 88 768 115 q 678 40 726 61 q 593 15 643 26 q 488 -2 543 4 q 376 -8 432 -8 q 215 17 279 -8 q 124 90 151 42 q 83 224 96 142 q 69 449 69 306 q 79 669 69 582 q 106 810 89 756 q 146 897 124 865 q 244 972 182 944 q 385 1010 306 999 q 550 1022 464 1022 m 456 1060 q 387 1078 425 1060 q 308 1121 349 1096 q 237 1180 264 1151 q 210 1240 210 1208 q 228 1283 210 1267 q 274 1300 246 1300 q 358 1261 310 1300 q 456 1136 406 1222 l 433 1144 q 513 1253 467 1213 q 600 1293 558 1293 q 665 1272 639 1293 q 690 1215 690 1251 q 665 1158 690 1182 q 593 1107 639 1133 q 517 1073 556 1086 q 456 1060 478 1060 z "},"Ê":{"ha":797,"x_min":69,"x_max":771,"o":"m 550 1022 q 722 990 674 1022 q 771 897 771 958 q 714 801 771 833 q 536 768 657 768 q 420 770 485 768 q 286 778 356 772 l 301 793 q 312 684 315 742 q 289 574 308 626 l 276 583 q 361 598 311 592 q 464 608 411 604 q 561 613 517 613 q 697 585 657 613 q 736 519 736 558 q 691 447 736 476 q 538 417 646 417 q 401 422 471 417 q 265 438 332 428 l 285 454 q 305 372 299 419 q 309 278 311 325 q 293 196 307 231 l 285 206 q 381 231 326 221 q 491 247 435 242 q 597 253 547 253 q 726 230 683 253 q 768 153 768 207 q 747 88 768 115 q 678 40 726 61 q 593 15 643 26 q 488 -2 543 4 q 376 -8 432 -8 q 215 17 279 -8 q 124 90 151 42 q 83 224 96 142 q 69 449 69 306 q 79 669 69 582 q 106 810 89 756 q 146 897 124 865 q 244 972 182 944 q 385 1010 306 999 q 550 1022 464 1022 m 456 1286 q 517 1273 478 1286 q 593 1238 556 1260 q 665 1188 639 1213 q 690 1131 690 1163 q 665 1074 690 1094 q 600 1053 639 1053 q 513 1092 558 1053 q 433 1201 467 1132 l 456 1210 q 358 1085 406 1124 q 274 1046 310 1046 q 228 1063 246 1046 q 210 1106 210 1079 q 237 1166 210 1138 q 308 1225 264 1194 q 387 1269 349 1251 q 456 1286 425 1286 z "},"Ë":{"ha":797,"x_min":69,"x_max":771,"o":"m 550 1022 q 722 990 674 1022 q 771 897 771 958 q 714 801 771 833 q 536 768 657 768 q 420 770 485 768 q 286 778 356 772 l 301 793 q 312 684 315 742 q 289 574 308 626 l 276 583 q 361 598 311 592 q 464 608 411 604 q 561 613 517 613 q 697 585 657 613 q 736 519 736 558 q 691 447 736 476 q 538 417 646 417 q 401 422 471 417 q 265 438 332 428 l 285 454 q 305 372 299 419 q 309 278 311 325 q 293 196 307 231 l 285 206 q 381 231 326 221 q 491 247 435 242 q 597 253 547 253 q 726 230 683 253 q 768 153 768 207 q 747 88 768 115 q 678 40 726 61 q 593 15 643 26 q 488 -2 543 4 q 376 -8 432 -8 q 215 17 279 -8 q 124 90 151 42 q 83 224 96 142 q 69 449 69 306 q 79 669 69 582 q 106 810 89 756 q 146 897 124 865 q 244 972 182 944 q 385 1010 306 999 q 550 1022 464 1022 m 286 1053 q 200 1082 228 1053 q 172 1150 172 1111 q 208 1231 172 1203 q 310 1260 244 1260 q 396 1228 368 1260 q 424 1154 424 1197 q 385 1078 424 1104 q 286 1053 346 1053 m 608 1274 q 699 1242 671 1274 q 726 1168 726 1210 q 692 1087 726 1114 q 594 1060 658 1060 q 505 1090 535 1060 q 475 1164 475 1121 q 512 1245 475 1217 q 608 1274 549 1274 z "},"Ė":{"ha":797,"x_min":69,"x_max":771,"o":"m 550 1022 q 722 990 674 1022 q 771 897 771 958 q 714 801 771 833 q 536 768 657 768 q 420 770 485 768 q 286 778 356 772 l 301 793 q 312 684 315 742 q 289 574 308 626 l 276 583 q 361 598 311 592 q 464 608 411 604 q 561 613 517 613 q 697 585 657 613 q 736 519 736 558 q 691 447 736 476 q 538 417 646 417 q 401 422 471 417 q 265 438 332 428 l 285 454 q 305 372 299 419 q 309 278 311 325 q 293 196 307 231 l 285 206 q 381 231 326 221 q 491 247 435 242 q 597 253 547 253 q 726 230 683 253 q 768 153 768 207 q 747 88 768 115 q 678 40 726 61 q 593 15 643 26 q 488 -2 543 4 q 376 -8 432 -8 q 215 17 279 -8 q 124 90 151 42 q 83 224 96 142 q 69 449 69 306 q 79 669 69 582 q 106 810 89 756 q 146 897 124 865 q 244 972 182 944 q 385 1010 306 999 q 550 1022 464 1022 m 461 1290 q 558 1256 528 1290 q 588 1176 588 1221 q 551 1090 588 1121 q 449 1060 515 1060 q 353 1093 385 1060 q 322 1172 322 1126 q 360 1260 322 1231 q 461 1290 399 1290 z "},"È":{"ha":797,"x_min":69,"x_max":771,"o":"m 550 1022 q 722 990 674 1022 q 771 897 771 958 q 714 801 771 833 q 536 768 657 768 q 420 770 485 768 q 286 778 356 772 l 301 793 q 312 684 315 742 q 289 574 308 626 l 276 583 q 361 598 311 592 q 464 608 411 604 q 561 613 517 613 q 697 585 657 613 q 736 519 736 558 q 691 447 736 476 q 538 417 646 417 q 401 422 471 417 q 265 438 332 428 l 285 454 q 305 372 299 419 q 309 278 311 325 q 293 196 307 231 l 285 206 q 381 231 326 221 q 491 247 435 242 q 597 253 547 253 q 726 230 683 253 q 768 153 768 207 q 747 88 768 115 q 678 40 726 61 q 593 15 643 26 q 488 -2 543 4 q 376 -8 432 -8 q 215 17 279 -8 q 124 90 151 42 q 83 224 96 142 q 69 449 69 306 q 79 669 69 582 q 106 810 89 756 q 146 897 124 865 q 244 972 182 944 q 385 1010 306 999 q 550 1022 464 1022 m 578 1082 q 569 1057 578 1068 q 540 1046 560 1046 q 475 1051 515 1046 q 390 1064 435 1056 q 306 1083 346 1072 q 226 1118 251 1100 q 200 1164 200 1136 q 213 1210 200 1185 q 248 1253 225 1235 q 299 1271 271 1271 q 374 1248 332 1271 q 464 1196 417 1225 q 547 1133 517 1161 q 578 1082 578 1106 z "},"Ē":{"ha":797,"x_min":69,"x_max":771,"o":"m 550 1022 q 722 990 674 1022 q 771 897 771 958 q 714 801 771 833 q 536 768 657 768 q 420 770 485 768 q 286 778 356 772 l 301 793 q 312 684 315 742 q 289 574 308 626 l 276 583 q 361 598 311 592 q 464 608 411 604 q 561 613 517 613 q 697 585 657 613 q 736 519 736 558 q 691 447 736 476 q 538 417 646 417 q 401 422 471 417 q 265 438 332 428 l 285 454 q 305 372 299 419 q 309 278 311 325 q 293 196 307 231 l 285 206 q 381 231 326 221 q 491 247 435 242 q 597 253 547 253 q 726 230 683 253 q 768 153 768 207 q 747 88 768 115 q 678 40 726 61 q 593 15 643 26 q 488 -2 543 4 q 376 -8 432 -8 q 215 17 279 -8 q 124 90 151 42 q 83 224 96 142 q 69 449 69 306 q 79 669 69 582 q 106 810 89 756 q 146 897 124 865 q 244 972 182 944 q 385 1010 306 999 q 550 1022 464 1022 m 290 1054 q 204 1076 232 1054 q 176 1133 176 1099 q 201 1188 176 1168 q 285 1222 226 1207 q 383 1238 329 1232 q 492 1246 438 1243 q 593 1249 547 1249 q 692 1227 663 1249 q 721 1169 721 1206 q 695 1110 721 1132 q 619 1079 669 1088 q 515 1066 576 1072 q 394 1057 454 1060 q 290 1054 335 1054 z "},"Ę":{"ha":797,"x_min":69,"x_max":771,"o":"m 550 1022 q 722 990 674 1022 q 771 897 771 958 q 714 801 771 833 q 536 768 657 768 q 420 770 485 768 q 286 778 356 772 l 301 793 q 312 684 315 742 q 289 574 308 626 l 276 583 q 361 598 311 592 q 464 608 411 604 q 561 613 517 613 q 697 585 657 613 q 736 519 736 558 q 691 447 736 476 q 538 417 646 417 q 401 422 471 417 q 265 438 332 428 l 285 454 q 305 372 299 419 q 309 278 311 325 q 293 196 307 231 l 285 206 q 381 231 326 221 q 491 247 435 242 q 597 253 547 253 q 726 230 683 253 q 768 153 768 207 q 747 88 768 115 q 678 40 726 61 q 593 15 643 26 q 488 -2 543 4 q 376 -8 432 -8 q 215 17 279 -8 q 124 90 151 42 q 83 224 96 142 q 69 449 69 306 q 79 669 69 582 q 106 810 89 756 q 146 897 124 865 q 244 972 182 944 q 385 1010 306 999 q 550 1022 464 1022 m 563 -293 q 436 -261 486 -293 q 386 -167 386 -229 q 427 -61 386 -112 q 561 39 468 -10 l 681 42 q 572 -52 613 -3 q 531 -126 531 -101 q 542 -147 531 -142 q 575 -153 554 -153 q 606 -151 589 -153 q 640 -149 622 -149 q 685 -165 671 -149 q 700 -208 700 -181 q 665 -272 700 -251 q 563 -293 629 -293 z "},"F":{"ha":739,"x_min":69,"x_max":718,"o":"m 522 994 q 673 960 628 994 q 718 867 718 925 q 656 763 718 796 q 467 729 594 729 q 385 731 431 729 q 289 736 339 733 l 297 772 q 306 680 307 735 q 296 574 306 625 l 283 593 q 531 560 440 583 q 659 499 621 536 q 697 410 697 463 q 667 340 697 368 q 576 313 638 313 q 424 342 507 313 q 254 428 342 372 l 300 431 q 324 348 313 400 q 343 236 336 296 q 350 124 350 176 q 316 3 350 42 q 222 -36 282 -36 q 149 -17 179 -36 q 106 42 119 1 q 79 178 89 86 q 69 407 69 269 q 92 717 69 603 q 149 881 114 832 q 240 947 179 922 q 375 983 300 972 q 522 994 450 994 z "},"G":{"ha":983,"x_min":49,"x_max":968,"o":"m 739 374 q 667 368 700 369 q 606 367 635 367 q 468 383 504 367 q 432 440 432 400 q 451 489 432 467 q 504 529 469 511 q 609 558 543 546 q 753 571 675 571 q 913 549 858 571 q 968 482 968 528 q 938 418 968 444 q 840 383 908 392 l 739 374 m 851 403 q 907 326 890 367 q 924 244 924 285 q 883 120 924 179 q 758 23 843 61 q 538 -15 674 -15 q 264 44 372 -15 q 102 213 156 104 q 49 468 49 322 q 118 751 49 628 q 314 944 188 875 q 611 1014 440 1014 q 826 965 751 1014 q 900 835 900 915 q 866 756 900 785 q 767 726 832 726 q 706 733 738 726 q 640 745 675 739 q 564 751 604 751 q 421 724 486 751 q 316 633 356 696 q 276 465 276 571 q 313 315 276 374 q 412 231 349 257 q 557 204 475 204 q 658 219 622 204 q 708 263 693 233 q 722 339 722 293 q 718 384 722 358 q 706 435 714 410 l 851 403 z "},"Ğ":{"ha":983,"x_min":49,"x_max":968,"o":"m 739 374 q 667 368 700 369 q 606 367 635 367 q 468 383 504 367 q 432 440 432 400 q 451 489 432 467 q 504 529 469 511 q 609 558 543 546 q 753 571 675 571 q 913 549 858 571 q 968 482 968 528 q 938 418 968 444 q 840 383 908 392 l 739 374 m 851 403 q 907 326 890 367 q 924 244 924 285 q 883 120 924 179 q 758 23 843 61 q 538 -15 674 -15 q 264 44 372 -15 q 102 213 156 104 q 49 468 49 322 q 118 751 49 628 q 314 944 188 875 q 611 1014 440 1014 q 826 965 751 1014 q 900 835 900 915 q 866 756 900 785 q 767 726 832 726 q 706 733 738 726 q 640 745 675 739 q 564 751 604 751 q 421 724 486 751 q 316 633 356 696 q 276 465 276 571 q 313 315 276 374 q 412 231 349 257 q 557 204 475 204 q 658 219 622 204 q 708 263 693 233 q 722 339 722 293 q 718 384 722 358 q 706 435 714 410 l 851 403 m 525 1047 q 372 1097 426 1047 q 317 1214 317 1147 q 378 1276 317 1276 q 449 1218 436 1276 q 473 1169 457 1185 q 524 1153 489 1153 q 571 1167 556 1153 q 594 1210 586 1181 q 621 1269 604 1249 q 672 1290 638 1290 q 718 1272 703 1290 q 733 1221 733 1254 q 709 1135 733 1175 q 638 1072 685 1096 q 525 1047 592 1047 z "},"Ģ":{"ha":983,"x_min":49,"x_max":968,"o":"m 739 374 q 667 368 700 369 q 606 367 635 367 q 468 383 504 367 q 432 440 432 400 q 451 489 432 467 q 504 529 469 511 q 609 558 543 546 q 753 571 675 571 q 913 549 858 571 q 968 482 968 528 q 938 418 968 444 q 840 383 908 392 l 739 374 m 851 403 q 907 326 890 367 q 924 244 924 285 q 883 120 924 179 q 758 23 843 61 q 538 -15 674 -15 q 264 44 372 -15 q 102 213 156 104 q 49 468 49 322 q 118 751 49 628 q 314 944 188 875 q 611 1014 440 1014 q 826 965 751 1014 q 900 835 900 915 q 866 756 900 785 q 767 726 832 726 q 706 733 738 726 q 640 745 675 739 q 564 751 604 751 q 421 724 486 751 q 316 633 356 696 q 276 465 276 571 q 313 315 276 374 q 412 231 349 257 q 557 204 475 204 q 658 219 622 204 q 708 263 693 233 q 722 339 722 293 q 718 384 722 358 q 706 435 714 410 l 851 403 m 514 -247 q 412 -222 440 -247 q 383 -153 383 -197 q 394 -102 383 -126 q 434 -62 406 -78 q 513 -46 463 -46 q 604 -74 569 -46 q 639 -162 639 -101 q 623 -235 639 -196 q 578 -307 607 -275 q 531 -347 554 -333 q 486 -361 508 -361 q 459 -354 469 -361 q 449 -332 449 -347 q 460 -296 449 -319 q 510 -233 472 -272 l 514 -247 z "},"Ġ":{"ha":983,"x_min":49,"x_max":968,"o":"m 739 374 q 667 368 700 369 q 606 367 635 367 q 468 383 504 367 q 432 440 432 400 q 451 489 432 467 q 504 529 469 511 q 609 558 543 546 q 753 571 675 571 q 913 549 858 571 q 968 482 968 528 q 938 418 968 444 q 840 383 908 392 l 739 374 m 851 403 q 907 326 890 367 q 924 244 924 285 q 883 120 924 179 q 758 23 843 61 q 538 -15 674 -15 q 264 44 372 -15 q 102 213 156 104 q 49 468 49 322 q 118 751 49 628 q 314 944 188 875 q 611 1014 440 1014 q 826 965 751 1014 q 900 835 900 915 q 866 756 900 785 q 767 726 832 726 q 706 733 738 726 q 640 745 675 739 q 564 751 604 751 q 421 724 486 751 q 316 633 356 696 q 276 465 276 571 q 313 315 276 374 q 412 231 349 257 q 557 204 475 204 q 658 219 622 204 q 708 263 693 233 q 722 339 722 293 q 718 384 722 358 q 706 435 714 410 l 851 403 m 538 1290 q 634 1256 604 1290 q 664 1176 664 1221 q 628 1090 664 1121 q 525 1060 592 1060 q 430 1093 461 1060 q 399 1172 399 1126 q 437 1260 399 1231 q 538 1290 475 1290 z "},"H":{"ha":942,"x_min":69,"x_max":874,"o":"m 247 1021 q 328 989 300 1021 q 357 889 357 957 q 339 734 357 821 q 289 569 321 647 l 258 593 q 466 615 358 617 q 661 588 574 614 l 628 579 q 599 745 608 663 q 590 892 590 828 q 619 996 590 963 q 706 1029 647 1029 q 794 994 763 1029 q 842 888 826 960 q 865 726 857 821 q 874 532 874 631 q 867 334 874 435 q 847 146 861 233 q 799 29 833 65 q 701 -7 765 -7 q 607 31 636 -7 q 578 161 578 68 q 591 320 578 238 q 629 483 604 403 l 667 444 q 469 423 572 422 q 268 444 365 424 l 279 488 q 333 319 310 406 q 357 144 357 232 q 321 25 357 61 q 222 -11 285 -11 q 138 17 171 -11 q 92 117 106 44 q 76 266 82 176 q 69 454 69 356 q 80 685 69 574 q 108 878 90 797 q 157 985 124 949 q 247 1021 190 1021 z "},"Ħ":{"ha":942,"x_min":-75,"x_max":1024,"o":"m 222 -11 q 138 17 171 -11 q 92 117 106 44 q 76 266 82 176 q 69 454 69 356 q 80 685 69 574 q 108 878 90 797 q 157 985 124 949 q 247 1021 190 1021 q 328 989 300 1021 q 357 889 357 957 q 339 734 357 821 q 289 569 321 647 l 258 593 q 466 615 358 617 q 661 588 574 614 l 628 579 q 599 745 608 663 q 590 892 590 828 q 619 996 590 963 q 706 1029 647 1029 q 794 994 763 1029 q 842 888 826 960 q 865 726 857 821 q 874 532 874 631 q 867 334 874 435 q 847 146 861 233 q 799 29 833 65 q 701 -7 765 -7 q 607 31 636 -7 q 578 161 578 68 q 591 320 578 238 q 629 483 604 403 l 667 444 q 469 423 572 422 q 268 444 365 424 l 279 488 q 333 319 310 406 q 357 144 357 232 q 321 25 357 61 q 222 -11 285 -11 m 49 689 q -48 708 -21 689 q -75 760 -75 728 q -50 814 -75 790 q 50 847 -25 838 q 230 866 125 857 q 453 882 335 875 q 685 894 571 889 q 894 899 800 899 q 995 878 967 899 q 1024 824 1024 858 q 998 769 1024 792 q 908 739 972 747 q 757 724 844 731 q 571 710 669 717 q 375 699 472 704 q 193 692 278 694 q 49 689 108 689 z "},"I":{"ha":431,"x_min":69,"x_max":361,"o":"m 221 1035 q 297 1003 268 1035 q 340 900 326 972 q 356 750 350 843 q 361 551 361 657 q 356 372 361 457 q 339 214 350 288 q 292 83 325 121 q 208 44 260 44 q 128 75 160 44 q 86 179 97 106 q 74 308 79 228 q 69 482 69 389 q 77 715 69 608 q 99 893 85 822 q 143 1001 114 968 q 221 1035 172 1035 z "},"Ĳ":{"ha":1307,"x_min":69,"x_max":1285,"o":"m 221 1035 q 297 1003 268 1035 q 340 900 326 972 q 356 750 350 843 q 361 551 361 657 q 356 372 361 457 q 339 214 350 288 q 292 83 325 121 q 208 44 260 44 q 128 75 160 44 q 86 179 97 106 q 74 308 79 228 q 69 482 69 389 q 77 715 69 608 q 99 893 85 822 q 143 1001 114 968 q 221 1035 172 1035 m 919 774 q 813 748 863 757 q 722 739 764 739 q 634 763 665 739 q 603 835 603 788 q 626 904 603 871 q 699 964 650 938 q 828 1007 750 990 q 1006 1024 906 1024 q 1127 1014 1075 1024 q 1211 988 1179 1004 q 1268 942 1251 969 q 1285 881 1285 915 q 1256 807 1285 835 q 1160 779 1226 779 q 1111 782 1136 779 q 1058 790 1086 785 l 919 774 m 1054 847 q 1156 656 1119 765 q 1193 428 1193 546 q 1152 203 1193 304 q 1025 44 1111 103 q 799 -15 939 -15 q 538 73 625 -15 q 451 319 451 161 q 475 456 451 400 q 537 542 499 513 q 621 571 575 571 q 692 544 668 571 q 717 472 717 518 q 709 413 717 444 q 701 350 701 381 q 729 239 701 274 q 814 204 757 204 q 928 270 896 204 q 961 451 961 336 q 944 622 961 539 q 888 793 926 706 l 1054 847 z "},"Í":{"ha":438,"x_min":69,"x_max":468,"o":"m 226 58 q 153 92 182 58 q 107 208 124 126 q 87 342 96 265 q 74 495 78 418 q 69 631 69 572 q 84 860 69 779 q 129 974 99 942 q 207 1007 160 1007 q 278 972 251 1007 q 324 856 306 936 q 342 753 333 813 q 356 632 350 694 q 365 511 361 569 q 368 411 368 453 q 356 215 368 293 q 314 97 344 136 q 226 58 283 58 m 89 1063 q 121 1114 89 1086 q 203 1176 153 1142 q 292 1228 250 1206 q 369 1251 335 1251 q 420 1233 399 1251 q 454 1190 442 1215 q 467 1144 467 1165 q 441 1099 467 1117 q 363 1064 415 1081 q 277 1044 322 1053 q 192 1031 232 1036 q 126 1026 153 1026 q 99 1038 110 1026 q 89 1063 89 1049 z "},"Î":{"ha":438,"x_min":25,"x_max":411,"o":"m 226 58 q 153 92 182 58 q 107 208 124 126 q 87 342 96 265 q 74 495 78 418 q 69 631 69 572 q 84 860 69 779 q 129 974 99 942 q 207 1007 160 1007 q 278 972 251 1007 q 324 856 306 936 q 342 753 333 813 q 356 632 350 694 q 365 511 361 569 q 368 411 368 453 q 356 215 368 293 q 314 97 344 136 q 226 58 283 58 m 222 1267 q 276 1253 242 1267 q 344 1215 311 1239 q 393 1167 376 1192 q 410 1111 410 1143 q 387 1054 410 1075 q 332 1033 364 1033 q 260 1073 293 1033 q 200 1182 226 1113 l 224 1190 q 155 1065 188 1104 q 89 1026 122 1026 q 43 1043 61 1026 q 25 1086 25 1060 q 44 1146 25 1118 q 94 1201 63 1174 q 164 1251 132 1235 q 222 1267 196 1267 z "},"Ï":{"ha":438,"x_min":18,"x_max":417,"o":"m 226 58 q 153 92 182 58 q 107 208 124 126 q 87 342 96 265 q 74 495 78 418 q 69 631 69 572 q 84 860 69 779 q 129 974 99 942 q 207 1007 160 1007 q 278 972 251 1007 q 324 856 306 936 q 342 753 333 813 q 356 632 350 694 q 365 511 361 569 q 368 411 368 453 q 356 215 368 293 q 314 97 344 136 q 226 58 283 58 m 97 1033 q 37 1063 56 1033 q 18 1131 18 1092 q 45 1212 18 1183 q 121 1240 72 1240 q 181 1209 161 1240 q 200 1135 200 1178 q 173 1059 200 1085 q 97 1033 146 1033 m 333 1254 q 397 1222 378 1254 q 417 1149 417 1190 q 392 1067 417 1094 q 318 1040 367 1040 q 256 1071 276 1040 q 235 1144 235 1101 q 262 1226 235 1197 q 333 1254 289 1254 z "},"İ":{"ha":431,"x_min":69,"x_max":361,"o":"m 221 1035 q 297 1003 268 1035 q 340 900 326 972 q 356 750 350 843 q 361 551 361 657 q 356 372 361 457 q 339 214 350 288 q 292 83 325 121 q 208 44 260 44 q 128 75 160 44 q 86 179 97 106 q 74 308 79 228 q 69 482 69 389 q 77 715 69 608 q 99 893 85 822 q 143 1001 114 968 q 221 1035 172 1035 m 228 1299 q 324 1264 294 1299 q 354 1185 354 1229 q 318 1099 354 1129 q 215 1068 282 1068 q 120 1101 151 1068 q 89 1181 89 1135 q 127 1269 89 1239 q 228 1299 165 1299 z "},"Ì":{"ha":438,"x_min":-32,"x_max":368,"o":"m 226 58 q 153 92 182 58 q 107 208 124 126 q 87 342 96 265 q 74 495 78 418 q 69 631 69 572 q 84 860 69 779 q 129 974 99 942 q 207 1007 160 1007 q 278 972 251 1007 q 324 856 306 936 q 342 753 333 813 q 356 632 350 694 q 365 511 361 569 q 368 411 368 453 q 356 215 368 293 q 314 97 344 136 q 226 58 283 58 m 346 1063 q 337 1038 346 1049 q 308 1026 328 1026 q 243 1031 283 1026 q 158 1044 203 1036 q 74 1064 114 1053 q -6 1099 19 1081 q -32 1144 -32 1117 q -19 1190 -32 1165 q 16 1233 -7 1215 q 67 1251 39 1251 q 142 1228 100 1251 q 232 1176 185 1206 q 315 1114 285 1142 q 346 1063 346 1086 z "},"Ī":{"ha":431,"x_min":-57,"x_max":488,"o":"m 221 1035 q 297 1003 268 1035 q 340 900 326 972 q 356 750 350 843 q 361 551 361 657 q 356 372 361 457 q 339 214 350 288 q 292 83 325 121 q 208 44 260 44 q 128 75 160 44 q 86 179 97 106 q 74 308 79 228 q 69 482 69 389 q 77 715 69 608 q 99 893 85 822 q 143 1001 114 968 q 221 1035 172 1035 m 57 1063 q -29 1085 -1 1063 q -57 1142 -57 1107 q -32 1196 -57 1176 q 51 1231 -7 1215 q 150 1246 96 1240 q 259 1254 204 1251 q 360 1257 314 1257 q 458 1235 429 1257 q 488 1178 488 1214 q 462 1118 488 1140 q 386 1088 436 1096 q 282 1074 343 1081 q 161 1065 221 1068 q 57 1063 101 1063 z "},"Į":{"ha":431,"x_min":-18,"x_max":361,"o":"m 221 1035 q 297 1003 268 1035 q 340 900 326 972 q 356 750 350 843 q 361 551 361 657 q 356 372 361 457 q 339 214 350 288 q 292 83 325 121 q 208 44 260 44 q 128 75 160 44 q 86 179 97 106 q 74 308 79 228 q 69 482 69 389 q 77 715 69 608 q 99 893 85 822 q 143 1001 114 968 q 221 1035 172 1035 m 158 -265 q 32 -233 82 -265 q -18 -139 -18 -201 q 23 -33 -18 -85 q 157 67 64 18 l 276 69 q 167 -24 208 25 q 126 -99 126 -74 q 138 -119 126 -114 q 171 -125 150 -125 q 201 -123 185 -125 q 236 -121 218 -121 q 281 -137 267 -121 q 296 -181 296 -153 q 260 -244 296 -224 q 158 -265 225 -265 z "},"J":{"ha":876,"x_min":21,"x_max":854,"o":"m 489 774 q 383 748 432 757 q 292 739 333 739 q 203 763 235 739 q 172 835 172 788 q 196 904 172 871 q 268 964 219 938 q 397 1007 319 990 q 575 1024 475 1024 q 697 1014 644 1024 q 781 988 749 1004 q 838 942 821 969 q 854 881 854 915 q 825 807 854 835 q 729 779 796 779 q 681 782 706 779 q 628 790 656 785 l 489 774 m 624 847 q 726 656 689 765 q 763 428 763 546 q 722 203 763 304 q 594 44 681 103 q 368 -15 508 -15 q 108 73 194 -15 q 21 319 21 161 q 44 456 21 400 q 106 542 68 513 q 190 571 144 571 q 262 544 238 571 q 286 472 286 518 q 278 413 286 444 q 271 350 271 381 q 299 239 271 274 q 383 204 326 204 q 498 270 465 204 q 531 451 531 336 q 513 622 531 539 q 457 793 496 706 l 624 847 z "},"K":{"ha":871,"x_min":69,"x_max":849,"o":"m 183 -14 q 128 5 150 -14 q 96 64 107 24 q 78 202 86 107 q 69 413 69 297 q 76 656 69 538 q 99 864 83 774 q 138 965 111 932 q 215 997 165 997 q 278 978 251 997 q 317 912 304 958 q 331 783 331 865 q 328 713 331 751 q 322 626 326 674 l 328 626 q 495 859 419 774 q 633 981 571 944 q 747 1017 696 1017 q 822 984 796 1017 q 849 903 849 951 q 748 724 849 821 q 422 499 647 626 l 433 529 q 724 303 628 404 q 821 111 821 201 q 790 31 821 61 q 701 1 758 1 q 581 40 642 1 q 455 168 519 78 q 317 411 390 258 l 311 411 q 315 357 314 385 q 315 303 315 329 q 287 59 315 132 q 183 -14 258 -14 z "},"Ķ":{"ha":871,"x_min":69,"x_max":849,"o":"m 183 -14 q 128 5 150 -14 q 96 64 107 24 q 78 202 86 107 q 69 413 69 297 q 76 656 69 538 q 99 864 83 774 q 138 965 111 932 q 215 997 165 997 q 278 978 251 997 q 317 912 304 958 q 331 783 331 865 q 328 713 331 751 q 322 626 326 674 l 328 626 q 495 859 419 774 q 633 981 571 944 q 747 1017 696 1017 q 822 984 796 1017 q 849 903 849 951 q 748 724 849 821 q 422 499 647 626 l 433 529 q 724 303 628 404 q 821 111 821 201 q 790 31 821 61 q 701 1 758 1 q 581 40 642 1 q 455 168 519 78 q 317 411 390 258 l 311 411 q 315 357 314 385 q 315 303 315 329 q 287 59 315 132 q 183 -14 258 -14 m 419 -247 q 317 -222 346 -247 q 289 -153 289 -197 q 300 -102 289 -126 q 340 -62 311 -78 q 418 -46 368 -46 q 510 -74 475 -46 q 544 -162 544 -101 q 528 -235 544 -196 q 483 -307 513 -275 q 437 -347 460 -333 q 392 -361 414 -361 q 365 -354 375 -361 q 354 -332 354 -347 q 366 -296 354 -319 q 415 -233 378 -272 l 419 -247 z "},"L":{"ha":775,"x_min":69,"x_max":753,"o":"m 336 -8 q 196 15 244 -8 q 118 96 147 39 q 82 235 94 142 q 69 481 69 328 q 76 698 69 594 q 92 858 82 801 q 139 972 107 938 q 221 1007 171 1007 q 297 972 269 1007 q 337 880 325 938 q 349 751 349 822 q 331 462 349 608 q 286 192 314 315 l 264 204 q 380 279 317 249 q 507 326 443 310 q 625 343 571 343 q 721 313 689 343 q 753 229 753 283 q 716 131 753 178 q 615 51 679 83 q 532 21 579 35 q 434 -1 485 7 q 336 -8 383 -8 z "},"Ĺ":{"ha":775,"x_min":69,"x_max":753,"o":"m 336 -8 q 196 15 244 -8 q 118 96 147 39 q 82 235 94 142 q 69 481 69 328 q 76 698 69 594 q 92 858 82 801 q 139 972 107 938 q 221 1007 171 1007 q 297 972 269 1007 q 337 880 325 938 q 349 751 349 822 q 331 462 349 608 q 286 192 314 315 l 264 204 q 380 279 317 249 q 507 326 443 310 q 625 343 571 343 q 721 313 689 343 q 753 229 753 283 q 716 131 753 178 q 615 51 679 83 q 532 21 579 35 q 434 -1 485 7 q 336 -8 383 -8 m 231 1082 q 263 1133 231 1106 q 344 1196 294 1161 q 434 1248 392 1225 q 511 1271 476 1271 q 562 1253 540 1271 q 596 1210 583 1235 q 608 1164 608 1185 q 583 1118 608 1136 q 504 1083 557 1100 q 419 1064 464 1072 q 334 1051 374 1056 q 268 1046 294 1046 q 241 1057 251 1046 q 231 1082 231 1068 z "},"Ľ":{"ha":775,"x_min":69,"x_max":753,"o":"m 336 -8 q 196 15 244 -8 q 118 96 147 39 q 82 235 94 142 q 69 481 69 328 q 76 698 69 594 q 92 858 82 801 q 139 972 107 938 q 221 1007 171 1007 q 297 972 269 1007 q 337 880 325 938 q 349 751 349 822 q 331 462 349 608 q 286 192 314 315 l 264 204 q 380 279 317 249 q 507 326 443 310 q 625 343 571 343 q 721 313 689 343 q 753 229 753 283 q 716 131 753 178 q 615 51 679 83 q 532 21 579 35 q 434 -1 485 7 q 336 -8 383 -8 m 489 742 q 470 798 471 756 q 479 899 469 840 q 499 989 490 947 q 531 1054 508 1031 q 581 1080 550 1078 q 642 1073 611 1082 q 690 1050 672 1064 q 713 1003 714 1032 q 688 928 711 975 q 647 860 669 894 q 602 796 624 825 q 563 749 581 767 q 526 731 547 732 q 489 742 504 729 z "},"Ļ":{"ha":775,"x_min":69,"x_max":753,"o":"m 336 -8 q 196 15 244 -8 q 118 96 147 39 q 82 235 94 142 q 69 481 69 328 q 76 698 69 594 q 92 858 82 801 q 139 972 107 938 q 221 1007 171 1007 q 297 972 269 1007 q 337 880 325 938 q 349 751 349 822 q 331 462 349 608 q 286 192 314 315 l 264 204 q 380 279 317 249 q 507 326 443 310 q 625 343 571 343 q 721 313 689 343 q 753 229 753 283 q 716 131 753 178 q 615 51 679 83 q 532 21 579 35 q 434 -1 485 7 q 336 -8 383 -8 m 367 -247 q 265 -222 293 -247 q 236 -153 236 -197 q 247 -102 236 -126 q 287 -62 258 -78 q 365 -46 315 -46 q 457 -74 422 -46 q 492 -162 492 -101 q 476 -235 492 -196 q 431 -307 460 -275 q 384 -347 407 -333 q 339 -361 361 -361 q 312 -354 322 -361 q 301 -332 301 -347 q 313 -296 301 -319 q 363 -233 325 -272 l 367 -247 z "},"Ł":{"ha":786,"x_min":-69,"x_max":765,"o":"m 89 207 q 3 160 38 164 q -50 182 -31 157 q -65 240 -69 206 q -11 329 -61 274 q 87 434 42 385 q 180 531 132 483 q 285 631 228 579 q 414 744 342 683 q 505 793 471 790 q 561 769 539 796 q 578 711 583 744 q 528 631 572 678 q 418 517 472 572 q 310 408 364 461 q 201 306 256 356 q 89 207 146 256 m 347 -8 q 208 15 257 -8 q 131 96 160 39 q 94 235 107 142 q 81 481 81 328 q 88 698 81 594 q 104 858 94 801 q 151 972 119 938 q 233 1007 183 1007 q 310 972 282 1007 q 349 880 338 938 q 360 751 360 822 q 343 462 360 608 q 299 192 326 315 l 275 204 q 392 279 329 249 q 519 326 456 310 q 636 343 583 343 q 733 313 701 343 q 765 229 765 283 q 728 131 765 178 q 628 51 692 83 q 544 21 592 35 q 447 -1 497 7 q 347 -8 396 -8 z "},"M":{"ha":1033,"x_min":69,"x_max":964,"o":"m 811 -11 q 744 6 774 -11 q 700 64 715 22 q 685 181 685 106 q 692 371 685 269 q 710 577 699 472 q 732 779 721 682 l 726 779 q 626 493 679 586 q 507 400 572 400 q 433 434 467 400 q 367 553 399 468 q 300 790 336 638 l 294 790 q 308 649 301 724 q 320 497 314 574 q 330 353 326 421 q 333 231 333 285 q 322 127 333 174 q 282 53 311 81 q 203 26 253 26 q 102 74 135 26 q 69 232 69 122 q 73 364 69 289 q 82 519 76 439 q 96 676 88 600 q 114 808 104 751 q 168 955 131 911 q 265 999 206 999 q 352 967 310 999 q 435 855 394 935 q 513 632 475 775 l 518 632 q 592 865 554 779 q 671 988 631 951 q 751 1025 711 1025 q 851 980 815 1025 q 906 851 886 935 q 939 660 926 769 q 958 437 951 551 q 964 224 964 322 q 922 42 964 94 q 811 -11 881 -11 z "},"N":{"ha":961,"x_min":69,"x_max":892,"o":"m 250 988 q 342 949 297 988 q 434 831 388 911 q 534 624 481 750 q 651 321 588 497 l 657 321 q 640 443 647 376 q 625 578 632 510 q 615 706 618 646 q 611 808 611 765 q 640 975 611 925 q 725 1025 668 1025 q 790 1006 765 1025 q 832 947 815 986 q 878 738 865 871 q 892 435 892 606 q 880 202 892 296 q 835 61 868 108 q 740 14 803 14 q 660 38 700 14 q 580 113 619 61 q 498 247 540 164 q 409 447 456 329 q 308 722 363 565 l 303 722 q 322 576 314 661 q 335 402 331 492 q 340 239 340 313 q 308 47 340 104 q 207 -10 275 -10 q 101 49 132 -10 q 69 232 69 108 q 73 388 69 300 q 83 570 76 476 q 100 749 89 664 q 147 929 115 871 q 250 988 178 988 z "},"Ń":{"ha":961,"x_min":69,"x_max":892,"o":"m 250 988 q 342 949 297 988 q 434 831 388 911 q 534 624 481 750 q 651 321 588 497 l 657 321 q 640 443 647 376 q 625 578 632 510 q 615 706 618 646 q 611 808 611 765 q 640 975 611 925 q 725 1025 668 1025 q 790 1006 765 1025 q 832 947 815 986 q 878 738 865 871 q 892 435 892 606 q 880 202 892 296 q 835 61 868 108 q 740 14 803 14 q 660 38 700 14 q 580 113 619 61 q 498 247 540 164 q 409 447 456 329 q 308 722 363 565 l 303 722 q 322 576 314 661 q 335 402 331 492 q 340 239 340 313 q 308 47 340 104 q 207 -10 275 -10 q 101 49 132 -10 q 69 232 69 108 q 73 388 69 300 q 83 570 76 476 q 100 749 89 664 q 147 929 115 871 q 250 988 178 988 m 344 1082 q 376 1133 344 1106 q 458 1196 408 1161 q 548 1248 506 1225 q 625 1271 590 1271 q 676 1253 654 1271 q 710 1210 697 1235 q 722 1164 722 1185 q 697 1118 722 1136 q 618 1083 671 1100 q 533 1064 578 1072 q 448 1051 488 1056 q 382 1046 408 1046 q 355 1057 365 1046 q 344 1082 344 1068 z "},"Ň":{"ha":961,"x_min":69,"x_max":892,"o":"m 250 988 q 342 949 297 988 q 434 831 388 911 q 534 624 481 750 q 651 321 588 497 l 657 321 q 640 443 647 376 q 625 578 632 510 q 615 706 618 646 q 611 808 611 765 q 640 975 611 925 q 725 1025 668 1025 q 790 1006 765 1025 q 832 947 815 986 q 878 738 865 871 q 892 435 892 606 q 880 202 892 296 q 835 61 868 108 q 740 14 803 14 q 660 38 700 14 q 580 113 619 61 q 498 247 540 164 q 409 447 456 329 q 308 722 363 565 l 303 722 q 322 576 314 661 q 335 402 331 492 q 340 239 340 313 q 308 47 340 104 q 207 -10 275 -10 q 101 49 132 -10 q 69 232 69 108 q 73 388 69 300 q 83 570 76 476 q 100 749 89 664 q 147 929 115 871 q 250 988 178 988 m 479 1060 q 410 1078 449 1060 q 332 1121 372 1096 q 260 1180 288 1151 q 233 1240 233 1208 q 251 1283 233 1267 q 297 1300 269 1300 q 381 1261 333 1300 q 479 1136 429 1222 l 457 1144 q 536 1253 490 1213 q 624 1293 582 1293 q 688 1272 663 1293 q 714 1215 714 1251 q 688 1158 714 1182 q 617 1107 663 1133 q 540 1073 579 1086 q 479 1060 501 1060 z "},"Ņ":{"ha":961,"x_min":69,"x_max":892,"o":"m 250 988 q 342 949 297 988 q 434 831 388 911 q 534 624 481 750 q 651 321 588 497 l 657 321 q 640 443 647 376 q 625 578 632 510 q 615 706 618 646 q 611 808 611 765 q 640 975 611 925 q 725 1025 668 1025 q 790 1006 765 1025 q 832 947 815 986 q 878 738 865 871 q 892 435 892 606 q 880 202 892 296 q 835 61 868 108 q 740 14 803 14 q 660 38 700 14 q 580 113 619 61 q 498 247 540 164 q 409 447 456 329 q 308 722 363 565 l 303 722 q 322 576 314 661 q 335 402 331 492 q 340 239 340 313 q 308 47 340 104 q 207 -10 275 -10 q 101 49 132 -10 q 69 232 69 108 q 73 388 69 300 q 83 570 76 476 q 100 749 89 664 q 147 929 115 871 q 250 988 178 988 m 482 -247 q 380 -222 408 -247 q 351 -153 351 -197 q 363 -102 351 -126 q 402 -62 374 -78 q 481 -46 431 -46 q 572 -74 538 -46 q 607 -162 607 -101 q 591 -235 607 -196 q 546 -307 575 -275 q 499 -347 522 -333 q 454 -361 476 -361 q 427 -354 438 -361 q 417 -332 417 -347 q 428 -296 417 -319 q 478 -233 440 -272 l 482 -247 z "},"Ñ":{"ha":961,"x_min":69,"x_max":892,"o":"m 250 988 q 342 949 297 988 q 434 831 388 911 q 534 624 481 750 q 651 321 588 497 l 657 321 q 640 443 647 376 q 625 578 632 510 q 615 706 618 646 q 611 808 611 765 q 640 975 611 925 q 725 1025 668 1025 q 790 1006 765 1025 q 832 947 815 986 q 878 738 865 871 q 892 435 892 606 q 880 202 892 296 q 835 61 868 108 q 740 14 803 14 q 660 38 700 14 q 580 113 619 61 q 498 247 540 164 q 409 447 456 329 q 308 722 363 565 l 303 722 q 322 576 314 661 q 335 402 331 492 q 340 239 340 313 q 308 47 340 104 q 207 -10 275 -10 q 101 49 132 -10 q 69 232 69 108 q 73 388 69 300 q 83 570 76 476 q 100 749 89 664 q 147 929 115 871 q 250 988 178 988 m 390 1256 q 480 1235 440 1256 q 557 1179 519 1214 q 573 1172 567 1171 q 582 1182 579 1172 q 615 1253 596 1231 q 671 1276 633 1276 q 731 1213 731 1276 q 714 1144 731 1183 q 662 1076 697 1106 q 569 1047 626 1047 q 480 1074 518 1047 q 404 1147 442 1101 q 387 1158 394 1160 q 375 1136 379 1157 q 342 1060 363 1083 q 283 1038 322 1038 q 235 1058 254 1038 q 217 1107 217 1079 q 240 1178 217 1144 q 301 1234 263 1213 q 390 1256 340 1256 z "},"Ŋ":{"ha":956,"x_min":69,"x_max":893,"o":"m 682 -292 q 588 -269 629 -292 q 522 -212 546 -247 q 497 -137 497 -176 q 517 -80 497 -101 q 572 -58 538 -58 q 647 -79 608 -58 q 725 -140 686 -100 q 704 -59 714 -100 q 689 22 694 -18 q 602 83 644 36 q 514 215 560 131 q 418 426 468 300 q 308 722 368 551 l 303 722 q 322 576 314 661 q 335 402 331 492 q 340 239 340 313 q 308 47 340 104 q 207 -10 275 -10 q 101 49 132 -10 q 69 232 69 108 q 73 388 69 300 q 83 570 76 476 q 100 749 89 664 q 147 929 115 871 q 250 988 178 988 q 342 949 297 988 q 434 831 388 911 q 534 624 481 750 q 651 321 588 497 l 657 321 q 640 443 647 376 q 625 578 632 510 q 615 706 618 646 q 611 808 611 765 q 640 975 611 925 q 725 1025 668 1025 q 790 1006 765 1025 q 832 947 815 986 q 867 822 854 897 q 885 656 879 746 q 892 471 890 567 q 892 392 892 438 q 892 293 893 346 q 891 185 892 240 q 887 76 890 129 q 880 -22 883 24 q 869 -100 876 -67 q 803 -247 850 -203 q 682 -292 757 -292 z "},"O":{"ha":1053,"x_min":49,"x_max":1003,"o":"m 510 10 q 267 64 371 10 q 106 219 163 118 q 49 457 49 319 q 106 725 49 610 q 269 905 164 840 q 514 969 374 969 q 772 907 663 969 q 942 733 882 844 q 1003 472 1003 621 q 942 226 1003 329 q 770 66 881 122 q 510 10 660 10 m 529 285 q 644 314 594 285 q 720 396 693 343 q 747 518 747 449 q 720 640 747 588 q 644 722 693 692 q 529 751 594 751 q 416 722 465 751 q 339 640 367 692 q 311 518 311 588 q 339 396 311 449 q 416 314 367 343 q 529 285 465 285 z "},"Ó":{"ha":1053,"x_min":49,"x_max":1003,"o":"m 510 10 q 267 64 371 10 q 106 219 163 118 q 49 457 49 319 q 106 725 49 610 q 269 905 164 840 q 514 969 374 969 q 772 907 663 969 q 942 733 882 844 q 1003 472 1003 621 q 942 226 1003 329 q 770 66 881 122 q 510 10 660 10 m 529 285 q 644 314 594 285 q 720 396 693 343 q 747 518 747 449 q 720 640 747 588 q 644 722 693 692 q 529 751 594 751 q 416 722 465 751 q 339 640 367 692 q 311 518 311 588 q 339 396 311 449 q 416 314 367 343 q 529 285 465 285 m 399 1025 q 431 1076 399 1049 q 513 1139 463 1104 q 602 1191 560 1168 q 679 1214 644 1214 q 730 1196 708 1214 q 764 1153 751 1178 q 776 1107 776 1128 q 751 1061 776 1079 q 672 1026 725 1043 q 587 1007 632 1015 q 502 994 542 999 q 436 989 463 989 q 409 1000 419 989 q 399 1025 399 1011 z "},"Ô":{"ha":1053,"x_min":49,"x_max":1003,"o":"m 510 10 q 267 64 371 10 q 106 219 163 118 q 49 457 49 319 q 106 725 49 610 q 269 905 164 840 q 514 969 374 969 q 772 907 663 969 q 942 733 882 844 q 1003 472 1003 621 q 942 226 1003 329 q 770 66 881 122 q 510 10 660 10 m 529 285 q 644 314 594 285 q 720 396 693 343 q 747 518 747 449 q 720 640 747 588 q 644 722 693 692 q 529 751 594 751 q 416 722 465 751 q 339 640 367 692 q 311 518 311 588 q 339 396 311 449 q 416 314 367 343 q 529 285 465 285 m 533 1229 q 594 1216 556 1229 q 671 1181 633 1203 q 742 1131 717 1156 q 768 1074 768 1106 q 742 1017 768 1038 q 678 996 717 996 q 590 1035 636 996 q 511 1144 544 1075 l 533 1153 q 435 1028 483 1067 q 351 989 388 989 q 306 1006 324 989 q 288 1049 288 1022 q 315 1109 288 1081 q 386 1168 342 1138 q 465 1212 426 1194 q 533 1229 503 1229 z "},"Ö":{"ha":1053,"x_min":49,"x_max":1003,"o":"m 510 10 q 267 64 371 10 q 106 219 163 118 q 49 457 49 319 q 106 725 49 610 q 269 905 164 840 q 514 969 374 969 q 772 907 663 969 q 942 733 882 844 q 1003 472 1003 621 q 942 226 1003 329 q 770 66 881 122 q 510 10 660 10 m 529 285 q 644 314 594 285 q 720 396 693 343 q 747 518 747 449 q 720 640 747 588 q 644 722 693 692 q 529 751 594 751 q 416 722 465 751 q 339 640 367 692 q 311 518 311 588 q 339 396 311 449 q 416 314 367 343 q 529 285 465 285 m 364 996 q 278 1025 306 996 q 250 1093 250 1054 q 286 1174 250 1146 q 388 1203 322 1203 q 474 1172 446 1203 q 501 1097 501 1140 q 463 1022 501 1047 q 364 996 424 996 m 686 1217 q 776 1185 749 1217 q 804 1111 804 1153 q 770 1030 804 1057 q 672 1003 736 1003 q 583 1033 613 1003 q 553 1107 553 1064 q 590 1188 553 1160 q 686 1217 626 1217 z "},"Ò":{"ha":1053,"x_min":49,"x_max":1003,"o":"m 510 10 q 267 64 371 10 q 106 219 163 118 q 49 457 49 319 q 106 725 49 610 q 269 905 164 840 q 514 969 374 969 q 772 907 663 969 q 942 733 882 844 q 1003 472 1003 621 q 942 226 1003 329 q 770 66 881 122 q 510 10 660 10 m 529 285 q 644 314 594 285 q 720 396 693 343 q 747 518 747 449 q 720 640 747 588 q 644 722 693 692 q 529 751 594 751 q 416 722 465 751 q 339 640 367 692 q 311 518 311 588 q 339 396 311 449 q 416 314 367 343 q 529 285 465 285 m 656 1025 q 647 1000 656 1011 q 618 989 638 989 q 553 994 593 989 q 468 1007 513 999 q 383 1026 424 1015 q 303 1061 329 1043 q 278 1107 278 1079 q 290 1153 278 1128 q 326 1196 303 1178 q 376 1214 349 1214 q 452 1191 410 1214 q 542 1139 494 1168 q 625 1076 594 1104 q 656 1025 656 1049 z "},"Ő":{"ha":1053,"x_min":49,"x_max":1003,"o":"m 510 10 q 267 64 371 10 q 106 219 163 118 q 49 457 49 319 q 106 725 49 610 q 269 905 164 840 q 514 969 374 969 q 772 907 663 969 q 942 733 882 844 q 1003 472 1003 621 q 942 226 1003 329 q 770 66 881 122 q 510 10 660 10 m 529 285 q 644 314 594 285 q 720 396 693 343 q 747 518 747 449 q 720 640 747 588 q 644 722 693 692 q 529 751 594 751 q 416 722 465 751 q 339 640 367 692 q 311 518 311 588 q 339 396 311 449 q 416 314 367 343 q 529 285 465 285 m 631 989 q 603 999 615 989 q 592 1026 592 1010 q 605 1075 592 1044 q 640 1142 618 1106 q 676 1199 657 1169 q 718 1248 696 1228 q 768 1268 740 1268 q 814 1256 790 1268 q 853 1226 838 1244 q 869 1190 869 1207 q 817 1113 869 1160 q 762 1067 793 1090 q 702 1026 731 1044 q 656 996 674 1008 q 644 991 650 993 q 631 989 638 989 m 351 989 q 324 999 336 989 q 313 1025 313 1008 q 326 1074 313 1044 q 363 1140 340 1104 q 401 1202 382 1174 q 442 1249 421 1231 q 490 1267 464 1267 q 535 1255 513 1267 q 575 1225 558 1243 q 592 1189 592 1207 q 540 1111 592 1158 q 482 1066 514 1089 q 421 1024 450 1043 q 372 996 392 1006 q 361 991 367 993 q 351 989 356 989 z "},"Ō":{"ha":1053,"x_min":49,"x_max":1003,"o":"m 510 10 q 267 64 371 10 q 106 219 163 118 q 49 457 49 319 q 106 725 49 610 q 269 905 164 840 q 514 969 374 969 q 772 907 663 969 q 942 733 882 844 q 1003 472 1003 621 q 942 226 1003 329 q 770 66 881 122 q 510 10 660 10 m 529 285 q 644 314 594 285 q 720 396 693 343 q 747 518 747 449 q 720 640 747 588 q 644 722 693 692 q 529 751 594 751 q 416 722 465 751 q 339 640 367 692 q 311 518 311 588 q 339 396 311 449 q 416 314 367 343 q 529 285 465 285 m 368 997 q 282 1019 310 997 q 254 1076 254 1042 q 279 1131 254 1111 q 363 1165 304 1150 q 461 1181 407 1175 q 570 1189 515 1186 q 671 1192 625 1192 q 769 1170 740 1192 q 799 1113 799 1149 q 773 1053 799 1075 q 697 1022 747 1031 q 593 1009 654 1015 q 472 1000 532 1003 q 368 997 413 997 z "},"Ø":{"ha":1053,"x_min":49,"x_max":1003,"o":"m 510 10 q 267 64 371 10 q 106 219 163 118 q 49 457 49 319 q 106 725 49 610 q 269 905 164 840 q 514 969 374 969 q 772 907 663 969 q 942 733 882 844 q 1003 472 1003 621 q 942 226 1003 329 q 770 66 881 122 q 510 10 660 10 m 529 268 q 660 299 604 268 q 747 388 715 331 q 778 518 778 444 q 747 649 778 592 q 660 737 715 706 q 529 768 604 768 q 400 737 456 768 q 313 649 344 706 q 281 518 281 592 q 313 388 281 444 q 400 299 344 331 q 529 268 456 268 m 207 79 q 284 228 238 140 q 385 417 331 317 q 497 620 440 518 q 607 812 554 722 q 699 965 660 901 q 760 1031 733 1018 q 811 1032 786 1044 q 840 989 836 1021 q 814 896 843 957 q 724 720 774 815 q 621 527 675 625 q 513 336 567 429 q 410 163 458 243 q 325 24 361 82 q 258 -50 285 -37 q 207 -51 231 -62 q 181 -10 183 -40 q 207 79 179 19 z "},"Õ":{"ha":1053,"x_min":49,"x_max":1003,"o":"m 510 10 q 267 64 371 10 q 106 219 163 118 q 49 457 49 319 q 106 725 49 610 q 269 905 164 840 q 514 969 374 969 q 772 907 663 969 q 942 733 882 844 q 1003 472 1003 621 q 942 226 1003 329 q 770 66 881 122 q 510 10 660 10 m 529 285 q 644 314 594 285 q 720 396 693 343 q 747 518 747 449 q 720 640 747 588 q 644 722 693 692 q 529 751 594 751 q 416 722 465 751 q 339 640 367 692 q 311 518 311 588 q 339 396 311 449 q 416 314 367 343 q 529 285 465 285 m 443 1199 q 533 1178 493 1199 q 610 1122 572 1157 q 626 1115 619 1114 q 635 1125 632 1115 q 667 1197 649 1174 q 724 1219 686 1219 q 783 1156 783 1219 q 767 1088 783 1126 q 715 1019 750 1049 q 622 990 679 990 q 533 1017 571 990 q 457 1090 494 1044 q 440 1101 447 1103 q 428 1079 432 1100 q 395 1003 415 1026 q 336 981 375 981 q 288 1001 307 981 q 269 1050 269 1022 q 292 1122 269 1088 q 354 1177 315 1156 q 443 1199 393 1199 z "},"Œ":{"ha":1479,"x_min":49,"x_max":1453,"o":"m 510 10 q 267 64 371 10 q 106 219 163 118 q 49 457 49 319 q 106 725 49 610 q 269 905 164 840 q 514 969 374 969 q 751 907 654 969 q 897 733 847 844 q 947 472 947 621 q 834 134 947 258 q 510 10 721 10 m 529 285 q 644 314 594 285 q 720 396 693 343 q 747 518 747 449 q 720 640 747 588 q 644 722 693 692 q 529 751 594 751 q 416 722 465 751 q 339 640 367 692 q 311 518 311 588 q 339 396 311 449 q 416 314 367 343 q 529 285 465 285 m 1232 1022 q 1404 990 1356 1022 q 1453 897 1453 958 q 1396 801 1453 833 q 1218 768 1339 768 q 1102 770 1167 768 q 968 778 1038 772 l 983 793 q 994 684 997 742 q 971 574 990 626 l 958 583 q 1043 598 993 592 q 1146 608 1093 604 q 1243 613 1199 613 q 1378 585 1339 613 q 1418 519 1418 558 q 1373 447 1418 476 q 1219 417 1328 417 q 1083 422 1153 417 q 947 438 1014 428 l 967 454 q 987 372 981 419 q 991 278 993 325 q 975 196 989 231 l 967 206 q 1063 231 1008 221 q 1173 247 1117 242 q 1279 253 1229 253 q 1408 230 1365 253 q 1450 153 1450 207 q 1429 88 1450 115 q 1360 40 1408 61 q 1275 15 1325 26 q 1169 -2 1225 4 q 1058 -8 1114 -8 q 897 17 961 -8 q 806 90 833 42 q 765 224 778 142 q 751 449 751 306 q 761 669 751 582 q 788 810 771 756 q 828 897 806 865 q 926 972 864 944 q 1067 1010 988 999 q 1232 1022 1146 1022 z "},"P":{"ha":839,"x_min":69,"x_max":813,"o":"m 476 999 q 731 914 649 999 q 813 692 813 829 q 769 528 813 597 q 650 420 725 458 q 481 382 575 382 q 397 390 442 382 q 304 421 351 399 l 314 447 q 333 365 325 414 q 345 266 340 317 q 350 172 350 215 q 315 37 350 83 q 211 -10 279 -10 q 124 21 156 -10 q 81 121 93 51 q 69 306 69 190 q 89 635 69 499 q 153 851 108 772 q 272 959 190 919 q 476 999 354 999 m 444 560 q 572 601 522 560 q 621 717 621 642 q 589 797 621 765 q 486 829 557 829 q 395 806 435 829 q 335 744 356 783 q 314 657 314 706 q 346 584 314 608 q 444 560 378 560 z "},"Þ":{"ha":839,"x_min":69,"x_max":813,"o":"m 211 -10 q 99 56 128 -10 q 69 267 69 122 q 69 372 69 307 q 69 513 69 436 q 69 660 69 589 q 69 786 69 732 q 69 860 69 840 q 104 995 69 949 q 207 1042 139 1042 q 260 1029 238 1042 q 297 990 283 1017 q 313 921 310 963 q 311 883 313 903 q 306 843 310 864 q 296 801 303 822 q 389 847 343 833 q 489 860 435 860 q 733 775 653 860 q 813 553 813 690 q 769 389 813 458 q 649 281 725 319 q 478 243 574 243 q 405 250 444 243 q 322 275 365 257 q 344 215 338 243 q 350 160 350 188 q 315 32 350 74 q 211 -10 279 -10 m 444 421 q 572 462 522 421 q 621 578 621 503 q 589 658 621 626 q 486 690 557 690 q 395 667 435 690 q 335 606 356 644 q 314 518 314 567 q 346 445 314 469 q 444 421 378 421 z "},"Q":{"ha":1083,"x_min":49,"x_max":1103,"o":"m 506 10 q 262 66 364 10 q 104 225 160 122 q 49 468 49 328 q 110 749 49 628 q 285 940 172 871 q 549 1008 397 1008 q 747 970 658 1008 q 900 865 836 932 q 998 712 964 799 q 1032 528 1032 625 q 1003 349 1032 431 q 922 215 975 268 l 835 132 q 695 41 782 72 q 506 10 608 10 m 1004 -25 q 906 16 957 -25 q 807 135 854 57 l 914 239 q 1053 165 1003 207 q 1103 69 1103 122 q 1077 4 1103 33 q 1004 -25 1051 -25 m 708 282 q 586 363 629 318 q 543 450 543 408 q 565 506 543 486 q 621 526 588 526 q 711 483 671 526 q 786 361 751 440 l 708 282 m 550 269 q 633 281 594 269 q 704 315 672 292 l 761 365 q 783 430 775 393 q 790 510 790 467 q 722 708 790 638 q 540 779 653 779 q 416 746 469 779 q 333 655 363 713 q 304 519 304 597 q 335 387 304 443 q 421 300 365 331 q 550 269 476 269 z "},"R":{"ha":913,"x_min":69,"x_max":878,"o":"m 214 -10 q 126 22 157 -10 q 82 124 94 53 q 69 314 69 194 q 94 649 69 508 q 174 868 118 789 q 326 990 232 954 q 529 1026 419 1026 q 793 945 708 1026 q 878 732 878 864 q 826 561 878 629 q 685 463 774 493 q 485 439 596 432 l 485 433 q 781 273 692 353 q 871 124 871 193 q 835 39 871 71 q 739 7 800 7 q 615 44 678 7 q 481 167 551 81 q 325 406 410 254 l 319 406 q 331 335 326 376 q 340 249 336 293 q 343 165 343 204 q 314 35 343 81 q 214 -10 285 -10 m 469 586 q 558 603 518 586 q 621 649 597 619 q 644 719 644 679 q 608 814 644 778 q 494 850 571 850 q 407 829 443 850 q 351 774 371 808 q 332 701 332 740 q 367 619 332 651 q 469 586 401 586 z "},"Ŕ":{"ha":913,"x_min":69,"x_max":878,"o":"m 214 -10 q 126 22 157 -10 q 82 124 94 53 q 69 314 69 194 q 94 649 69 508 q 174 868 118 789 q 326 990 232 954 q 529 1026 419 1026 q 793 945 708 1026 q 878 732 878 864 q 826 561 878 629 q 685 463 774 493 q 485 439 596 432 l 485 433 q 781 273 692 353 q 871 124 871 193 q 835 39 871 71 q 739 7 800 7 q 615 44 678 7 q 481 167 551 81 q 325 406 410 254 l 319 406 q 331 335 326 376 q 340 249 336 293 q 343 165 343 204 q 314 35 343 81 q 214 -10 285 -10 m 469 586 q 558 603 518 586 q 621 649 597 619 q 644 719 644 679 q 608 814 644 778 q 494 850 571 850 q 407 829 443 850 q 351 774 371 808 q 332 701 332 740 q 367 619 332 651 q 469 586 401 586 m 315 1082 q 347 1133 315 1106 q 429 1196 379 1161 q 519 1248 476 1225 q 596 1271 561 1271 q 647 1253 625 1271 q 681 1210 668 1235 q 693 1164 693 1185 q 667 1118 693 1136 q 589 1083 642 1100 q 503 1064 549 1072 q 419 1051 458 1056 q 353 1046 379 1046 q 326 1057 336 1046 q 315 1082 315 1068 z "},"Ř":{"ha":913,"x_min":69,"x_max":878,"o":"m 214 -10 q 126 22 157 -10 q 82 124 94 53 q 69 314 69 194 q 94 649 69 508 q 174 868 118 789 q 326 990 232 954 q 529 1026 419 1026 q 793 945 708 1026 q 878 732 878 864 q 826 561 878 629 q 685 463 774 493 q 485 439 596 432 l 485 433 q 781 273 692 353 q 871 124 871 193 q 835 39 871 71 q 739 7 800 7 q 615 44 678 7 q 481 167 551 81 q 325 406 410 254 l 319 406 q 331 335 326 376 q 340 249 336 293 q 343 165 343 204 q 314 35 343 81 q 214 -10 285 -10 m 469 586 q 558 603 518 586 q 621 649 597 619 q 644 719 644 679 q 608 814 644 778 q 494 850 571 850 q 407 829 443 850 q 351 774 371 808 q 332 701 332 740 q 367 619 332 651 q 469 586 401 586 m 450 1060 q 381 1078 419 1060 q 303 1121 343 1096 q 231 1180 258 1151 q 204 1240 204 1208 q 222 1283 204 1267 q 268 1300 240 1300 q 352 1261 304 1300 q 450 1136 400 1222 l 428 1144 q 507 1253 461 1213 q 594 1293 553 1293 q 659 1272 633 1293 q 685 1215 685 1251 q 659 1158 685 1182 q 588 1107 633 1133 q 511 1073 550 1086 q 450 1060 472 1060 z "},"Ŗ":{"ha":913,"x_min":69,"x_max":878,"o":"m 214 -10 q 126 22 157 -10 q 82 124 94 53 q 69 314 69 194 q 94 649 69 508 q 174 868 118 789 q 326 990 232 954 q 529 1026 419 1026 q 793 945 708 1026 q 878 732 878 864 q 826 561 878 629 q 685 463 774 493 q 485 439 596 432 l 485 433 q 781 273 692 353 q 871 124 871 193 q 835 39 871 71 q 739 7 800 7 q 615 44 678 7 q 481 167 551 81 q 325 406 410 254 l 319 406 q 331 335 326 376 q 340 249 336 293 q 343 165 343 204 q 314 35 343 81 q 214 -10 285 -10 m 469 586 q 558 603 518 586 q 621 649 597 619 q 644 719 644 679 q 608 814 644 778 q 494 850 571 850 q 407 829 443 850 q 351 774 371 808 q 332 701 332 740 q 367 619 332 651 q 469 586 401 586 m 451 -247 q 349 -222 378 -247 q 321 -153 321 -197 q 332 -102 321 -126 q 372 -62 343 -78 q 450 -46 400 -46 q 542 -74 507 -46 q 576 -162 576 -101 q 560 -235 576 -196 q 515 -307 544 -275 q 469 -347 492 -333 q 424 -361 446 -361 q 397 -354 407 -361 q 386 -332 386 -347 q 398 -296 386 -319 q 447 -233 410 -272 l 451 -247 z "},"S":{"ha":806,"x_min":26,"x_max":779,"o":"m 363 -4 q 253 3 311 -4 q 143 31 194 11 q 59 83 92 50 q 26 169 26 117 q 59 256 26 228 q 167 283 92 283 q 272 273 214 283 q 376 263 331 263 q 467 281 438 263 q 497 332 497 300 q 483 370 497 354 q 433 401 469 386 q 326 435 396 417 q 169 490 229 458 q 81 569 108 522 q 53 682 53 617 q 81 817 53 760 q 158 913 110 874 q 265 976 206 953 q 385 1011 324 1000 q 503 1022 447 1022 q 703 981 626 1022 q 779 865 779 940 q 744 775 779 810 q 635 740 708 740 q 569 746 607 740 q 492 757 532 751 q 413 763 451 763 q 315 744 349 763 q 281 683 281 725 q 292 647 281 664 q 340 613 304 631 q 449 575 376 596 q 628 503 563 543 q 721 411 693 463 q 749 294 749 360 q 700 138 749 206 q 565 33 651 71 q 363 -4 478 -4 z "},"Ś":{"ha":806,"x_min":26,"x_max":779,"o":"m 363 -4 q 253 3 311 -4 q 143 31 194 11 q 59 83 92 50 q 26 169 26 117 q 59 256 26 228 q 167 283 92 283 q 272 273 214 283 q 376 263 331 263 q 467 281 438 263 q 497 332 497 300 q 483 370 497 354 q 433 401 469 386 q 326 435 396 417 q 169 490 229 458 q 81 569 108 522 q 53 682 53 617 q 81 817 53 760 q 158 913 110 874 q 265 976 206 953 q 385 1011 324 1000 q 503 1022 447 1022 q 703 981 626 1022 q 779 865 779 940 q 744 775 779 810 q 635 740 708 740 q 569 746 607 740 q 492 757 532 751 q 413 763 451 763 q 315 744 349 763 q 281 683 281 725 q 292 647 281 664 q 340 613 304 631 q 449 575 376 596 q 628 503 563 543 q 721 411 693 463 q 749 294 749 360 q 700 138 749 206 q 565 33 651 71 q 363 -4 478 -4 m 269 1082 q 301 1133 269 1106 q 383 1196 333 1161 q 473 1248 431 1225 q 550 1271 515 1271 q 601 1253 579 1271 q 635 1210 622 1235 q 647 1164 647 1185 q 622 1118 647 1136 q 543 1083 596 1100 q 458 1064 503 1072 q 373 1051 413 1056 q 307 1046 333 1046 q 280 1057 290 1046 q 269 1082 269 1068 z "},"Š":{"ha":806,"x_min":26,"x_max":779,"o":"m 363 -4 q 253 3 311 -4 q 143 31 194 11 q 59 83 92 50 q 26 169 26 117 q 59 256 26 228 q 167 283 92 283 q 272 273 214 283 q 376 263 331 263 q 467 281 438 263 q 497 332 497 300 q 483 370 497 354 q 433 401 469 386 q 326 435 396 417 q 169 490 229 458 q 81 569 108 522 q 53 682 53 617 q 81 817 53 760 q 158 913 110 874 q 265 976 206 953 q 385 1011 324 1000 q 503 1022 447 1022 q 703 981 626 1022 q 779 865 779 940 q 744 775 779 810 q 635 740 708 740 q 569 746 607 740 q 492 757 532 751 q 413 763 451 763 q 315 744 349 763 q 281 683 281 725 q 292 647 281 664 q 340 613 304 631 q 449 575 376 596 q 628 503 563 543 q 721 411 693 463 q 749 294 749 360 q 700 138 749 206 q 565 33 651 71 q 363 -4 478 -4 m 404 1060 q 335 1078 374 1060 q 257 1121 297 1096 q 185 1180 213 1151 q 158 1240 158 1208 q 176 1283 158 1267 q 222 1300 194 1300 q 306 1261 258 1300 q 404 1136 354 1222 l 382 1144 q 461 1253 415 1213 q 549 1293 507 1293 q 613 1272 588 1293 q 639 1215 639 1251 q 613 1158 639 1182 q 542 1107 588 1133 q 465 1073 504 1086 q 404 1060 426 1060 z "},"Ş":{"ha":806,"x_min":26,"x_max":779,"o":"m 363 -4 q 253 3 311 -4 q 143 31 194 11 q 59 83 92 50 q 26 169 26 117 q 59 256 26 228 q 167 283 92 283 q 272 273 214 283 q 376 263 331 263 q 467 281 438 263 q 497 332 497 300 q 483 370 497 354 q 433 401 469 386 q 326 435 396 417 q 169 490 229 458 q 81 569 108 522 q 53 682 53 617 q 81 817 53 760 q 158 913 110 874 q 265 976 206 953 q 385 1011 324 1000 q 503 1022 447 1022 q 703 981 626 1022 q 779 865 779 940 q 744 775 779 810 q 635 740 708 740 q 569 746 607 740 q 492 757 532 751 q 413 763 451 763 q 315 744 349 763 q 281 683 281 725 q 292 647 281 664 q 340 613 304 631 q 449 575 376 596 q 628 503 563 543 q 721 411 693 463 q 749 294 749 360 q 700 138 749 206 q 565 33 651 71 q 363 -4 478 -4 m 350 -289 q 263 -228 263 -289 q 284 -181 263 -196 q 333 -161 306 -167 q 399 -152 367 -154 q 446 -146 431 -150 q 469 -137 460 -143 q 478 -122 478 -131 q 466 -106 478 -112 q 422 -96 454 -99 q 327 -70 358 -83 q 296 -29 296 -57 q 316 6 296 -4 q 365 15 336 15 q 471 -2 418 15 q 559 -53 524 -19 q 594 -135 594 -86 q 563 -211 594 -176 q 476 -267 531 -246 q 350 -289 421 -289 z "},"Ș":{"ha":806,"x_min":26,"x_max":779,"o":"m 363 -4 q 253 3 311 -4 q 143 31 194 11 q 59 83 92 50 q 26 169 26 117 q 59 256 26 228 q 167 283 92 283 q 272 273 214 283 q 376 263 331 263 q 467 281 438 263 q 497 332 497 300 q 483 370 497 354 q 433 401 469 386 q 326 435 396 417 q 169 490 229 458 q 81 569 108 522 q 53 682 53 617 q 81 817 53 760 q 158 913 110 874 q 265 976 206 953 q 385 1011 324 1000 q 503 1022 447 1022 q 703 981 626 1022 q 779 865 779 940 q 744 775 779 810 q 635 740 708 740 q 569 746 607 740 q 492 757 532 751 q 413 763 451 763 q 315 744 349 763 q 281 683 281 725 q 292 647 281 664 q 340 613 304 631 q 449 575 376 596 q 628 503 563 543 q 721 411 693 463 q 749 294 749 360 q 700 138 749 206 q 565 33 651 71 q 363 -4 478 -4 m 406 -247 q 303 -222 332 -247 q 275 -153 275 -197 q 286 -102 275 -126 q 326 -62 297 -78 q 404 -46 354 -46 q 496 -74 461 -46 q 531 -162 531 -101 q 515 -235 531 -196 q 469 -307 499 -275 q 423 -347 446 -333 q 378 -361 400 -361 q 351 -354 361 -361 q 340 -332 340 -347 q 352 -296 340 -319 q 401 -233 364 -272 l 406 -247 z "},"ẞ":{"ha":911,"x_min":68,"x_max":869,"o":"m 204 -12 q 106 31 143 -12 q 68 156 68 75 q 81 363 68 258 q 108 597 93 468 q 126 730 117 660 q 143 867 135 800 q 168 941 150 914 q 217 981 186 968 q 292 997 249 994 q 362 999 326 999 q 438 1000 397 1000 q 522 1000 478 1000 q 693 970 619 1000 q 808 882 767 940 q 849 739 849 824 q 796 605 849 664 q 649 507 743 546 q 814 411 758 469 q 869 263 869 353 q 831 123 869 183 q 720 28 792 63 q 553 -6 649 -6 q 435 26 472 -6 q 399 106 399 58 q 431 179 399 157 q 522 213 463 201 q 601 243 578 222 q 625 296 625 264 q 603 343 625 324 q 531 383 582 363 q 466 421 486 401 q 446 481 446 440 q 463 536 446 513 q 508 579 481 560 q 562 619 535 599 q 606 666 589 640 q 624 725 624 692 q 588 794 624 768 q 488 821 553 821 q 405 808 443 821 q 339 768 367 796 q 335 653 336 721 q 334 509 335 585 q 333 361 333 433 q 333 233 333 289 q 332 149 332 176 q 301 33 332 78 q 204 -12 269 -12 z "},"T":{"ha":835,"x_min":21,"x_max":814,"o":"m 435 1021 q 606 1011 536 1021 q 718 985 675 1001 q 794 929 774 963 q 814 853 814 896 q 776 756 814 793 q 661 719 739 719 q 569 728 618 719 q 468 753 519 736 l 479 781 q 512 639 497 717 q 537 481 526 561 q 552 331 547 401 q 557 211 557 260 q 522 47 557 103 q 404 -10 488 -10 q 294 41 329 -10 q 258 194 258 92 q 266 331 258 254 q 288 489 274 407 q 321 646 303 571 q 358 776 339 721 l 375 753 q 310 734 347 743 q 235 719 272 725 q 168 714 197 714 q 54 744 88 714 q 21 829 21 775 q 47 913 21 876 q 125 974 72 949 q 253 1009 178 997 q 435 1021 329 1021 z "},"Ť":{"ha":835,"x_min":21,"x_max":814,"o":"m 435 1021 q 606 1011 536 1021 q 718 985 675 1001 q 794 929 774 963 q 814 853 814 896 q 776 756 814 793 q 661 719 739 719 q 569 728 618 719 q 468 753 519 736 l 479 781 q 512 639 497 717 q 537 481 526 561 q 552 331 547 401 q 557 211 557 260 q 522 47 557 103 q 404 -10 488 -10 q 294 41 329 -10 q 258 194 258 92 q 266 331 258 254 q 288 489 274 407 q 321 646 303 571 q 358 776 339 721 l 375 753 q 310 734 347 743 q 235 719 272 725 q 168 714 197 714 q 54 744 88 714 q 21 829 21 775 q 47 913 21 876 q 125 974 72 949 q 253 1009 178 997 q 435 1021 329 1021 m 424 1060 q 355 1078 393 1060 q 276 1121 317 1096 q 205 1180 232 1151 q 178 1240 178 1208 q 196 1283 178 1267 q 242 1300 214 1300 q 326 1261 278 1300 q 424 1136 374 1222 l 401 1144 q 481 1253 435 1213 q 568 1293 526 1293 q 633 1272 607 1293 q 658 1215 658 1251 q 633 1158 658 1182 q 561 1107 607 1133 q 485 1073 524 1086 q 424 1060 446 1060 z "},"Ț":{"ha":835,"x_min":21,"x_max":814,"o":"m 435 1021 q 606 1011 536 1021 q 718 985 675 1001 q 794 929 774 963 q 814 853 814 896 q 776 756 814 793 q 661 719 739 719 q 569 728 618 719 q 468 753 519 736 l 479 781 q 512 639 497 717 q 537 481 526 561 q 552 331 547 401 q 557 211 557 260 q 522 47 557 103 q 404 -10 488 -10 q 294 41 329 -10 q 258 194 258 92 q 266 331 258 254 q 288 489 274 407 q 321 646 303 571 q 358 776 339 721 l 375 753 q 310 734 347 743 q 235 719 272 725 q 168 714 197 714 q 54 744 88 714 q 21 829 21 775 q 47 913 21 876 q 125 974 72 949 q 253 1009 178 997 q 435 1021 329 1021 m 426 -247 q 324 -222 353 -247 q 296 -153 296 -197 q 307 -102 296 -126 q 347 -62 318 -78 q 425 -46 375 -46 q 517 -74 482 -46 q 551 -162 551 -101 q 535 -235 551 -196 q 490 -307 519 -275 q 444 -347 467 -333 q 399 -361 421 -361 q 372 -354 382 -361 q 361 -332 361 -347 q 373 -296 361 -319 q 422 -233 385 -272 l 426 -247 z "},"U":{"ha":899,"x_min":69,"x_max":831,"o":"m 431 -11 q 154 88 239 -11 q 69 415 69 188 q 74 569 69 490 q 87 722 78 649 q 108 850 96 796 q 157 955 122 917 q 256 993 192 993 q 341 964 311 993 q 371 875 371 935 q 361 793 371 844 q 340 681 351 742 q 318 560 328 619 q 308 453 308 500 q 346 305 308 347 q 453 263 383 263 q 556 308 522 263 q 589 453 589 354 q 583 550 589 490 q 571 675 578 610 q 558 795 564 740 q 553 878 553 850 q 665 1015 553 1015 q 756 981 724 1015 q 800 879 788 947 q 817 756 810 828 q 827 606 824 683 q 831 458 831 528 q 789 188 831 292 q 660 37 747 85 q 431 -11 572 -11 z "},"Ú":{"ha":899,"x_min":69,"x_max":831,"o":"m 431 -11 q 154 88 239 -11 q 69 415 69 188 q 74 569 69 490 q 87 722 78 649 q 108 850 96 796 q 157 955 122 917 q 256 993 192 993 q 341 964 311 993 q 371 875 371 935 q 361 793 371 844 q 340 681 351 742 q 318 560 328 619 q 308 453 308 500 q 346 305 308 347 q 453 263 383 263 q 556 308 522 263 q 589 453 589 354 q 583 550 589 490 q 571 675 578 610 q 558 795 564 740 q 553 878 553 850 q 665 1015 553 1015 q 756 981 724 1015 q 800 879 788 947 q 817 756 810 828 q 827 606 824 683 q 831 458 831 528 q 789 188 831 292 q 660 37 747 85 q 431 -11 572 -11 m 318 1068 q 350 1119 318 1092 q 432 1182 382 1147 q 522 1234 479 1211 q 599 1257 564 1257 q 649 1239 628 1257 q 683 1196 671 1221 q 696 1150 696 1171 q 670 1104 696 1122 q 592 1069 644 1086 q 506 1050 551 1058 q 422 1037 461 1042 q 356 1032 382 1032 q 328 1043 339 1032 q 318 1068 318 1054 z "},"Ŭ":{"ha":899,"x_min":69,"x_max":831,"o":"m 431 -11 q 154 88 239 -11 q 69 415 69 188 q 74 569 69 490 q 87 722 78 649 q 108 850 96 796 q 157 955 122 917 q 256 993 192 993 q 341 964 311 993 q 371 875 371 935 q 361 793 371 844 q 340 681 351 742 q 318 560 328 619 q 308 453 308 500 q 346 305 308 347 q 453 263 383 263 q 556 308 522 263 q 589 453 589 354 q 583 550 589 490 q 571 675 578 610 q 558 795 564 740 q 553 878 553 850 q 665 1015 553 1015 q 756 981 724 1015 q 800 879 788 947 q 817 756 810 828 q 827 606 824 683 q 831 458 831 528 q 789 188 831 292 q 660 37 747 85 q 431 -11 572 -11 m 447 1033 q 294 1083 349 1033 q 239 1200 239 1133 q 300 1263 239 1263 q 371 1204 358 1263 q 395 1155 379 1171 q 446 1139 411 1139 q 493 1153 478 1139 q 517 1196 508 1167 q 543 1256 526 1235 q 594 1276 560 1276 q 640 1258 625 1276 q 656 1207 656 1240 q 631 1122 656 1161 q 560 1058 607 1082 q 447 1033 514 1033 z "},"Û":{"ha":899,"x_min":69,"x_max":831,"o":"m 431 -11 q 154 88 239 -11 q 69 415 69 188 q 74 569 69 490 q 87 722 78 649 q 108 850 96 796 q 157 955 122 917 q 256 993 192 993 q 341 964 311 993 q 371 875 371 935 q 361 793 371 844 q 340 681 351 742 q 318 560 328 619 q 308 453 308 500 q 346 305 308 347 q 453 263 383 263 q 556 308 522 263 q 589 453 589 354 q 583 550 589 490 q 571 675 578 610 q 558 795 564 740 q 553 878 553 850 q 665 1015 553 1015 q 756 981 724 1015 q 800 879 788 947 q 817 756 810 828 q 827 606 824 683 q 831 458 831 528 q 789 188 831 292 q 660 37 747 85 q 431 -11 572 -11 m 453 1272 q 514 1259 475 1272 q 590 1224 553 1246 q 662 1174 636 1199 q 688 1117 688 1149 q 662 1060 688 1081 q 597 1039 636 1039 q 510 1078 556 1039 q 431 1188 464 1118 l 453 1196 q 355 1071 403 1110 q 271 1032 307 1032 q 225 1049 243 1032 q 207 1092 207 1065 q 234 1152 207 1124 q 306 1211 261 1181 q 384 1255 346 1238 q 453 1272 422 1272 z "},"Ü":{"ha":899,"x_min":69,"x_max":831,"o":"m 431 -11 q 154 88 239 -11 q 69 415 69 188 q 74 569 69 490 q 87 722 78 649 q 108 850 96 796 q 157 955 122 917 q 256 993 192 993 q 341 964 311 993 q 371 875 371 935 q 361 793 371 844 q 340 681 351 742 q 318 560 328 619 q 308 453 308 500 q 346 305 308 347 q 453 263 383 263 q 556 308 522 263 q 589 453 589 354 q 583 550 589 490 q 571 675 578 610 q 558 795 564 740 q 553 878 553 850 q 665 1015 553 1015 q 756 981 724 1015 q 800 879 788 947 q 817 756 810 828 q 827 606 824 683 q 831 458 831 528 q 789 188 831 292 q 660 37 747 85 q 431 -11 572 -11 m 283 1039 q 197 1068 225 1039 q 169 1136 169 1097 q 206 1217 169 1189 q 307 1246 242 1246 q 393 1215 365 1246 q 421 1140 421 1183 q 382 1065 421 1090 q 283 1039 343 1039 m 606 1260 q 696 1228 668 1260 q 724 1154 724 1196 q 690 1073 724 1100 q 592 1046 656 1046 q 502 1076 532 1046 q 472 1150 472 1107 q 509 1231 472 1203 q 606 1260 546 1260 z "},"Ù":{"ha":899,"x_min":69,"x_max":831,"o":"m 431 -11 q 154 88 239 -11 q 69 415 69 188 q 74 569 69 490 q 87 722 78 649 q 108 850 96 796 q 157 955 122 917 q 256 993 192 993 q 341 964 311 993 q 371 875 371 935 q 361 793 371 844 q 340 681 351 742 q 318 560 328 619 q 308 453 308 500 q 346 305 308 347 q 453 263 383 263 q 556 308 522 263 q 589 453 589 354 q 583 550 589 490 q 571 675 578 610 q 558 795 564 740 q 553 878 553 850 q 665 1015 553 1015 q 756 981 724 1015 q 800 879 788 947 q 817 756 810 828 q 827 606 824 683 q 831 458 831 528 q 789 188 831 292 q 660 37 747 85 q 431 -11 572 -11 m 575 1068 q 566 1043 575 1054 q 538 1032 557 1032 q 472 1037 513 1032 q 388 1050 432 1042 q 303 1069 343 1058 q 223 1104 249 1086 q 197 1150 197 1122 q 210 1196 197 1171 q 245 1239 222 1221 q 296 1257 268 1257 q 372 1234 329 1257 q 461 1182 414 1211 q 544 1119 514 1147 q 575 1068 575 1092 z "},"Ű":{"ha":899,"x_min":69,"x_max":831,"o":"m 431 -11 q 154 88 239 -11 q 69 415 69 188 q 74 569 69 490 q 87 722 78 649 q 108 850 96 796 q 157 955 122 917 q 256 993 192 993 q 341 964 311 993 q 371 875 371 935 q 361 793 371 844 q 340 681 351 742 q 318 560 328 619 q 308 453 308 500 q 346 305 308 347 q 453 263 383 263 q 556 308 522 263 q 589 453 589 354 q 583 550 589 490 q 571 675 578 610 q 558 795 564 740 q 553 878 553 850 q 665 1015 553 1015 q 756 981 724 1015 q 800 879 788 947 q 817 756 810 828 q 827 606 824 683 q 831 458 831 528 q 789 188 831 292 q 660 37 747 85 q 431 -11 572 -11 m 550 1032 q 523 1042 535 1032 q 511 1069 511 1053 q 524 1118 511 1088 q 560 1185 538 1149 q 596 1242 576 1213 q 638 1291 615 1271 q 688 1311 660 1311 q 733 1299 710 1311 q 773 1269 757 1288 q 789 1233 789 1250 q 736 1156 789 1203 q 681 1110 713 1133 q 622 1069 650 1088 q 575 1039 593 1051 q 563 1034 569 1036 q 550 1032 557 1032 m 271 1032 q 244 1042 256 1032 q 232 1068 232 1051 q 246 1117 232 1088 q 282 1183 260 1147 q 321 1245 301 1217 q 362 1292 340 1274 q 410 1310 383 1310 q 455 1298 432 1310 q 494 1268 478 1286 q 511 1232 511 1250 q 460 1154 511 1201 q 401 1109 433 1132 q 340 1067 369 1086 q 292 1039 311 1049 q 281 1034 286 1036 q 271 1032 275 1032 z "},"Ū":{"ha":899,"x_min":69,"x_max":831,"o":"m 431 -11 q 154 88 239 -11 q 69 415 69 188 q 74 569 69 490 q 87 722 78 649 q 108 850 96 796 q 157 955 122 917 q 256 993 192 993 q 341 964 311 993 q 371 875 371 935 q 361 793 371 844 q 340 681 351 742 q 318 560 328 619 q 308 453 308 500 q 346 305 308 347 q 453 263 383 263 q 556 308 522 263 q 589 453 589 354 q 583 550 589 490 q 571 675 578 610 q 558 795 564 740 q 553 878 553 850 q 665 1015 553 1015 q 756 981 724 1015 q 800 879 788 947 q 817 756 810 828 q 827 606 824 683 q 831 458 831 528 q 789 188 831 292 q 660 37 747 85 q 431 -11 572 -11 m 289 1040 q 203 1063 231 1040 q 175 1119 175 1085 q 200 1174 175 1154 q 283 1208 225 1193 q 382 1224 328 1218 q 491 1232 436 1229 q 592 1235 546 1235 q 690 1213 661 1235 q 719 1156 719 1192 q 694 1096 719 1118 q 618 1065 668 1074 q 514 1052 575 1058 q 393 1043 453 1046 q 289 1040 333 1040 z "},"Ų":{"ha":899,"x_min":69,"x_max":831,"o":"m 431 -11 q 154 88 239 -11 q 69 415 69 188 q 74 569 69 490 q 87 722 78 649 q 108 850 96 796 q 157 955 122 917 q 256 993 192 993 q 341 964 311 993 q 371 875 371 935 q 361 793 371 844 q 340 681 351 742 q 318 560 328 619 q 308 453 308 500 q 346 305 308 347 q 453 263 383 263 q 556 308 522 263 q 589 453 589 354 q 583 550 589 490 q 571 675 578 610 q 558 795 564 740 q 553 878 553 850 q 665 1015 553 1015 q 756 981 724 1015 q 800 879 788 947 q 817 756 810 828 q 827 606 824 683 q 831 458 831 528 q 789 188 831 292 q 660 37 747 85 q 431 -11 572 -11 m 549 -293 q 422 -261 472 -293 q 372 -167 372 -229 q 413 -61 372 -112 q 547 39 454 -10 l 667 42 q 558 -52 599 -3 q 517 -126 517 -101 q 528 -147 517 -142 q 561 -153 540 -153 q 592 -151 575 -153 q 626 -149 608 -149 q 672 -165 657 -149 q 686 -208 686 -181 q 651 -272 686 -251 q 549 -293 615 -293 z "},"Ů":{"ha":899,"x_min":69,"x_max":831,"o":"m 431 -11 q 154 88 239 -11 q 69 415 69 188 q 74 569 69 490 q 87 722 78 649 q 108 850 96 796 q 157 955 122 917 q 256 993 192 993 q 341 964 311 993 q 371 875 371 935 q 361 793 371 844 q 340 681 351 742 q 318 560 328 619 q 308 453 308 500 q 346 305 308 347 q 453 263 383 263 q 556 308 522 263 q 589 453 589 354 q 583 550 589 490 q 571 675 578 610 q 558 795 564 740 q 553 878 553 850 q 665 1015 553 1015 q 756 981 724 1015 q 800 879 788 947 q 817 756 810 828 q 827 606 824 683 q 831 458 831 528 q 789 188 831 292 q 660 37 747 85 q 431 -11 572 -11 m 443 1029 q 311 1059 364 1029 q 258 1151 258 1089 q 310 1256 258 1215 q 460 1297 363 1297 q 592 1259 550 1297 q 633 1168 633 1221 q 583 1068 633 1107 q 443 1029 532 1029 m 435 1108 q 510 1122 479 1108 q 540 1163 540 1135 q 517 1206 540 1190 q 446 1222 494 1222 q 374 1203 397 1222 q 351 1161 351 1183 q 374 1123 351 1138 q 435 1108 397 1108 z "},"V":{"ha":886,"x_min":33,"x_max":853,"o":"m 735 1026 q 825 975 797 1026 q 853 821 853 924 q 838 679 853 763 q 797 502 824 596 q 730 318 769 408 q 641 153 690 228 q 533 35 592 79 q 407 -10 474 -10 q 288 32 342 -10 q 193 142 235 74 q 122 297 151 211 q 72 473 92 383 q 43 644 53 563 q 33 783 33 725 q 69 948 33 897 q 176 999 106 999 q 267 951 239 999 q 308 790 294 903 q 335 614 318 708 q 376 420 353 519 q 428 221 400 321 l 433 221 q 484 374 460 294 q 531 533 508 453 q 570 688 553 613 q 599 828 588 763 q 647 978 619 929 q 735 1026 675 1026 z "},"W":{"ha":1122,"x_min":69,"x_max":1054,"o":"m 69 740 q 106 931 69 874 q 217 988 142 988 q 292 961 265 988 q 331 890 319 935 q 342 790 342 846 q 339 643 342 728 q 331 469 336 558 q 319 304 326 381 l 325 304 q 399 585 363 475 q 473 748 435 694 q 551 801 511 801 q 636 747 597 801 q 713 582 675 692 q 792 308 750 472 l 797 308 q 790 478 793 390 q 784 651 786 565 q 782 813 782 738 q 797 943 782 897 q 838 1007 811 989 q 901 1025 865 1025 q 1014 955 974 1025 q 1054 749 1054 885 q 1047 546 1054 650 q 1024 344 1039 442 q 988 163 1010 247 q 932 35 968 81 q 839 -11 896 -11 q 763 22 800 -11 q 690 123 726 56 q 622 290 654 190 q 561 524 590 390 l 556 524 q 496 294 528 390 q 428 137 464 199 q 353 45 393 75 q 267 15 313 15 q 174 59 207 15 q 119 206 140 103 q 101 329 110 260 q 85 474 92 399 q 74 618 78 549 q 69 740 69 688 z "},"Ẃ":{"ha":1122,"x_min":69,"x_max":1054,"o":"m 69 740 q 106 931 69 874 q 217 988 142 988 q 292 961 265 988 q 331 890 319 935 q 342 790 342 846 q 339 643 342 728 q 331 469 336 558 q 319 304 326 381 l 325 304 q 399 585 363 475 q 473 748 435 694 q 551 801 511 801 q 636 747 597 801 q 713 582 675 692 q 792 308 750 472 l 797 308 q 790 478 793 390 q 784 651 786 565 q 782 813 782 738 q 797 943 782 897 q 838 1007 811 989 q 901 1025 865 1025 q 1014 955 974 1025 q 1054 749 1054 885 q 1047 546 1054 650 q 1024 344 1039 442 q 988 163 1010 247 q 932 35 968 81 q 839 -11 896 -11 q 763 22 800 -11 q 690 123 726 56 q 622 290 654 190 q 561 524 590 390 l 556 524 q 496 294 528 390 q 428 137 464 199 q 353 45 393 75 q 267 15 313 15 q 174 59 207 15 q 119 206 140 103 q 101 329 110 260 q 85 474 92 399 q 74 618 78 549 q 69 740 69 688 m 433 1082 q 465 1133 433 1106 q 547 1196 497 1161 q 637 1248 594 1225 q 714 1271 679 1271 q 765 1253 743 1271 q 799 1210 786 1235 q 811 1164 811 1185 q 785 1118 811 1136 q 707 1083 760 1100 q 622 1064 667 1072 q 537 1051 576 1056 q 471 1046 497 1046 q 444 1057 454 1046 q 433 1082 433 1068 z "},"Ŵ":{"ha":1122,"x_min":69,"x_max":1054,"o":"m 69 740 q 106 931 69 874 q 217 988 142 988 q 292 961 265 988 q 331 890 319 935 q 342 790 342 846 q 339 643 342 728 q 331 469 336 558 q 319 304 326 381 l 325 304 q 399 585 363 475 q 473 748 435 694 q 551 801 511 801 q 636 747 597 801 q 713 582 675 692 q 792 308 750 472 l 797 308 q 790 478 793 390 q 784 651 786 565 q 782 813 782 738 q 797 943 782 897 q 838 1007 811 989 q 901 1025 865 1025 q 1014 955 974 1025 q 1054 749 1054 885 q 1047 546 1054 650 q 1024 344 1039 442 q 988 163 1010 247 q 932 35 968 81 q 839 -11 896 -11 q 763 22 800 -11 q 690 123 726 56 q 622 290 654 190 q 561 524 590 390 l 556 524 q 496 294 528 390 q 428 137 464 199 q 353 45 393 75 q 267 15 313 15 q 174 59 207 15 q 119 206 140 103 q 101 329 110 260 q 85 474 92 399 q 74 618 78 549 q 69 740 69 688 m 568 1286 q 629 1273 590 1286 q 706 1238 668 1260 q 777 1188 751 1213 q 803 1131 803 1163 q 777 1074 803 1094 q 713 1053 751 1053 q 625 1092 671 1053 q 546 1201 579 1132 l 568 1210 q 470 1085 518 1124 q 386 1046 422 1046 q 340 1063 358 1046 q 322 1106 322 1079 q 349 1166 322 1138 q 421 1225 376 1194 q 499 1269 461 1251 q 568 1286 538 1286 z "},"Ẅ":{"ha":1122,"x_min":69,"x_max":1054,"o":"m 69 740 q 106 931 69 874 q 217 988 142 988 q 292 961 265 988 q 331 890 319 935 q 342 790 342 846 q 339 643 342 728 q 331 469 336 558 q 319 304 326 381 l 325 304 q 399 585 363 475 q 473 748 435 694 q 551 801 511 801 q 636 747 597 801 q 713 582 675 692 q 792 308 750 472 l 797 308 q 790 478 793 390 q 784 651 786 565 q 782 813 782 738 q 797 943 782 897 q 838 1007 811 989 q 901 1025 865 1025 q 1014 955 974 1025 q 1054 749 1054 885 q 1047 546 1054 650 q 1024 344 1039 442 q 988 163 1010 247 q 932 35 968 81 q 839 -11 896 -11 q 763 22 800 -11 q 690 123 726 56 q 622 290 654 190 q 561 524 590 390 l 556 524 q 496 294 528 390 q 428 137 464 199 q 353 45 393 75 q 267 15 313 15 q 174 59 207 15 q 119 206 140 103 q 101 329 110 260 q 85 474 92 399 q 74 618 78 549 q 69 740 69 688 m 399 1053 q 313 1082 340 1053 q 285 1150 285 1111 q 321 1231 285 1203 q 422 1260 357 1260 q 508 1228 481 1260 q 536 1154 536 1197 q 497 1078 536 1104 q 399 1053 458 1053 m 721 1274 q 811 1242 783 1274 q 839 1168 839 1210 q 805 1087 839 1114 q 707 1060 771 1060 q 617 1090 647 1060 q 588 1164 588 1121 q 624 1245 588 1217 q 721 1274 661 1274 z "},"Ẁ":{"ha":1122,"x_min":69,"x_max":1054,"o":"m 69 740 q 106 931 69 874 q 217 988 142 988 q 292 961 265 988 q 331 890 319 935 q 342 790 342 846 q 339 643 342 728 q 331 469 336 558 q 319 304 326 381 l 325 304 q 399 585 363 475 q 473 748 435 694 q 551 801 511 801 q 636 747 597 801 q 713 582 675 692 q 792 308 750 472 l 797 308 q 790 478 793 390 q 784 651 786 565 q 782 813 782 738 q 797 943 782 897 q 838 1007 811 989 q 901 1025 865 1025 q 1014 955 974 1025 q 1054 749 1054 885 q 1047 546 1054 650 q 1024 344 1039 442 q 988 163 1010 247 q 932 35 968 81 q 839 -11 896 -11 q 763 22 800 -11 q 690 123 726 56 q 622 290 654 190 q 561 524 590 390 l 556 524 q 496 294 528 390 q 428 137 464 199 q 353 45 393 75 q 267 15 313 15 q 174 59 207 15 q 119 206 140 103 q 101 329 110 260 q 85 474 92 399 q 74 618 78 549 q 69 740 69 688 m 690 1082 q 681 1057 690 1068 q 653 1046 672 1046 q 588 1051 628 1046 q 503 1064 547 1056 q 418 1083 458 1072 q 338 1118 364 1100 q 313 1164 313 1136 q 325 1210 313 1185 q 360 1253 338 1235 q 411 1271 383 1271 q 487 1248 444 1271 q 576 1196 529 1225 q 660 1133 629 1161 q 690 1082 690 1106 z "},"X":{"ha":1007,"x_min":28,"x_max":979,"o":"m 151 -10 q 61 27 94 -10 q 28 118 28 64 q 67 240 28 174 q 184 374 107 306 q 372 506 261 443 l 372 511 q 154 677 225 594 q 83 835 83 760 q 102 908 83 876 q 151 956 121 939 q 214 974 182 974 q 381 878 303 974 q 507 606 458 782 l 513 606 q 622 847 565 756 q 738 982 679 939 q 851 1025 796 1025 q 917 1006 889 1025 q 963 953 946 986 q 979 876 979 919 q 890 699 979 790 q 636 524 800 607 l 636 518 q 886 329 807 424 q 965 151 965 235 q 943 74 965 107 q 887 24 921 42 q 818 6 853 6 q 638 113 719 6 q 500 417 556 219 l 494 417 q 383 172 442 265 q 265 34 324 78 q 151 -10 207 -10 z "},"Y":{"ha":903,"x_min":21,"x_max":882,"o":"m 401 -12 q 301 26 339 -12 q 263 165 263 65 q 275 305 263 233 q 308 440 288 376 q 350 544 328 503 l 358 506 q 160 632 233 572 q 53 746 86 692 q 21 849 21 800 q 42 935 21 900 q 96 990 63 971 q 169 1010 129 1010 q 310 913 247 1010 q 425 633 374 815 l 431 633 q 536 856 479 769 q 651 984 593 943 q 757 1025 708 1025 q 849 983 817 1025 q 882 878 882 942 q 833 740 882 810 q 692 609 783 671 q 474 504 601 547 l 486 531 q 528 415 510 478 q 558 291 547 353 q 569 178 569 229 q 523 36 569 85 q 401 -12 476 -12 z "},"Ý":{"ha":903,"x_min":21,"x_max":882,"o":"m 401 -12 q 301 26 339 -12 q 263 165 263 65 q 275 305 263 233 q 308 440 288 376 q 350 544 328 503 l 358 506 q 160 632 233 572 q 53 746 86 692 q 21 849 21 800 q 42 935 21 900 q 96 990 63 971 q 169 1010 129 1010 q 310 913 247 1010 q 425 633 374 815 l 431 633 q 536 856 479 769 q 651 984 593 943 q 757 1025 708 1025 q 849 983 817 1025 q 882 878 882 942 q 833 740 882 810 q 692 609 783 671 q 474 504 601 547 l 486 531 q 528 415 510 478 q 558 291 547 353 q 569 178 569 229 q 523 36 569 85 q 401 -12 476 -12 m 324 1074 q 356 1125 324 1097 q 438 1188 388 1153 q 527 1240 485 1217 q 604 1263 569 1263 q 655 1244 633 1263 q 689 1201 676 1226 q 701 1156 701 1176 q 676 1110 701 1128 q 597 1075 650 1092 q 512 1056 557 1064 q 427 1042 467 1047 q 361 1038 388 1038 q 334 1049 344 1038 q 324 1074 324 1060 z "},"Ŷ":{"ha":903,"x_min":21,"x_max":882,"o":"m 401 -12 q 301 26 339 -12 q 263 165 263 65 q 275 305 263 233 q 308 440 288 376 q 350 544 328 503 l 358 506 q 160 632 233 572 q 53 746 86 692 q 21 849 21 800 q 42 935 21 900 q 96 990 63 971 q 169 1010 129 1010 q 310 913 247 1010 q 425 633 374 815 l 431 633 q 536 856 479 769 q 651 984 593 943 q 757 1025 708 1025 q 849 983 817 1025 q 882 878 882 942 q 833 740 882 810 q 692 609 783 671 q 474 504 601 547 l 486 531 q 528 415 510 478 q 558 291 547 353 q 569 178 569 229 q 523 36 569 85 q 401 -12 476 -12 m 458 1278 q 519 1265 481 1278 q 596 1229 558 1251 q 667 1179 642 1204 q 693 1122 693 1154 q 667 1065 693 1086 q 603 1044 642 1044 q 515 1084 561 1044 q 436 1193 469 1124 l 458 1201 q 360 1076 408 1115 q 276 1038 313 1038 q 231 1054 249 1038 q 213 1097 213 1071 q 240 1158 213 1129 q 311 1217 267 1186 q 390 1260 351 1243 q 458 1278 428 1278 z "},"Ÿ":{"ha":903,"x_min":21,"x_max":882,"o":"m 401 -12 q 301 26 339 -12 q 263 165 263 65 q 275 305 263 233 q 308 440 288 376 q 350 544 328 503 l 358 506 q 160 632 233 572 q 53 746 86 692 q 21 849 21 800 q 42 935 21 900 q 96 990 63 971 q 169 1010 129 1010 q 310 913 247 1010 q 425 633 374 815 l 431 633 q 536 856 479 769 q 651 984 593 943 q 757 1025 708 1025 q 849 983 817 1025 q 882 878 882 942 q 833 740 882 810 q 692 609 783 671 q 474 504 601 547 l 486 531 q 528 415 510 478 q 558 291 547 353 q 569 178 569 229 q 523 36 569 85 q 401 -12 476 -12 m 289 1044 q 203 1074 231 1044 q 175 1142 175 1103 q 211 1223 175 1194 q 313 1251 247 1251 q 399 1220 371 1251 q 426 1146 426 1189 q 388 1070 426 1096 q 289 1044 349 1044 m 611 1265 q 701 1233 674 1265 q 729 1160 729 1201 q 695 1078 729 1106 q 597 1051 661 1051 q 508 1082 538 1051 q 478 1156 478 1113 q 515 1237 478 1208 q 611 1265 551 1265 z "},"Ỳ":{"ha":903,"x_min":21,"x_max":882,"o":"m 401 -12 q 301 26 339 -12 q 263 165 263 65 q 275 305 263 233 q 308 440 288 376 q 350 544 328 503 l 358 506 q 160 632 233 572 q 53 746 86 692 q 21 849 21 800 q 42 935 21 900 q 96 990 63 971 q 169 1010 129 1010 q 310 913 247 1010 q 425 633 374 815 l 431 633 q 536 856 479 769 q 651 984 593 943 q 757 1025 708 1025 q 849 983 817 1025 q 882 878 882 942 q 833 740 882 810 q 692 609 783 671 q 474 504 601 547 l 486 531 q 528 415 510 478 q 558 291 547 353 q 569 178 569 229 q 523 36 569 85 q 401 -12 476 -12 m 581 1074 q 572 1049 581 1060 q 543 1038 563 1038 q 478 1042 518 1038 q 393 1056 438 1047 q 308 1075 349 1064 q 228 1110 254 1092 q 203 1156 203 1128 q 215 1201 203 1176 q 251 1244 228 1226 q 301 1263 274 1263 q 377 1240 335 1263 q 467 1188 419 1217 q 550 1125 519 1153 q 581 1074 581 1097 z "},"Z":{"ha":832,"x_min":28,"x_max":804,"o":"m 28 161 q 81 312 28 225 q 256 516 135 399 q 579 788 378 633 l 579 792 q 440 760 515 775 q 295 735 365 744 q 179 726 225 726 q 65 755 101 726 q 29 839 29 783 q 46 910 29 881 q 101 961 63 940 q 272 1008 165 993 q 500 1024 379 1024 q 673 1009 606 1024 q 772 957 740 994 q 804 851 804 919 q 771 744 804 807 q 667 602 738 682 q 488 424 597 522 q 225 211 378 326 l 225 207 q 354 251 281 232 q 504 283 428 271 q 643 294 581 294 q 758 268 724 294 q 793 181 793 242 q 746 76 793 115 q 610 21 699 36 q 490 3 553 10 q 367 -7 426 -4 q 258 -10 307 -10 q 85 33 143 -10 q 28 161 28 75 z "},"Ź":{"ha":832,"x_min":28,"x_max":804,"o":"m 28 161 q 81 312 28 225 q 256 516 135 399 q 579 788 378 633 l 579 792 q 440 760 515 775 q 295 735 365 744 q 179 726 225 726 q 65 755 101 726 q 29 839 29 783 q 46 910 29 881 q 101 961 63 940 q 272 1008 165 993 q 500 1024 379 1024 q 673 1009 606 1024 q 772 957 740 994 q 804 851 804 919 q 771 744 804 807 q 667 602 738 682 q 488 424 597 522 q 225 211 378 326 l 225 207 q 354 251 281 232 q 504 283 428 271 q 643 294 581 294 q 758 268 724 294 q 793 181 793 242 q 746 76 793 115 q 610 21 699 36 q 490 3 553 10 q 367 -7 426 -4 q 258 -10 307 -10 q 85 33 143 -10 q 28 161 28 75 m 288 1082 q 319 1133 288 1106 q 401 1196 351 1161 q 491 1248 449 1225 q 568 1271 533 1271 q 619 1253 597 1271 q 653 1210 640 1235 q 665 1164 665 1185 q 640 1118 665 1136 q 561 1083 614 1100 q 476 1064 521 1072 q 391 1051 431 1056 q 325 1046 351 1046 q 298 1057 308 1046 q 288 1082 288 1068 z "},"Ž":{"ha":832,"x_min":28,"x_max":804,"o":"m 28 161 q 81 312 28 225 q 256 516 135 399 q 579 788 378 633 l 579 792 q 440 760 515 775 q 295 735 365 744 q 179 726 225 726 q 65 755 101 726 q 29 839 29 783 q 46 910 29 881 q 101 961 63 940 q 272 1008 165 993 q 500 1024 379 1024 q 673 1009 606 1024 q 772 957 740 994 q 804 851 804 919 q 771 744 804 807 q 667 602 738 682 q 488 424 597 522 q 225 211 378 326 l 225 207 q 354 251 281 232 q 504 283 428 271 q 643 294 581 294 q 758 268 724 294 q 793 181 793 242 q 746 76 793 115 q 610 21 699 36 q 490 3 553 10 q 367 -7 426 -4 q 258 -10 307 -10 q 85 33 143 -10 q 28 161 28 75 m 422 1060 q 353 1078 392 1060 q 275 1121 315 1096 q 203 1180 231 1151 q 176 1240 176 1208 q 194 1283 176 1267 q 240 1300 213 1300 q 324 1261 276 1300 q 422 1136 372 1222 l 400 1144 q 479 1253 433 1213 q 567 1293 525 1293 q 631 1272 606 1293 q 657 1215 657 1251 q 631 1158 657 1182 q 560 1107 606 1133 q 483 1073 522 1086 q 422 1060 444 1060 z "},"Ż":{"ha":832,"x_min":28,"x_max":804,"o":"m 28 161 q 81 312 28 225 q 256 516 135 399 q 579 788 378 633 l 579 792 q 440 760 515 775 q 295 735 365 744 q 179 726 225 726 q 65 755 101 726 q 29 839 29 783 q 46 910 29 881 q 101 961 63 940 q 272 1008 165 993 q 500 1024 379 1024 q 673 1009 606 1024 q 772 957 740 994 q 804 851 804 919 q 771 744 804 807 q 667 602 738 682 q 488 424 597 522 q 225 211 378 326 l 225 207 q 354 251 281 232 q 504 283 428 271 q 643 294 581 294 q 758 268 724 294 q 793 181 793 242 q 746 76 793 115 q 610 21 699 36 q 490 3 553 10 q 367 -7 426 -4 q 258 -10 307 -10 q 85 33 143 -10 q 28 161 28 75 m 428 1290 q 524 1256 494 1290 q 554 1176 554 1221 q 518 1090 554 1121 q 415 1060 482 1060 q 320 1093 351 1060 q 289 1172 289 1126 q 327 1260 289 1231 q 428 1290 365 1290 z "},"a":{"ha":876,"x_min":26,"x_max":815,"o":"m 693 -14 q 611 23 632 -14 q 590 140 590 60 l 607 133 q 315 -18 531 -18 q 153 17 218 -18 q 58 109 89 51 q 26 236 26 167 q 110 423 26 354 q 333 492 194 492 q 488 465 422 492 q 601 392 554 439 l 569 394 q 516 576 563 522 q 383 631 469 631 q 294 617 338 631 q 213 588 251 603 q 138 574 174 574 q 71 599 94 574 q 47 664 47 624 q 98 766 47 719 q 232 841 149 813 q 413 869 315 869 q 623 817 535 869 q 751 660 711 764 q 801 471 786 575 q 815 249 815 367 q 803 88 815 144 q 763 8 790 31 q 693 -14 736 -14 m 400 161 q 478 172 439 161 q 545 206 518 183 q 572 263 572 229 q 549 312 572 293 q 490 340 526 331 q 413 350 454 350 q 301 324 340 350 q 263 254 263 297 q 299 185 263 210 q 400 161 335 161 z "},"á":{"ha":876,"x_min":26,"x_max":815,"o":"m 693 -14 q 611 23 632 -14 q 590 140 590 60 l 607 133 q 315 -18 531 -18 q 153 17 218 -18 q 58 109 89 51 q 26 236 26 167 q 110 423 26 354 q 333 492 194 492 q 488 465 422 492 q 601 392 554 439 l 569 394 q 516 576 563 522 q 383 631 469 631 q 294 617 338 631 q 213 588 251 603 q 138 574 174 574 q 71 599 94 574 q 47 664 47 624 q 98 766 47 719 q 232 841 149 813 q 413 869 315 869 q 623 817 535 869 q 751 660 711 764 q 801 471 786 575 q 815 249 815 367 q 803 88 815 144 q 763 8 790 31 q 693 -14 736 -14 m 400 161 q 478 172 439 161 q 545 206 518 183 q 572 263 572 229 q 549 312 572 293 q 490 340 526 331 q 413 350 454 350 q 301 324 340 350 q 263 254 263 297 q 299 185 263 210 q 400 161 335 161 m 271 938 q 303 989 271 961 q 385 1051 335 1017 q 474 1103 432 1081 q 551 1126 517 1126 q 602 1108 581 1126 q 636 1065 624 1090 q 649 1019 649 1040 q 623 974 649 992 q 544 939 597 956 q 459 919 504 928 q 374 906 414 911 q 308 901 335 901 q 281 913 292 901 q 271 938 271 924 z "},"ă":{"ha":876,"x_min":26,"x_max":815,"o":"m 693 -14 q 611 23 632 -14 q 590 140 590 60 l 607 133 q 315 -18 531 -18 q 153 17 218 -18 q 58 109 89 51 q 26 236 26 167 q 110 423 26 354 q 333 492 194 492 q 488 465 422 492 q 601 392 554 439 l 569 394 q 516 576 563 522 q 383 631 469 631 q 294 617 338 631 q 213 588 251 603 q 138 574 174 574 q 71 599 94 574 q 47 664 47 624 q 98 766 47 719 q 232 841 149 813 q 413 869 315 869 q 623 817 535 869 q 751 660 711 764 q 801 471 786 575 q 815 249 815 367 q 803 88 815 144 q 763 8 790 31 q 693 -14 736 -14 m 400 161 q 478 172 439 161 q 545 206 518 183 q 572 263 572 229 q 549 312 572 293 q 490 340 526 331 q 413 350 454 350 q 301 324 340 350 q 263 254 263 297 q 299 185 263 210 q 400 161 335 161 m 400 903 q 247 953 301 903 q 192 1069 192 1003 q 253 1132 192 1132 q 324 1074 311 1132 q 348 1024 332 1040 q 399 1008 364 1008 q 446 1022 431 1008 q 469 1065 461 1036 q 496 1125 479 1104 q 547 1146 513 1146 q 593 1128 578 1146 q 608 1076 608 1110 q 584 991 608 1031 q 513 927 560 951 q 400 903 467 903 z "},"ǎ":{"ha":876,"x_min":26,"x_max":815,"o":"m 693 -14 q 611 23 632 -14 q 590 140 590 60 l 607 133 q 315 -18 531 -18 q 153 17 218 -18 q 58 109 89 51 q 26 236 26 167 q 110 423 26 354 q 333 492 194 492 q 488 465 422 492 q 601 392 554 439 l 569 394 q 516 576 563 522 q 383 631 469 631 q 294 617 338 631 q 213 588 251 603 q 138 574 174 574 q 71 599 94 574 q 47 664 47 624 q 98 766 47 719 q 232 841 149 813 q 413 869 315 869 q 623 817 535 869 q 751 660 711 764 q 801 471 786 575 q 815 249 815 367 q 803 88 815 144 q 763 8 790 31 q 693 -14 736 -14 m 400 161 q 478 172 439 161 q 545 206 518 183 q 572 263 572 229 q 549 312 572 293 q 490 340 526 331 q 413 350 454 350 q 301 324 340 350 q 263 254 263 297 q 299 185 263 210 q 400 161 335 161 m 406 915 q 337 933 375 915 q 258 976 299 951 q 187 1035 214 1007 q 160 1096 160 1064 q 178 1139 160 1122 q 224 1156 196 1156 q 308 1117 260 1156 q 406 992 356 1078 l 383 1000 q 463 1108 417 1068 q 550 1149 508 1149 q 615 1128 589 1149 q 640 1071 640 1107 q 615 1013 640 1038 q 543 963 589 989 q 467 928 506 942 q 406 915 428 915 z "},"â":{"ha":876,"x_min":26,"x_max":815,"o":"m 693 -14 q 611 23 632 -14 q 590 140 590 60 l 607 133 q 315 -18 531 -18 q 153 17 218 -18 q 58 109 89 51 q 26 236 26 167 q 110 423 26 354 q 333 492 194 492 q 488 465 422 492 q 601 392 554 439 l 569 394 q 516 576 563 522 q 383 631 469 631 q 294 617 338 631 q 213 588 251 603 q 138 574 174 574 q 71 599 94 574 q 47 664 47 624 q 98 766 47 719 q 232 841 149 813 q 413 869 315 869 q 623 817 535 869 q 751 660 711 764 q 801 471 786 575 q 815 249 815 367 q 803 88 815 144 q 763 8 790 31 q 693 -14 736 -14 m 400 161 q 478 172 439 161 q 545 206 518 183 q 572 263 572 229 q 549 312 572 293 q 490 340 526 331 q 413 350 454 350 q 301 324 340 350 q 263 254 263 297 q 299 185 263 210 q 400 161 335 161 m 406 1142 q 467 1128 428 1142 q 543 1093 506 1115 q 615 1043 589 1068 q 640 986 640 1018 q 615 929 640 950 q 550 908 589 908 q 463 948 508 908 q 383 1057 417 988 l 406 1065 q 308 940 356 979 q 224 901 260 901 q 178 918 196 901 q 160 961 160 935 q 187 1022 160 993 q 258 1081 214 1050 q 337 1124 299 1107 q 406 1142 375 1142 z "},"ä":{"ha":876,"x_min":26,"x_max":815,"o":"m 693 -14 q 611 23 632 -14 q 590 140 590 60 l 607 133 q 315 -18 531 -18 q 153 17 218 -18 q 58 109 89 51 q 26 236 26 167 q 110 423 26 354 q 333 492 194 492 q 488 465 422 492 q 601 392 554 439 l 569 394 q 516 576 563 522 q 383 631 469 631 q 294 617 338 631 q 213 588 251 603 q 138 574 174 574 q 71 599 94 574 q 47 664 47 624 q 98 766 47 719 q 232 841 149 813 q 413 869 315 869 q 623 817 535 869 q 751 660 711 764 q 801 471 786 575 q 815 249 815 367 q 803 88 815 144 q 763 8 790 31 q 693 -14 736 -14 m 400 161 q 478 172 439 161 q 545 206 518 183 q 572 263 572 229 q 549 312 572 293 q 490 340 526 331 q 413 350 454 350 q 301 324 340 350 q 263 254 263 297 q 299 185 263 210 q 400 161 335 161 m 236 908 q 150 938 178 908 q 122 1006 122 967 q 158 1087 122 1058 q 260 1115 194 1115 q 346 1084 318 1115 q 374 1010 374 1053 q 335 934 374 960 q 236 908 296 908 m 558 1129 q 649 1097 621 1129 q 676 1024 676 1065 q 642 942 676 969 q 544 915 608 915 q 455 946 485 915 q 425 1019 425 976 q 462 1101 425 1072 q 558 1129 499 1129 z "},"à":{"ha":876,"x_min":26,"x_max":815,"o":"m 693 -14 q 611 23 632 -14 q 590 140 590 60 l 607 133 q 315 -18 531 -18 q 153 17 218 -18 q 58 109 89 51 q 26 236 26 167 q 110 423 26 354 q 333 492 194 492 q 488 465 422 492 q 601 392 554 439 l 569 394 q 516 576 563 522 q 383 631 469 631 q 294 617 338 631 q 213 588 251 603 q 138 574 174 574 q 71 599 94 574 q 47 664 47 624 q 98 766 47 719 q 232 841 149 813 q 413 869 315 869 q 623 817 535 869 q 751 660 711 764 q 801 471 786 575 q 815 249 815 367 q 803 88 815 144 q 763 8 790 31 q 693 -14 736 -14 m 400 161 q 478 172 439 161 q 545 206 518 183 q 572 263 572 229 q 549 312 572 293 q 490 340 526 331 q 413 350 454 350 q 301 324 340 350 q 263 254 263 297 q 299 185 263 210 q 400 161 335 161 m 528 938 q 519 913 528 924 q 490 901 510 901 q 425 906 465 901 q 340 919 385 911 q 256 939 296 928 q 176 974 201 956 q 150 1019 150 992 q 163 1065 150 1040 q 198 1108 175 1090 q 249 1126 221 1126 q 324 1103 282 1126 q 414 1051 367 1081 q 497 989 467 1017 q 528 938 528 961 z "},"ā":{"ha":876,"x_min":26,"x_max":815,"o":"m 693 -14 q 611 23 632 -14 q 590 140 590 60 l 607 133 q 315 -18 531 -18 q 153 17 218 -18 q 58 109 89 51 q 26 236 26 167 q 110 423 26 354 q 333 492 194 492 q 488 465 422 492 q 601 392 554 439 l 569 394 q 516 576 563 522 q 383 631 469 631 q 294 617 338 631 q 213 588 251 603 q 138 574 174 574 q 71 599 94 574 q 47 664 47 624 q 98 766 47 719 q 232 841 149 813 q 413 869 315 869 q 623 817 535 869 q 751 660 711 764 q 801 471 786 575 q 815 249 815 367 q 803 88 815 144 q 763 8 790 31 q 693 -14 736 -14 m 400 161 q 478 172 439 161 q 545 206 518 183 q 572 263 572 229 q 549 312 572 293 q 490 340 526 331 q 413 350 454 350 q 301 324 340 350 q 263 254 263 297 q 299 185 263 210 q 400 161 335 161 m 242 910 q 156 932 183 910 q 128 989 128 954 q 153 1043 128 1024 q 236 1078 178 1063 q 335 1093 281 1088 q 444 1101 389 1099 q 544 1104 499 1104 q 643 1083 614 1104 q 672 1025 672 1061 q 647 965 672 988 q 571 935 621 943 q 467 922 528 928 q 346 913 406 915 q 242 910 286 910 z "},"ą":{"ha":876,"x_min":26,"x_max":815,"o":"m 693 -14 q 611 23 632 -14 q 590 140 590 60 l 607 133 q 315 -18 531 -18 q 153 17 218 -18 q 58 109 89 51 q 26 236 26 167 q 110 423 26 354 q 333 492 194 492 q 488 465 422 492 q 601 392 554 439 l 569 394 q 516 576 563 522 q 383 631 469 631 q 294 617 338 631 q 213 588 251 603 q 138 574 174 574 q 71 599 94 574 q 47 664 47 624 q 98 766 47 719 q 232 841 149 813 q 413 869 315 869 q 623 817 535 869 q 751 660 711 764 q 801 471 786 575 q 815 249 815 367 q 803 88 815 144 q 763 8 790 31 q 693 -14 736 -14 m 400 161 q 478 172 439 161 q 545 206 518 183 q 572 263 572 229 q 549 312 572 293 q 490 340 526 331 q 413 350 454 350 q 301 324 340 350 q 263 254 263 297 q 299 185 263 210 q 400 161 335 161 m 663 -293 q 536 -261 586 -293 q 486 -167 486 -229 q 527 -61 486 -112 q 661 39 568 -10 l 781 42 q 672 -52 713 -3 q 631 -126 631 -101 q 642 -147 631 -142 q 675 -153 654 -153 q 706 -151 689 -153 q 740 -149 722 -149 q 785 -165 771 -149 q 800 -208 800 -181 q 765 -272 800 -251 q 663 -293 729 -293 z "},"å":{"ha":876,"x_min":26,"x_max":815,"o":"m 693 -14 q 611 23 632 -14 q 590 140 590 60 l 607 133 q 315 -18 531 -18 q 153 17 218 -18 q 58 109 89 51 q 26 236 26 167 q 110 423 26 354 q 333 492 194 492 q 488 465 422 492 q 601 392 554 439 l 569 394 q 516 576 563 522 q 383 631 469 631 q 294 617 338 631 q 213 588 251 603 q 138 574 174 574 q 71 599 94 574 q 47 664 47 624 q 98 766 47 719 q 232 841 149 813 q 413 869 315 869 q 623 817 535 869 q 751 660 711 764 q 801 471 786 575 q 815 249 815 367 q 803 88 815 144 q 763 8 790 31 q 693 -14 736 -14 m 400 161 q 478 172 439 161 q 545 206 518 183 q 572 263 572 229 q 549 312 572 293 q 490 340 526 331 q 413 350 454 350 q 301 324 340 350 q 263 254 263 297 q 299 185 263 210 q 400 161 335 161 m 396 899 q 264 928 317 899 q 211 1021 211 958 q 263 1126 211 1085 q 413 1167 315 1167 q 544 1128 503 1167 q 586 1038 586 1090 q 535 938 586 976 q 396 899 485 899 m 388 978 q 463 991 432 978 q 493 1032 493 1004 q 470 1076 493 1060 q 399 1092 447 1092 q 327 1072 350 1092 q 304 1031 304 1053 q 327 992 304 1007 q 388 978 350 978 z "},"ã":{"ha":876,"x_min":26,"x_max":815,"o":"m 693 -14 q 611 23 632 -14 q 590 140 590 60 l 607 133 q 315 -18 531 -18 q 153 17 218 -18 q 58 109 89 51 q 26 236 26 167 q 110 423 26 354 q 333 492 194 492 q 488 465 422 492 q 601 392 554 439 l 569 394 q 516 576 563 522 q 383 631 469 631 q 294 617 338 631 q 213 588 251 603 q 138 574 174 574 q 71 599 94 574 q 47 664 47 624 q 98 766 47 719 q 232 841 149 813 q 413 869 315 869 q 623 817 535 869 q 751 660 711 764 q 801 471 786 575 q 815 249 815 367 q 803 88 815 144 q 763 8 790 31 q 693 -14 736 -14 m 400 161 q 478 172 439 161 q 545 206 518 183 q 572 263 572 229 q 549 312 572 293 q 490 340 526 331 q 413 350 454 350 q 301 324 340 350 q 263 254 263 297 q 299 185 263 210 q 400 161 335 161 m 317 1111 q 406 1090 367 1111 q 483 1035 446 1069 q 499 1027 493 1026 q 508 1038 506 1028 q 541 1109 522 1086 q 597 1132 560 1132 q 657 1068 657 1132 q 640 1000 657 1039 q 588 932 624 961 q 496 903 553 903 q 406 930 444 903 q 331 1003 368 957 q 313 1014 321 1015 q 301 992 306 1013 q 269 916 289 939 q 210 893 249 893 q 162 914 181 893 q 143 963 143 935 q 166 1034 143 1000 q 228 1090 189 1068 q 317 1111 267 1111 z "},"æ":{"ha":1383,"x_min":26,"x_max":1357,"o":"m 1006 -11 q 750 35 846 -11 q 612 167 654 81 q 569 372 569 253 q 625 630 569 524 q 778 793 681 736 q 999 850 875 850 q 1228 783 1156 850 q 1300 606 1300 715 q 1257 454 1300 518 q 1138 356 1214 390 q 964 322 1063 322 q 855 334 907 322 q 761 367 803 346 l 794 435 q 790 368 790 401 q 844 249 790 285 q 997 214 899 214 q 1120 230 1072 214 q 1203 261 1168 246 q 1268 276 1238 276 q 1310 265 1290 276 q 1344 231 1331 253 q 1357 175 1357 208 q 1317 83 1357 125 q 1199 15 1276 40 q 1006 -11 1121 -11 m 400 161 q 478 172 439 161 q 545 206 518 183 q 572 263 572 229 q 549 312 572 293 q 490 340 526 331 q 413 350 454 350 q 301 324 340 350 q 263 254 263 297 q 299 185 263 210 q 400 161 335 161 m 315 -18 q 153 17 218 -18 q 58 109 89 51 q 26 236 26 167 q 110 423 26 354 q 333 492 194 492 q 488 465 422 492 q 601 392 554 439 l 569 394 q 516 576 563 522 q 383 631 469 631 q 294 617 338 631 q 213 588 251 603 q 138 574 174 574 q 71 599 94 574 q 47 664 47 624 q 96 766 47 719 q 224 841 144 813 q 399 869 304 869 q 601 817 515 869 q 726 660 688 764 l 656 193 q 315 -18 567 -18 m 925 456 q 1047 494 999 456 q 1094 588 1094 532 q 1066 655 1094 628 q 979 682 1038 682 q 890 660 931 682 q 827 605 850 639 q 804 531 804 571 q 836 475 804 494 q 925 456 868 456 z "},"b":{"ha":868,"x_min":63,"x_max":826,"o":"m 186 -14 q 124 8 149 -14 q 89 75 100 31 q 70 221 78 131 q 63 414 63 311 q 65 544 63 471 q 72 692 67 617 q 83 831 76 767 q 94 936 89 896 q 135 1045 107 1006 q 221 1085 164 1085 q 308 1043 281 1085 q 336 940 336 1001 q 327 796 336 879 q 300 626 318 713 l 278 610 q 326 717 293 668 q 411 794 360 765 q 532 822 463 822 q 747 726 667 822 q 826 425 826 629 q 783 186 826 282 q 667 42 740 90 q 499 -6 593 -6 q 349 46 411 -6 q 269 194 288 97 l 293 179 q 256 33 283 79 q 186 -14 229 -14 m 443 185 q 547 240 503 185 q 592 413 592 294 q 557 570 592 510 q 440 631 522 631 q 333 577 374 631 q 292 414 292 524 q 333 249 292 314 q 443 185 374 185 z "},"c":{"ha":775,"x_min":42,"x_max":768,"o":"m 421 -15 q 133 85 225 -15 q 42 363 42 185 q 97 606 42 500 q 254 773 151 713 q 500 833 357 833 q 699 788 631 833 q 768 665 768 742 q 735 587 768 615 q 642 558 703 558 q 586 564 614 558 q 529 575 558 569 q 464 581 500 581 q 328 535 374 581 q 283 403 283 489 q 328 283 283 321 q 449 246 372 246 q 517 254 485 246 q 581 270 550 263 q 642 278 611 278 q 717 251 688 278 q 746 176 746 225 q 710 79 746 122 q 601 10 674 36 q 421 -15 529 -15 z "},"ć":{"ha":775,"x_min":42,"x_max":768,"o":"m 421 -15 q 133 85 225 -15 q 42 363 42 185 q 97 606 42 500 q 254 773 151 713 q 500 833 357 833 q 699 788 631 833 q 768 665 768 742 q 735 587 768 615 q 642 558 703 558 q 586 564 614 558 q 529 575 558 569 q 464 581 500 581 q 328 535 374 581 q 283 403 283 489 q 328 283 283 321 q 449 246 372 246 q 517 254 485 246 q 581 270 550 263 q 642 278 611 278 q 717 251 688 278 q 746 176 746 225 q 710 79 746 122 q 601 10 674 36 q 421 -15 529 -15 m 289 929 q 321 981 289 953 q 403 1043 353 1008 q 492 1095 450 1072 q 569 1118 535 1118 q 620 1100 599 1118 q 654 1057 642 1082 q 667 1011 667 1032 q 641 965 667 983 q 563 931 615 947 q 477 911 522 919 q 392 898 432 903 q 326 893 353 893 q 299 904 310 893 q 289 929 289 915 z "},"č":{"ha":775,"x_min":42,"x_max":768,"o":"m 421 -15 q 133 85 225 -15 q 42 363 42 185 q 97 606 42 500 q 254 773 151 713 q 500 833 357 833 q 699 788 631 833 q 768 665 768 742 q 735 587 768 615 q 642 558 703 558 q 586 564 614 558 q 529 575 558 569 q 464 581 500 581 q 328 535 374 581 q 283 403 283 489 q 328 283 283 321 q 449 246 372 246 q 517 254 485 246 q 581 270 550 263 q 642 278 611 278 q 717 251 688 278 q 746 176 746 225 q 710 79 746 122 q 601 10 674 36 q 421 -15 529 -15 m 424 907 q 355 925 393 907 q 276 968 317 943 q 205 1027 232 999 q 178 1088 178 1056 q 196 1131 178 1114 q 242 1147 214 1147 q 326 1108 278 1147 q 424 983 374 1069 l 401 992 q 481 1100 435 1060 q 568 1140 526 1140 q 633 1119 607 1140 q 658 1063 658 1099 q 633 1005 658 1029 q 561 954 607 981 q 485 920 524 933 q 424 907 446 907 z "},"ç":{"ha":775,"x_min":42,"x_max":768,"o":"m 421 -15 q 133 85 225 -15 q 42 363 42 185 q 97 606 42 500 q 254 773 151 713 q 500 833 357 833 q 699 788 631 833 q 768 665 768 742 q 735 587 768 615 q 642 558 703 558 q 586 564 614 558 q 529 575 558 569 q 464 581 500 581 q 328 535 374 581 q 283 403 283 489 q 328 283 283 321 q 449 246 372 246 q 517 254 485 246 q 581 270 550 263 q 642 278 611 278 q 717 251 688 278 q 746 176 746 225 q 710 79 746 122 q 601 10 674 36 q 421 -15 529 -15 m 328 -289 q 240 -228 240 -289 q 262 -181 240 -196 q 311 -161 283 -167 q 376 -152 344 -154 q 424 -146 408 -150 q 447 -137 438 -143 q 456 -122 456 -131 q 444 -106 456 -112 q 400 -96 432 -99 q 305 -70 336 -83 q 274 -29 274 -57 q 294 6 274 -4 q 343 15 314 15 q 449 -2 396 15 q 537 -53 501 -19 q 572 -135 572 -86 q 540 -211 572 -176 q 453 -267 508 -246 q 328 -289 399 -289 z "},"ċ":{"ha":775,"x_min":42,"x_max":768,"o":"m 421 -15 q 133 85 225 -15 q 42 363 42 185 q 97 606 42 500 q 254 773 151 713 q 500 833 357 833 q 699 788 631 833 q 768 665 768 742 q 735 587 768 615 q 642 558 703 558 q 586 564 614 558 q 529 575 558 569 q 464 581 500 581 q 328 535 374 581 q 283 403 283 489 q 328 283 283 321 q 449 246 372 246 q 517 254 485 246 q 581 270 550 263 q 642 278 611 278 q 717 251 688 278 q 746 176 746 225 q 710 79 746 122 q 601 10 674 36 q 421 -15 529 -15 m 429 1138 q 526 1103 496 1138 q 556 1024 556 1068 q 519 938 556 968 q 417 907 483 907 q 322 940 353 907 q 290 1019 290 974 q 328 1108 290 1078 q 429 1138 367 1138 z "},"d":{"ha":874,"x_min":42,"x_max":811,"o":"m 326 -19 q 117 83 193 -19 q 42 394 42 185 q 115 699 42 603 q 326 796 189 796 q 468 763 407 796 q 578 668 529 729 l 561 663 q 540 778 551 717 q 523 893 529 839 q 517 979 517 947 q 538 1065 517 1035 q 606 1094 560 1094 q 698 1051 663 1094 q 754 921 733 1008 q 783 757 771 853 q 803 556 796 661 q 811 357 811 451 q 794 131 811 213 q 744 18 776 50 q 669 -14 713 -14 q 599 29 618 -14 q 581 169 581 72 l 604 169 q 495 32 567 83 q 326 -19 424 -19 m 426 183 q 503 206 468 183 q 558 276 538 228 q 579 396 579 324 q 540 550 579 490 q 424 610 501 610 q 324 557 363 610 q 285 397 285 504 q 324 244 285 304 q 426 183 363 183 z "},"ð":{"ha":847,"x_min":42,"x_max":806,"o":"m 425 -19 q 142 70 243 -19 q 42 344 42 160 q 85 544 42 467 q 203 658 129 621 q 368 696 278 696 q 510 665 449 696 q 619 576 571 633 l 593 582 q 486 737 547 658 q 357 885 425 815 q 292 960 315 929 q 269 1028 269 992 q 293 1095 269 1069 q 365 1121 317 1121 q 475 1083 418 1121 q 592 972 532 1044 q 702 810 654 900 q 778 620 750 719 q 806 418 806 521 q 756 172 806 269 q 622 28 707 75 q 425 -19 536 -19 m 426 183 q 503 201 468 183 q 558 254 538 218 q 579 346 579 290 q 540 464 579 418 q 424 510 501 510 q 324 469 363 510 q 285 347 285 429 q 324 229 285 275 q 426 183 363 183 m 178 869 q 265 919 213 890 q 375 979 317 949 q 488 1037 433 1010 q 581 1081 542 1064 q 692 1065 661 1114 q 697 1014 707 1040 q 640 960 686 988 q 512 887 585 925 q 369 815 439 849 q 249 760 299 781 q 174 747 200 742 q 133 775 149 751 q 129 822 119 799 q 178 869 139 846 z "},"ď":{"ha":874,"x_min":42,"x_max":1099,"o":"m 326 -19 q 117 83 193 -19 q 42 394 42 185 q 115 699 42 603 q 326 796 189 796 q 468 763 407 796 q 578 668 529 729 l 561 663 q 540 778 551 717 q 523 893 529 839 q 517 979 517 947 q 538 1065 517 1035 q 606 1094 560 1094 q 698 1051 663 1094 q 754 921 733 1008 q 783 757 771 853 q 803 556 796 661 q 811 357 811 451 q 794 131 811 213 q 744 18 776 50 q 669 -14 713 -14 q 599 29 618 -14 q 581 169 581 72 l 604 169 q 495 32 567 83 q 326 -19 424 -19 m 426 183 q 503 206 468 183 q 558 276 538 228 q 579 396 579 324 q 540 550 579 490 q 424 610 501 610 q 324 557 363 610 q 285 397 285 504 q 324 244 285 304 q 426 183 363 183 m 874 839 q 855 895 856 853 q 864 996 854 938 q 884 1086 875 1044 q 915 1151 893 1128 q 965 1177 935 1175 q 1026 1170 996 1179 q 1075 1147 1057 1161 q 1097 1101 1099 1129 q 1072 1025 1096 1072 q 1031 957 1054 992 q 987 893 1008 922 q 947 846 965 864 q 910 828 932 829 q 874 839 889 826 z "},"đ":{"ha":888,"x_min":42,"x_max":929,"o":"m 326 -19 q 117 83 193 -19 q 42 394 42 185 q 115 699 42 603 q 326 796 189 796 q 468 763 407 796 q 578 668 529 729 l 561 663 q 540 778 551 717 q 523 893 529 839 q 517 979 517 947 q 538 1065 517 1035 q 606 1094 560 1094 q 698 1051 663 1094 q 754 921 733 1008 q 783 757 771 853 q 803 556 796 661 q 811 357 811 451 q 794 131 811 213 q 744 18 776 50 q 669 -14 713 -14 q 599 29 618 -14 q 581 169 581 72 l 604 169 q 495 32 567 83 q 326 -19 424 -19 m 426 183 q 503 206 468 183 q 558 276 538 228 q 579 396 579 324 q 540 550 579 490 q 424 610 501 610 q 324 557 363 610 q 285 397 285 504 q 324 244 285 304 q 426 183 363 183 m 267 833 q 185 853 210 833 q 161 906 161 872 q 183 958 161 936 q 267 992 206 981 q 386 1006 318 1000 q 530 1018 454 1013 q 679 1026 606 1024 q 815 1029 753 1029 q 904 1009 879 1029 q 929 954 929 989 q 906 899 929 921 q 829 868 883 876 q 701 855 775 861 q 545 844 626 849 q 390 836 464 839 q 267 833 317 833 z "},"e":{"ha":883,"x_min":42,"x_max":857,"o":"m 478 -11 q 222 35 317 -11 q 84 167 126 81 q 42 372 42 253 q 101 630 42 524 q 263 793 160 736 q 499 850 367 850 q 728 783 656 850 q 800 606 800 715 q 753 454 800 518 q 625 356 707 390 q 436 322 543 322 q 327 334 379 322 q 233 367 275 346 l 267 435 q 263 368 263 401 q 317 249 263 285 q 469 214 371 214 q 606 230 553 214 q 696 261 658 246 q 768 276 733 276 q 810 265 790 276 q 844 231 831 253 q 857 175 857 208 q 814 83 857 125 q 686 15 771 40 q 478 -11 601 -11 m 397 456 q 539 494 483 456 q 594 588 594 532 q 566 655 594 628 q 479 682 538 682 q 377 660 424 682 q 303 605 331 639 q 276 531 276 571 q 308 475 276 494 q 397 456 340 456 z "},"é":{"ha":883,"x_min":42,"x_max":857,"o":"m 478 -11 q 222 35 317 -11 q 84 167 126 81 q 42 372 42 253 q 101 630 42 524 q 263 793 160 736 q 499 850 367 850 q 728 783 656 850 q 800 606 800 715 q 753 454 800 518 q 625 356 707 390 q 436 322 543 322 q 327 334 379 322 q 233 367 275 346 l 267 435 q 263 368 263 401 q 317 249 263 285 q 469 214 371 214 q 606 230 553 214 q 696 261 658 246 q 768 276 733 276 q 810 265 790 276 q 844 231 831 253 q 857 175 857 208 q 814 83 857 125 q 686 15 771 40 q 478 -11 601 -11 m 397 456 q 539 494 483 456 q 594 588 594 532 q 566 655 594 628 q 479 682 538 682 q 377 660 424 682 q 303 605 331 639 q 276 531 276 571 q 308 475 276 494 q 397 456 340 456 m 335 918 q 367 969 335 942 q 449 1032 399 997 q 538 1084 496 1061 q 615 1107 581 1107 q 666 1089 644 1107 q 700 1046 688 1071 q 713 1000 713 1021 q 687 954 713 972 q 608 919 661 936 q 523 900 568 908 q 438 887 478 892 q 372 882 399 882 q 345 893 356 882 q 335 918 335 904 z "},"ě":{"ha":883,"x_min":42,"x_max":857,"o":"m 478 -11 q 222 35 317 -11 q 84 167 126 81 q 42 372 42 253 q 101 630 42 524 q 263 793 160 736 q 499 850 367 850 q 728 783 656 850 q 800 606 800 715 q 753 454 800 518 q 625 356 707 390 q 436 322 543 322 q 327 334 379 322 q 233 367 275 346 l 267 435 q 263 368 263 401 q 317 249 263 285 q 469 214 371 214 q 606 230 553 214 q 696 261 658 246 q 768 276 733 276 q 810 265 790 276 q 844 231 831 253 q 857 175 857 208 q 814 83 857 125 q 686 15 771 40 q 478 -11 601 -11 m 397 456 q 539 494 483 456 q 594 588 594 532 q 566 655 594 628 q 479 682 538 682 q 377 660 424 682 q 303 605 331 639 q 276 531 276 571 q 308 475 276 494 q 397 456 340 456 m 469 896 q 401 914 439 896 q 322 957 363 932 q 251 1016 278 988 q 224 1076 224 1044 q 242 1119 224 1103 q 288 1136 260 1136 q 372 1097 324 1136 q 469 972 419 1058 l 447 981 q 526 1089 481 1049 q 614 1129 572 1129 q 678 1108 653 1129 q 704 1051 704 1088 q 678 994 704 1018 q 607 943 653 969 q 531 909 569 922 q 469 896 492 896 z "},"ê":{"ha":883,"x_min":42,"x_max":857,"o":"m 478 -11 q 222 35 317 -11 q 84 167 126 81 q 42 372 42 253 q 101 630 42 524 q 263 793 160 736 q 499 850 367 850 q 728 783 656 850 q 800 606 800 715 q 753 454 800 518 q 625 356 707 390 q 436 322 543 322 q 327 334 379 322 q 233 367 275 346 l 267 435 q 263 368 263 401 q 317 249 263 285 q 469 214 371 214 q 606 230 553 214 q 696 261 658 246 q 768 276 733 276 q 810 265 790 276 q 844 231 831 253 q 857 175 857 208 q 814 83 857 125 q 686 15 771 40 q 478 -11 601 -11 m 397 456 q 539 494 483 456 q 594 588 594 532 q 566 655 594 628 q 479 682 538 682 q 377 660 424 682 q 303 605 331 639 q 276 531 276 571 q 308 475 276 494 q 397 456 340 456 m 469 1122 q 531 1109 492 1122 q 607 1074 569 1096 q 678 1024 653 1049 q 704 967 704 999 q 678 910 704 931 q 614 889 653 889 q 526 928 572 889 q 447 1038 481 968 l 469 1046 q 372 921 419 960 q 288 882 324 882 q 242 899 260 882 q 224 942 224 915 q 251 1002 224 974 q 322 1061 278 1031 q 401 1105 363 1088 q 469 1122 439 1122 z "},"ë":{"ha":883,"x_min":42,"x_max":857,"o":"m 478 -11 q 222 35 317 -11 q 84 167 126 81 q 42 372 42 253 q 101 630 42 524 q 263 793 160 736 q 499 850 367 850 q 728 783 656 850 q 800 606 800 715 q 753 454 800 518 q 625 356 707 390 q 436 322 543 322 q 327 334 379 322 q 233 367 275 346 l 267 435 q 263 368 263 401 q 317 249 263 285 q 469 214 371 214 q 606 230 553 214 q 696 261 658 246 q 768 276 733 276 q 810 265 790 276 q 844 231 831 253 q 857 175 857 208 q 814 83 857 125 q 686 15 771 40 q 478 -11 601 -11 m 397 456 q 539 494 483 456 q 594 588 594 532 q 566 655 594 628 q 479 682 538 682 q 377 660 424 682 q 303 605 331 639 q 276 531 276 571 q 308 475 276 494 q 397 456 340 456 m 300 889 q 214 918 242 889 q 186 986 186 947 q 222 1067 186 1039 q 324 1096 258 1096 q 410 1065 382 1096 q 438 990 438 1033 q 399 915 438 940 q 300 889 360 889 m 622 1110 q 713 1078 685 1110 q 740 1004 740 1046 q 706 923 740 950 q 608 896 672 896 q 519 926 549 896 q 489 1000 489 957 q 526 1081 489 1053 q 622 1110 563 1110 z "},"ė":{"ha":883,"x_min":42,"x_max":857,"o":"m 478 -11 q 222 35 317 -11 q 84 167 126 81 q 42 372 42 253 q 101 630 42 524 q 263 793 160 736 q 499 850 367 850 q 728 783 656 850 q 800 606 800 715 q 753 454 800 518 q 625 356 707 390 q 436 322 543 322 q 327 334 379 322 q 233 367 275 346 l 267 435 q 263 368 263 401 q 317 249 263 285 q 469 214 371 214 q 606 230 553 214 q 696 261 658 246 q 768 276 733 276 q 810 265 790 276 q 844 231 831 253 q 857 175 857 208 q 814 83 857 125 q 686 15 771 40 q 478 -11 601 -11 m 397 456 q 539 494 483 456 q 594 588 594 532 q 566 655 594 628 q 479 682 538 682 q 377 660 424 682 q 303 605 331 639 q 276 531 276 571 q 308 475 276 494 q 397 456 340 456 m 475 1126 q 572 1092 542 1126 q 601 1013 601 1057 q 565 926 601 957 q 463 896 529 896 q 367 929 399 896 q 336 1008 336 963 q 374 1097 336 1067 q 475 1126 413 1126 z "},"è":{"ha":883,"x_min":42,"x_max":857,"o":"m 478 -11 q 222 35 317 -11 q 84 167 126 81 q 42 372 42 253 q 101 630 42 524 q 263 793 160 736 q 499 850 367 850 q 728 783 656 850 q 800 606 800 715 q 753 454 800 518 q 625 356 707 390 q 436 322 543 322 q 327 334 379 322 q 233 367 275 346 l 267 435 q 263 368 263 401 q 317 249 263 285 q 469 214 371 214 q 606 230 553 214 q 696 261 658 246 q 768 276 733 276 q 810 265 790 276 q 844 231 831 253 q 857 175 857 208 q 814 83 857 125 q 686 15 771 40 q 478 -11 601 -11 m 397 456 q 539 494 483 456 q 594 588 594 532 q 566 655 594 628 q 479 682 538 682 q 377 660 424 682 q 303 605 331 639 q 276 531 276 571 q 308 475 276 494 q 397 456 340 456 m 592 918 q 583 893 592 904 q 554 882 574 882 q 489 887 529 882 q 404 900 449 892 q 319 919 360 908 q 240 954 265 936 q 214 1000 214 972 q 226 1046 214 1021 q 262 1089 239 1071 q 313 1107 285 1107 q 388 1084 346 1107 q 478 1032 431 1061 q 561 969 531 997 q 592 918 592 942 z "},"ē":{"ha":883,"x_min":42,"x_max":857,"o":"m 478 -11 q 222 35 317 -11 q 84 167 126 81 q 42 372 42 253 q 101 630 42 524 q 263 793 160 736 q 499 850 367 850 q 728 783 656 850 q 800 606 800 715 q 753 454 800 518 q 625 356 707 390 q 436 322 543 322 q 327 334 379 322 q 233 367 275 346 l 267 435 q 263 368 263 401 q 317 249 263 285 q 469 214 371 214 q 606 230 553 214 q 696 261 658 246 q 768 276 733 276 q 810 265 790 276 q 844 231 831 253 q 857 175 857 208 q 814 83 857 125 q 686 15 771 40 q 478 -11 601 -11 m 397 456 q 539 494 483 456 q 594 588 594 532 q 566 655 594 628 q 479 682 538 682 q 377 660 424 682 q 303 605 331 639 q 276 531 276 571 q 308 475 276 494 q 397 456 340 456 m 304 890 q 218 913 246 890 q 190 969 190 935 q 215 1024 190 1004 q 299 1058 240 1043 q 397 1074 343 1068 q 506 1082 451 1079 q 607 1085 561 1085 q 706 1063 676 1085 q 735 1006 735 1042 q 709 946 735 968 q 633 915 683 924 q 529 902 590 908 q 408 893 468 896 q 304 890 349 890 z "},"ę":{"ha":883,"x_min":42,"x_max":857,"o":"m 478 -11 q 222 35 317 -11 q 84 167 126 81 q 42 372 42 253 q 101 630 42 524 q 263 793 160 736 q 499 850 367 850 q 728 783 656 850 q 800 606 800 715 q 753 454 800 518 q 625 356 707 390 q 436 322 543 322 q 327 334 379 322 q 233 367 275 346 l 267 435 q 263 368 263 401 q 317 249 263 285 q 469 214 371 214 q 606 230 553 214 q 696 261 658 246 q 768 276 733 276 q 810 265 790 276 q 844 231 831 253 q 857 175 857 208 q 814 83 857 125 q 686 15 771 40 q 478 -11 601 -11 m 397 456 q 539 494 483 456 q 594 588 594 532 q 566 655 594 628 q 479 682 538 682 q 377 660 424 682 q 303 605 331 639 q 276 531 276 571 q 308 475 276 494 q 397 456 340 456 m 625 -293 q 499 -261 549 -293 q 449 -167 449 -229 q 490 -61 449 -112 q 624 39 531 -10 l 743 42 q 634 -52 675 -3 q 593 -126 593 -101 q 605 -147 593 -142 q 638 -153 617 -153 q 668 -151 651 -153 q 703 -149 685 -149 q 748 -165 733 -149 q 763 -208 763 -181 q 727 -272 763 -251 q 625 -293 692 -293 z "},"f":{"ha":740,"x_min":19,"x_max":721,"o":"m 299 786 l 283 786 q 271 896 271 844 q 328 1058 271 999 q 521 1117 385 1117 q 645 1090 607 1117 q 683 1008 683 1063 q 579 904 683 914 q 508 888 533 900 q 472 851 483 876 q 458 781 461 826 l 438 783 q 504 803 467 796 q 578 810 542 810 q 681 783 642 810 q 721 694 721 757 q 679 603 721 633 q 576 572 638 572 q 515 577 547 572 q 450 590 482 582 l 457 610 q 484 471 472 546 q 503 321 496 396 q 510 181 510 246 q 494 83 510 128 q 447 13 478 39 q 367 -14 415 -14 q 259 38 292 -14 q 226 165 226 89 q 233 301 226 225 q 254 459 240 378 q 288 615 268 540 l 308 606 q 153 572 247 572 q 54 599 89 572 q 19 681 19 625 q 60 771 19 739 q 168 803 100 803 q 240 798 207 803 q 299 786 272 793 z "},"g":{"ha":875,"x_min":42,"x_max":813,"o":"m 331 39 q 121 138 200 39 q 42 438 42 236 q 117 752 42 653 q 324 851 193 851 q 461 815 401 851 q 565 711 521 778 l 550 675 q 543 717 546 694 q 540 750 540 739 q 564 844 540 811 q 638 878 588 878 q 725 838 692 878 q 774 722 758 797 q 801 557 790 657 q 813 354 813 457 q 803 131 813 221 q 771 -19 793 40 q 713 -124 749 -79 q 551 -235 651 -197 q 322 -272 451 -272 q 172 -254 228 -272 q 90 -206 115 -236 q 65 -136 65 -175 q 88 -62 65 -92 q 156 -33 110 -33 q 248 -42 197 -33 q 363 -50 299 -50 q 533 1 483 -50 q 583 150 583 53 q 579 225 583 182 l 599 226 q 493 90 563 140 q 331 39 424 39 m 418 235 q 492 256 456 235 q 551 324 528 276 q 574 451 574 371 q 533 608 574 547 q 414 668 493 668 q 313 615 347 668 q 279 453 279 561 q 313 292 279 350 q 418 235 347 235 z "},"ğ":{"ha":875,"x_min":42,"x_max":813,"o":"m 331 39 q 121 138 200 39 q 42 438 42 236 q 117 752 42 653 q 324 851 193 851 q 461 815 401 851 q 565 711 521 778 l 550 675 q 543 717 546 694 q 540 750 540 739 q 564 844 540 811 q 638 878 588 878 q 725 838 692 878 q 774 722 758 797 q 801 557 790 657 q 813 354 813 457 q 803 131 813 221 q 771 -19 793 40 q 713 -124 749 -79 q 551 -235 651 -197 q 322 -272 451 -272 q 172 -254 228 -272 q 90 -206 115 -236 q 65 -136 65 -175 q 88 -62 65 -92 q 156 -33 110 -33 q 248 -42 197 -33 q 363 -50 299 -50 q 533 1 483 -50 q 583 150 583 53 q 579 225 583 182 l 599 226 q 493 90 563 140 q 331 39 424 39 m 418 235 q 492 256 456 235 q 551 324 528 276 q 574 451 574 371 q 533 608 574 547 q 414 668 493 668 q 313 615 347 668 q 279 453 279 561 q 313 292 279 350 q 418 235 347 235 m 453 894 q 299 944 354 894 q 244 1061 244 994 q 306 1124 244 1124 q 376 1065 364 1124 q 401 1016 385 1032 q 451 1000 417 1000 q 499 1014 483 1000 q 522 1057 514 1028 q 549 1117 532 1096 q 600 1138 565 1138 q 646 1119 631 1138 q 661 1068 661 1101 q 637 983 661 1022 q 566 919 613 943 q 453 894 519 894 z "},"ģ":{"ha":875,"x_min":42,"x_max":813,"o":"m 331 39 q 121 138 200 39 q 42 438 42 236 q 117 752 42 653 q 324 851 193 851 q 461 815 401 851 q 565 711 521 778 l 550 675 q 543 717 546 694 q 540 750 540 739 q 564 844 540 811 q 638 878 588 878 q 725 838 692 878 q 774 722 758 797 q 801 557 790 657 q 813 354 813 457 q 803 131 813 221 q 771 -19 793 40 q 713 -124 749 -79 q 551 -235 651 -197 q 322 -272 451 -272 q 172 -254 228 -272 q 90 -206 115 -236 q 65 -136 65 -175 q 88 -62 65 -92 q 156 -33 110 -33 q 248 -42 197 -33 q 363 -50 299 -50 q 533 1 483 -50 q 583 150 583 53 q 579 225 583 182 l 599 226 q 493 90 563 140 q 331 39 424 39 m 418 235 q 492 256 456 235 q 551 324 528 276 q 574 451 574 371 q 533 608 574 547 q 414 668 493 668 q 313 615 347 668 q 279 453 279 561 q 313 292 279 350 q 418 235 347 235 m 447 907 q 356 935 390 907 q 321 1024 321 963 q 338 1097 321 1057 q 382 1168 354 1136 q 428 1209 406 1196 q 474 1222 451 1222 q 501 1215 490 1222 q 511 1193 511 1208 q 499 1157 511 1181 q 449 1094 488 1133 l 446 1108 q 547 1083 518 1108 q 576 1014 576 1058 q 565 964 576 989 q 524 923 553 939 q 447 907 496 907 z "},"ġ":{"ha":875,"x_min":42,"x_max":813,"o":"m 331 39 q 121 138 200 39 q 42 438 42 236 q 117 752 42 653 q 324 851 193 851 q 461 815 401 851 q 565 711 521 778 l 550 675 q 543 717 546 694 q 540 750 540 739 q 564 844 540 811 q 638 878 588 878 q 725 838 692 878 q 774 722 758 797 q 801 557 790 657 q 813 354 813 457 q 803 131 813 221 q 771 -19 793 40 q 713 -124 749 -79 q 551 -235 651 -197 q 322 -272 451 -272 q 172 -254 228 -272 q 90 -206 115 -236 q 65 -136 65 -175 q 88 -62 65 -92 q 156 -33 110 -33 q 248 -42 197 -33 q 363 -50 299 -50 q 533 1 483 -50 q 583 150 583 53 q 579 225 583 182 l 599 226 q 493 90 563 140 q 331 39 424 39 m 418 235 q 492 256 456 235 q 551 324 528 276 q 574 451 574 371 q 533 608 574 547 q 414 668 493 668 q 313 615 347 668 q 279 453 279 561 q 313 292 279 350 q 418 235 347 235 m 465 1138 q 562 1103 532 1138 q 592 1024 592 1068 q 556 938 592 968 q 453 907 519 907 q 358 940 389 907 q 326 1019 326 974 q 365 1108 326 1078 q 465 1138 403 1138 z "},"h":{"ha":911,"x_min":63,"x_max":849,"o":"m 236 1100 q 315 1062 293 1100 q 338 949 338 1024 q 331 807 338 889 q 311 654 324 725 l 303 654 q 417 781 347 732 q 565 829 486 829 q 694 794 638 829 q 786 685 751 758 q 833 532 818 621 q 849 364 849 443 q 828 158 849 235 q 772 48 808 82 q 689 14 736 14 q 578 169 578 14 q 585 306 578 236 q 593 435 593 376 q 565 563 593 519 q 488 606 538 606 q 386 549 425 606 q 347 392 347 492 q 357 271 347 335 q 367 144 367 207 q 333 24 367 61 q 247 -12 299 -12 q 183 0 211 -12 q 134 51 154 13 q 103 165 114 89 q 87 288 94 218 q 74 434 79 357 q 65 584 68 511 q 63 715 63 657 q 107 1008 63 917 q 236 1100 151 1100 z "},"ħ":{"ha":933,"x_min":-58,"x_max":871,"o":"m 269 -12 q 205 0 233 -12 q 156 51 176 13 q 125 165 136 89 q 109 288 117 218 q 96 434 101 357 q 88 584 90 511 q 85 715 85 657 q 129 1008 85 917 q 258 1100 174 1100 q 338 1062 315 1100 q 360 949 360 1024 q 353 807 360 889 q 333 654 346 725 l 325 654 q 439 781 369 732 q 588 829 508 829 q 717 794 660 829 q 808 685 774 758 q 856 532 840 621 q 871 364 871 443 q 851 158 871 235 q 794 48 831 82 q 711 14 758 14 q 600 169 600 14 q 608 306 600 236 q 615 435 615 376 q 588 563 615 519 q 510 606 560 606 q 408 549 447 606 q 369 392 369 492 q 379 271 369 335 q 389 144 389 207 q 355 24 389 61 q 269 -12 321 -12 m 47 833 q -34 853 -10 833 q -58 906 -58 872 q -36 958 -58 936 q 47 992 -14 981 q 167 1006 99 1000 q 310 1018 235 1013 q 460 1026 386 1024 q 596 1029 533 1029 q 685 1009 660 1029 q 710 954 710 989 q 687 899 710 921 q 610 868 664 876 q 481 855 556 861 q 326 844 407 849 q 171 836 244 839 q 47 833 97 833 z "},"i":{"ha":396,"x_min":63,"x_max":333,"o":"m 208 1065 q 304 1031 275 1065 q 333 951 333 996 q 297 865 333 896 q 196 835 261 835 q 101 868 132 835 q 69 947 69 901 q 108 1035 69 1006 q 208 1065 146 1065 m 218 756 q 303 672 272 756 q 333 407 333 589 q 295 85 333 183 q 179 -14 257 -14 q 91 59 119 -14 q 63 314 63 132 q 106 647 63 538 q 218 756 150 756 z "},"ı":{"ha":388,"x_min":63,"x_max":326,"o":"m 215 756 q 297 672 268 756 q 326 407 326 589 q 289 85 326 183 q 175 -14 251 -14 q 90 59 118 -14 q 63 314 63 132 q 105 647 63 538 q 215 756 147 756 z "},"í":{"ha":388,"x_min":63,"x_max":444,"o":"m 215 756 q 297 672 268 756 q 326 407 326 589 q 289 85 326 183 q 175 -14 251 -14 q 90 59 118 -14 q 63 314 63 132 q 105 647 63 538 q 215 756 147 756 m 67 824 q 99 875 67 847 q 181 938 131 903 q 270 990 228 967 q 347 1013 313 1013 q 398 994 376 1013 q 432 951 419 976 q 444 906 444 926 q 419 860 444 878 q 340 825 393 842 q 255 806 300 814 q 170 792 210 797 q 104 788 131 788 q 77 799 88 788 q 67 824 67 810 z "},"î":{"ha":388,"x_min":3,"x_max":388,"o":"m 215 756 q 297 672 268 756 q 326 407 326 589 q 289 85 326 183 q 175 -14 251 -14 q 90 59 118 -14 q 63 314 63 132 q 105 647 63 538 q 215 756 147 756 m 200 1028 q 254 1014 219 1028 q 322 976 289 1000 q 371 928 354 953 q 388 872 388 904 q 365 815 388 836 q 310 794 342 794 q 238 834 271 794 q 178 943 204 874 l 201 951 q 133 826 165 865 q 67 788 100 788 q 21 804 39 788 q 3 847 3 821 q 22 907 3 879 q 72 963 40 935 q 142 1012 110 996 q 200 1028 174 1028 z "},"ï":{"ha":388,"x_min":-4,"x_max":394,"o":"m 215 756 q 297 672 268 756 q 326 407 326 589 q 289 85 326 183 q 175 -14 251 -14 q 90 59 118 -14 q 63 314 63 132 q 105 647 63 538 q 215 756 147 756 m 75 794 q 15 824 33 794 q -4 892 -4 853 q 23 973 -4 944 q 99 1001 50 1001 q 158 970 139 1001 q 178 896 178 939 q 151 820 178 846 q 75 794 124 794 m 311 1015 q 375 983 356 1015 q 394 910 394 951 q 369 828 394 856 q 296 801 344 801 q 233 832 254 801 q 213 906 213 863 q 240 987 213 958 q 311 1015 267 1015 z "},"ì":{"ha":388,"x_min":-54,"x_max":326,"o":"m 215 756 q 297 672 268 756 q 326 407 326 589 q 289 85 326 183 q 175 -14 251 -14 q 90 59 118 -14 q 63 314 63 132 q 105 647 63 538 q 215 756 147 756 m 324 824 q 315 799 324 810 q 286 788 306 788 q 221 792 261 788 q 136 806 181 797 q 51 825 92 814 q -28 860 -3 842 q -54 906 -54 878 q -42 951 -54 926 q -6 994 -29 976 q 44 1013 17 1013 q 120 990 78 1013 q 210 938 163 967 q 293 875 263 903 q 324 824 324 847 z "},"ĳ":{"ha":782,"x_min":63,"x_max":719,"o":"m 208 1065 q 304 1031 275 1065 q 333 951 333 996 q 297 865 333 896 q 196 835 261 835 q 101 868 132 835 q 69 947 69 901 q 108 1035 69 1006 q 208 1065 146 1065 m 218 756 q 303 672 272 756 q 333 407 333 589 q 295 85 333 183 q 179 -14 257 -14 q 91 59 119 -14 q 63 314 63 132 q 106 647 63 538 q 218 756 150 756 m 485 -289 q 384 -266 428 -289 q 315 -207 340 -243 q 290 -132 290 -171 q 310 -69 290 -92 q 363 -47 331 -47 q 452 -78 406 -47 q 540 -168 499 -108 l 525 -167 q 474 184 490 17 q 458 485 458 351 q 485 691 458 622 q 574 760 511 760 q 680 672 640 760 q 719 379 719 585 q 713 194 719 289 q 695 13 707 99 q 664 -132 683 -72 q 594 -251 638 -214 q 485 -289 550 -289 m 550 850 q 469 873 499 850 q 439 942 439 896 q 475 1033 439 996 q 579 1069 511 1069 q 665 1042 636 1069 q 694 969 694 1015 q 654 881 694 913 q 550 850 614 850 z "},"ī":{"ha":388,"x_min":-78,"x_max":467,"o":"m 215 756 q 297 672 268 756 q 326 407 326 589 q 289 85 326 183 q 175 -14 251 -14 q 90 59 118 -14 q 63 314 63 132 q 105 647 63 538 q 215 756 147 756 m 36 796 q -50 818 -22 796 q -78 875 -78 840 q -53 929 -78 910 q 31 964 -28 949 q 129 979 75 974 q 238 988 183 985 q 339 990 293 990 q 438 969 408 990 q 467 911 467 947 q 441 851 467 874 q 365 821 415 829 q 261 808 322 814 q 140 799 200 801 q 36 796 81 796 z "},"į":{"ha":388,"x_min":-31,"x_max":333,"o":"m 215 756 q 297 672 268 756 q 326 407 326 589 q 289 85 326 183 q 175 -14 251 -14 q 90 59 118 -14 q 63 314 63 132 q 105 647 63 538 q 215 756 147 756 m 207 1032 q 303 997 274 1032 q 333 918 333 963 q 297 832 333 863 q 194 801 261 801 q 99 835 131 801 q 68 914 68 868 q 106 1002 68 972 q 207 1032 144 1032 m 146 -293 q 19 -261 69 -293 q -31 -167 -31 -229 q 10 -61 -31 -112 q 144 39 51 -10 l 264 42 q 155 -52 196 -3 q 114 -126 114 -101 q 126 -147 114 -142 q 158 -153 138 -153 q 189 -151 172 -153 q 224 -149 206 -149 q 269 -165 254 -149 q 283 -208 283 -181 q 248 -272 283 -251 q 146 -293 213 -293 z "},"j":{"ha":386,"x_min":-106,"x_max":324,"o":"m 89 -289 q -12 -266 32 -289 q -81 -207 -56 -243 q -106 -132 -106 -171 q -85 -69 -106 -92 q -33 -47 -65 -47 q 56 -78 10 -47 q 144 -168 103 -108 l 129 -167 q 78 184 94 17 q 63 485 63 351 q 89 691 63 622 q 178 760 115 760 q 284 672 244 760 q 324 379 324 585 q 317 194 324 289 q 299 13 311 99 q 268 -132 288 -72 q 198 -251 242 -214 q 89 -289 154 -289 m 154 850 q 73 873 103 850 q 43 942 43 896 q 79 1033 43 996 q 183 1069 115 1069 q 269 1042 240 1069 q 299 969 299 1015 q 258 881 299 913 q 154 850 218 850 z "},"ȷ":{"ha":386,"x_min":-106,"x_max":324,"o":"m 89 -289 q -12 -266 32 -289 q -81 -207 -56 -243 q -106 -132 -106 -171 q -85 -69 -106 -92 q -33 -47 -65 -47 q 56 -78 10 -47 q 144 -168 103 -108 l 129 -167 q 78 184 94 17 q 63 485 63 351 q 89 691 63 622 q 178 760 115 760 q 284 672 244 760 q 324 379 324 585 q 317 194 324 289 q 299 13 311 99 q 268 -132 288 -72 q 198 -251 242 -214 q 89 -289 154 -289 z "},"k":{"ha":844,"x_min":63,"x_max":825,"o":"m 178 -14 q 122 4 143 -14 q 90 57 100 22 q 71 201 79 104 q 63 413 63 297 q 73 693 63 558 q 100 914 83 828 q 151 1051 118 1007 q 236 1094 185 1094 q 313 1053 286 1094 q 339 913 339 1013 q 333 750 339 838 q 314 564 328 663 l 319 564 q 476 751 403 682 q 610 849 549 819 q 718 878 671 878 q 799 845 772 878 q 825 764 825 813 q 723 608 825 686 q 417 450 621 529 l 422 472 q 634 348 547 413 q 766 222 721 283 q 811 111 811 161 q 781 31 811 61 q 694 1 750 1 q 571 38 635 1 q 445 153 507 75 q 325 354 383 231 l 319 354 q 310 203 318 278 q 288 82 301 129 q 250 12 276 38 q 178 -14 224 -14 z "},"ķ":{"ha":844,"x_min":63,"x_max":825,"o":"m 178 -14 q 122 4 143 -14 q 90 57 100 22 q 71 201 79 104 q 63 413 63 297 q 73 693 63 558 q 100 914 83 828 q 151 1051 118 1007 q 236 1094 185 1094 q 313 1053 286 1094 q 339 913 339 1013 q 333 750 339 838 q 314 564 328 663 l 319 564 q 476 751 403 682 q 610 849 549 819 q 718 878 671 878 q 799 845 772 878 q 825 764 825 813 q 723 608 825 686 q 417 450 621 529 l 422 472 q 634 348 547 413 q 766 222 721 283 q 811 111 811 161 q 781 31 811 61 q 694 1 750 1 q 571 38 635 1 q 445 153 507 75 q 325 354 383 231 l 319 354 q 310 203 318 278 q 288 82 301 129 q 250 12 276 38 q 178 -14 224 -14 m 400 -247 q 298 -222 326 -247 q 269 -153 269 -197 q 281 -102 269 -126 q 320 -62 292 -78 q 399 -46 349 -46 q 490 -74 456 -46 q 525 -162 525 -101 q 509 -235 525 -196 q 464 -307 493 -275 q 417 -347 440 -333 q 372 -361 394 -361 q 345 -354 356 -361 q 335 -332 335 -347 q 347 -296 335 -319 q 396 -233 358 -272 l 400 -247 z "},"l":{"ha":481,"x_min":63,"x_max":453,"o":"m 235 -3 q 153 19 183 -3 q 104 93 122 40 q 73 264 83 158 q 63 522 63 369 q 70 710 63 615 q 90 883 78 804 q 117 1003 103 961 q 163 1077 138 1056 q 222 1099 188 1099 q 282 1076 258 1099 q 318 1001 306 1054 q 333 890 326 956 q 339 750 339 824 q 329 551 339 656 q 303 347 319 447 q 265 163 288 246 l 190 169 q 276 230 229 208 q 364 251 324 251 q 430 229 407 251 q 453 163 453 207 q 421 83 453 121 q 340 21 389 44 q 235 -3 290 -3 z "},"ĺ":{"ha":481,"x_min":63,"x_max":490,"o":"m 235 -3 q 153 19 183 -3 q 104 93 122 40 q 73 264 83 158 q 63 522 63 369 q 70 710 63 615 q 90 883 78 804 q 117 1003 103 961 q 163 1077 138 1056 q 222 1099 188 1099 q 282 1076 258 1099 q 318 1001 306 1054 q 333 890 326 956 q 339 750 339 824 q 329 551 339 656 q 303 347 319 447 q 265 163 288 246 l 190 169 q 276 230 229 208 q 364 251 324 251 q 430 229 407 251 q 453 163 453 207 q 421 83 453 121 q 340 21 389 44 q 235 -3 290 -3 m 111 1179 q 143 1231 111 1203 q 225 1293 175 1258 q 315 1345 272 1322 q 392 1368 357 1368 q 442 1350 421 1368 q 476 1307 464 1332 q 489 1261 489 1282 q 463 1215 489 1233 q 385 1181 438 1197 q 299 1161 344 1169 q 215 1148 254 1153 q 149 1143 175 1143 q 122 1154 132 1143 q 111 1179 111 1165 z "},"ľ":{"ha":481,"x_min":63,"x_max":643,"o":"m 235 -3 q 153 19 183 -3 q 104 93 122 40 q 73 264 83 158 q 63 522 63 369 q 70 710 63 615 q 90 883 78 804 q 117 1003 103 961 q 163 1077 138 1056 q 222 1099 188 1099 q 282 1076 258 1099 q 318 1001 306 1054 q 333 890 326 956 q 339 750 339 824 q 329 551 339 656 q 303 347 319 447 q 265 163 288 246 l 190 169 q 276 230 229 208 q 364 251 324 251 q 430 229 407 251 q 453 163 453 207 q 421 83 453 121 q 340 21 389 44 q 235 -3 290 -3 m 418 839 q 399 895 400 853 q 408 996 399 938 q 428 1086 419 1044 q 460 1151 438 1128 q 510 1177 479 1175 q 571 1170 540 1179 q 619 1147 601 1161 q 642 1101 643 1129 q 617 1025 640 1072 q 576 957 599 992 q 531 893 553 922 q 492 846 510 864 q 455 828 476 829 q 418 839 433 826 z "},"ļ":{"ha":481,"x_min":63,"x_max":453,"o":"m 235 -3 q 153 19 183 -3 q 104 93 122 40 q 73 264 83 158 q 63 522 63 369 q 70 710 63 615 q 90 883 78 804 q 117 1003 103 961 q 163 1077 138 1056 q 222 1099 188 1099 q 282 1076 258 1099 q 318 1001 306 1054 q 333 890 326 956 q 339 750 339 824 q 329 551 339 656 q 303 347 319 447 q 265 163 288 246 l 190 169 q 276 230 229 208 q 364 251 324 251 q 430 229 407 251 q 453 163 453 207 q 421 83 453 121 q 340 21 389 44 q 235 -3 290 -3 m 249 -247 q 147 -222 175 -247 q 118 -153 118 -197 q 129 -102 118 -126 q 169 -62 140 -78 q 247 -46 197 -46 q 339 -74 304 -46 q 374 -162 374 -101 q 358 -235 374 -196 q 313 -307 342 -275 q 266 -347 289 -333 q 221 -361 243 -361 q 194 -354 204 -361 q 183 -332 183 -347 q 195 -296 183 -319 q 244 -233 207 -272 l 249 -247 z "},"ł":{"ha":532,"x_min":-24,"x_max":594,"o":"m 122 303 q 48 265 79 267 q -4 289 17 264 q -21 345 -24 314 q 22 424 -18 376 q 106 515 56 463 q 215 625 157 568 q 331 735 274 682 q 435 828 388 789 q 517 870 485 869 q 572 844 550 871 q 590 787 594 818 q 550 714 585 756 q 478 640 521 683 q 388 549 436 597 q 290 454 339 501 q 197 367 240 407 q 122 303 153 328 m 307 -3 q 225 19 256 -3 q 176 93 194 40 q 145 264 156 158 q 135 522 135 369 q 142 710 135 615 q 163 883 150 804 q 190 1003 175 961 q 235 1077 210 1056 q 294 1099 260 1099 q 355 1076 332 1099 q 390 1001 378 1054 q 406 890 400 956 q 411 750 411 824 q 401 551 411 656 q 376 347 392 447 q 338 163 360 246 l 264 169 q 349 230 301 208 q 438 251 397 251 q 502 229 479 251 q 525 163 525 207 q 494 83 525 121 q 413 21 463 44 q 307 -3 363 -3 z "},"m":{"ha":1278,"x_min":63,"x_max":1215,"o":"m 714 636 q 763 739 728 693 q 850 812 799 785 q 963 839 901 839 q 1093 804 1036 839 q 1183 690 1150 769 q 1215 479 1215 611 q 1210 344 1215 413 q 1196 218 1204 276 q 1178 121 1188 160 q 1128 29 1163 60 q 1040 -1 1093 -1 q 967 32 994 -1 q 940 126 940 65 q 947 195 940 153 q 963 288 954 238 q 978 388 971 338 q 985 481 985 439 q 960 575 985 542 q 893 608 936 608 q 810 552 843 608 q 772 389 778 496 q 762 228 767 299 q 742 113 757 158 q 702 49 728 69 q 633 28 676 28 q 558 58 586 28 q 526 156 529 89 q 526 265 525 201 q 527 392 526 329 q 525 496 528 454 q 499 604 521 569 q 433 639 476 639 q 354 591 383 639 q 317 458 325 543 q 315 367 315 421 q 317 259 315 313 q 315 169 318 206 q 284 40 314 79 q 200 1 254 1 q 109 39 138 1 q 74 158 81 76 q 65 280 68 219 q 63 400 63 340 q 66 531 63 461 q 76 665 69 601 q 111 797 85 744 q 197 850 138 850 q 271 810 249 850 q 293 689 293 771 q 289 638 293 661 l 285 665 q 376 806 313 756 q 515 857 439 857 q 672 794 615 857 q 733 619 728 731 l 714 636 z "},"n":{"ha":888,"x_min":63,"x_max":826,"o":"m 226 864 q 301 828 281 864 q 322 721 322 792 q 320 685 322 704 q 314 651 318 667 l 311 679 q 412 820 343 769 q 558 871 481 871 q 707 821 647 871 q 797 681 767 771 q 826 467 826 590 q 820 328 826 396 q 804 203 814 260 q 781 111 794 147 q 728 38 761 63 q 651 14 696 14 q 579 47 604 14 q 554 136 554 79 q 560 244 554 181 q 571 372 565 307 q 576 485 576 436 q 472 647 576 647 q 378 597 417 647 q 328 453 340 546 q 323 363 324 417 q 322 258 322 310 q 318 169 321 206 q 279 40 311 79 q 193 1 247 1 q 95 49 128 1 q 63 211 63 97 q 65 342 63 269 q 73 487 68 414 q 85 619 78 560 q 131 798 99 732 q 226 864 163 864 z "},"ń":{"ha":888,"x_min":63,"x_max":826,"o":"m 226 864 q 301 828 281 864 q 322 721 322 792 q 320 685 322 704 q 314 651 318 667 l 311 679 q 412 820 343 769 q 558 871 481 871 q 707 821 647 871 q 797 681 767 771 q 826 467 826 590 q 820 328 826 396 q 804 203 814 260 q 781 111 794 147 q 728 38 761 63 q 651 14 696 14 q 579 47 604 14 q 554 136 554 79 q 560 244 554 181 q 571 372 565 307 q 576 485 576 436 q 472 647 576 647 q 378 597 417 647 q 328 453 340 546 q 323 363 324 417 q 322 258 322 310 q 318 169 321 206 q 279 40 311 79 q 193 1 247 1 q 95 49 128 1 q 63 211 63 97 q 65 342 63 269 q 73 487 68 414 q 85 619 78 560 q 131 798 99 732 q 226 864 163 864 m 307 936 q 339 988 307 960 q 421 1050 371 1015 q 510 1102 468 1079 q 588 1125 553 1125 q 638 1107 617 1125 q 672 1064 660 1089 q 685 1018 685 1039 q 659 972 685 990 q 581 938 633 954 q 495 918 540 926 q 410 905 450 910 q 344 900 371 900 q 317 911 328 900 q 307 936 307 922 z "},"ň":{"ha":888,"x_min":63,"x_max":826,"o":"m 226 864 q 301 828 281 864 q 322 721 322 792 q 320 685 322 704 q 314 651 318 667 l 311 679 q 412 820 343 769 q 558 871 481 871 q 707 821 647 871 q 797 681 767 771 q 826 467 826 590 q 820 328 826 396 q 804 203 814 260 q 781 111 794 147 q 728 38 761 63 q 651 14 696 14 q 579 47 604 14 q 554 136 554 79 q 560 244 554 181 q 571 372 565 307 q 576 485 576 436 q 472 647 576 647 q 378 597 417 647 q 328 453 340 546 q 323 363 324 417 q 322 258 322 310 q 318 169 321 206 q 279 40 311 79 q 193 1 247 1 q 95 49 128 1 q 63 211 63 97 q 65 342 63 269 q 73 487 68 414 q 85 619 78 560 q 131 798 99 732 q 226 864 163 864 m 442 914 q 373 932 411 914 q 294 975 335 950 q 223 1034 250 1006 q 196 1094 196 1063 q 214 1138 196 1121 q 260 1154 232 1154 q 344 1115 296 1154 q 442 990 392 1076 l 419 999 q 499 1107 453 1067 q 586 1147 544 1147 q 651 1126 625 1147 q 676 1069 676 1106 q 651 1012 676 1036 q 579 961 625 988 q 503 927 542 940 q 442 914 464 914 z "},"ņ":{"ha":888,"x_min":63,"x_max":826,"o":"m 226 864 q 301 828 281 864 q 322 721 322 792 q 320 685 322 704 q 314 651 318 667 l 311 679 q 412 820 343 769 q 558 871 481 871 q 707 821 647 871 q 797 681 767 771 q 826 467 826 590 q 820 328 826 396 q 804 203 814 260 q 781 111 794 147 q 728 38 761 63 q 651 14 696 14 q 579 47 604 14 q 554 136 554 79 q 560 244 554 181 q 571 372 565 307 q 576 485 576 436 q 472 647 576 647 q 378 597 417 647 q 328 453 340 546 q 323 363 324 417 q 322 258 322 310 q 318 169 321 206 q 279 40 311 79 q 193 1 247 1 q 95 49 128 1 q 63 211 63 97 q 65 342 63 269 q 73 487 68 414 q 85 619 78 560 q 131 798 99 732 q 226 864 163 864 m 444 -247 q 342 -222 371 -247 q 314 -153 314 -197 q 325 -102 314 -126 q 365 -62 336 -78 q 443 -46 393 -46 q 535 -74 500 -46 q 569 -162 569 -101 q 553 -235 569 -196 q 508 -307 538 -275 q 462 -347 485 -333 q 417 -361 439 -361 q 390 -354 400 -361 q 379 -332 379 -347 q 391 -296 379 -319 q 440 -233 403 -272 l 444 -247 z "},"ñ":{"ha":888,"x_min":63,"x_max":826,"o":"m 226 864 q 301 828 281 864 q 322 721 322 792 q 320 685 322 704 q 314 651 318 667 l 311 679 q 412 820 343 769 q 558 871 481 871 q 707 821 647 871 q 797 681 767 771 q 826 467 826 590 q 820 328 826 396 q 804 203 814 260 q 781 111 794 147 q 728 38 761 63 q 651 14 696 14 q 579 47 604 14 q 554 136 554 79 q 560 244 554 181 q 571 372 565 307 q 576 485 576 436 q 472 647 576 647 q 378 597 417 647 q 328 453 340 546 q 323 363 324 417 q 322 258 322 310 q 318 169 321 206 q 279 40 311 79 q 193 1 247 1 q 95 49 128 1 q 63 211 63 97 q 65 342 63 269 q 73 487 68 414 q 85 619 78 560 q 131 798 99 732 q 226 864 163 864 m 353 1110 q 442 1089 403 1110 q 519 1033 482 1068 q 535 1026 529 1025 q 544 1036 542 1026 q 577 1108 558 1085 q 633 1131 596 1131 q 693 1067 693 1131 q 676 999 693 1038 q 624 931 660 960 q 532 901 589 901 q 442 928 481 901 q 367 1001 404 956 q 349 1013 357 1014 q 338 990 342 1011 q 305 915 325 938 q 246 892 285 892 q 198 913 217 892 q 179 961 179 933 q 202 1033 179 999 q 264 1088 225 1067 q 353 1110 303 1110 z "},"ŋ":{"ha":888,"x_min":63,"x_max":826,"o":"m 554 -293 q 460 -273 501 -293 q 395 -219 418 -253 q 372 -146 372 -186 q 392 -84 372 -108 q 447 -60 411 -60 q 516 -77 481 -60 q 589 -133 551 -94 q 563 -51 572 -93 q 553 42 554 -8 q 556 154 553 93 q 563 259 558 200 q 572 377 568 318 q 576 485 576 436 q 472 647 576 647 q 378 597 417 647 q 328 453 340 546 q 323 363 324 417 q 322 258 322 310 q 318 169 321 206 q 279 40 311 79 q 193 1 247 1 q 95 49 128 1 q 63 211 63 97 q 65 342 63 269 q 73 487 68 414 q 85 619 78 560 q 131 798 99 732 q 226 864 163 864 q 303 828 281 864 q 322 721 325 792 l 322 706 q 422 827 357 783 q 558 871 486 871 q 707 821 647 871 q 797 681 767 771 q 826 467 826 590 q 822 346 826 419 q 808 186 818 272 q 778 16 797 100 q 729 -138 760 -68 q 656 -251 699 -208 q 554 -293 613 -293 z "},"o":{"ha":882,"x_min":42,"x_max":840,"o":"m 426 -4 q 223 45 310 -4 q 89 186 136 94 q 42 404 42 278 q 90 635 42 536 q 226 789 138 733 q 431 844 314 844 q 647 791 556 844 q 790 642 739 738 q 840 418 840 546 q 789 193 840 288 q 645 47 738 99 q 426 -4 553 -4 m 446 222 q 563 281 519 222 q 606 435 606 339 q 563 590 606 532 q 446 647 519 647 q 326 590 369 647 q 282 435 282 532 q 326 281 282 339 q 446 222 369 222 z "},"ó":{"ha":882,"x_min":42,"x_max":840,"o":"m 426 -4 q 223 45 310 -4 q 89 186 136 94 q 42 404 42 278 q 90 635 42 536 q 226 789 138 733 q 431 844 314 844 q 647 791 556 844 q 790 642 739 738 q 840 418 840 546 q 789 193 840 288 q 645 47 738 99 q 426 -4 553 -4 m 446 222 q 563 281 519 222 q 606 435 606 339 q 563 590 606 532 q 446 647 519 647 q 326 590 369 647 q 282 435 282 532 q 326 281 282 339 q 446 222 369 222 m 313 913 q 344 964 313 936 q 426 1026 376 992 q 516 1078 474 1056 q 593 1101 558 1101 q 644 1083 622 1101 q 678 1040 665 1065 q 690 994 690 1015 q 665 949 690 967 q 586 914 639 931 q 501 894 546 903 q 416 881 456 886 q 350 876 376 876 q 323 888 333 876 q 313 913 313 899 z "},"ô":{"ha":882,"x_min":42,"x_max":840,"o":"m 426 -4 q 223 45 310 -4 q 89 186 136 94 q 42 404 42 278 q 90 635 42 536 q 226 789 138 733 q 431 844 314 844 q 647 791 556 844 q 790 642 739 738 q 840 418 840 546 q 789 193 840 288 q 645 47 738 99 q 426 -4 553 -4 m 446 222 q 563 281 519 222 q 606 435 606 339 q 563 590 606 532 q 446 647 519 647 q 326 590 369 647 q 282 435 282 532 q 326 281 282 339 q 446 222 369 222 m 447 1117 q 508 1103 469 1117 q 585 1068 547 1090 q 656 1018 631 1043 q 682 961 682 993 q 656 904 682 925 q 592 883 631 883 q 504 923 550 883 q 425 1032 458 963 l 447 1040 q 349 915 397 954 q 265 876 301 876 q 219 893 238 876 q 201 936 201 910 q 228 997 201 968 q 300 1056 256 1025 q 378 1099 340 1082 q 447 1117 417 1117 z "},"ö":{"ha":882,"x_min":42,"x_max":840,"o":"m 426 -4 q 223 45 310 -4 q 89 186 136 94 q 42 404 42 278 q 90 635 42 536 q 226 789 138 733 q 431 844 314 844 q 647 791 556 844 q 790 642 739 738 q 840 418 840 546 q 789 193 840 288 q 645 47 738 99 q 426 -4 553 -4 m 446 222 q 563 281 519 222 q 606 435 606 339 q 563 590 606 532 q 446 647 519 647 q 326 590 369 647 q 282 435 282 532 q 326 281 282 339 q 446 222 369 222 m 278 883 q 192 913 219 883 q 164 981 164 942 q 200 1062 164 1033 q 301 1090 236 1090 q 388 1059 360 1090 q 415 985 415 1028 q 376 909 415 935 q 278 883 338 883 m 600 1104 q 690 1072 663 1104 q 718 999 718 1040 q 684 917 718 944 q 586 890 650 890 q 497 921 526 890 q 467 994 467 951 q 503 1076 467 1047 q 600 1104 540 1104 z "},"ò":{"ha":882,"x_min":42,"x_max":840,"o":"m 426 -4 q 223 45 310 -4 q 89 186 136 94 q 42 404 42 278 q 90 635 42 536 q 226 789 138 733 q 431 844 314 844 q 647 791 556 844 q 790 642 739 738 q 840 418 840 546 q 789 193 840 288 q 645 47 738 99 q 426 -4 553 -4 m 446 222 q 563 281 519 222 q 606 435 606 339 q 563 590 606 532 q 446 647 519 647 q 326 590 369 647 q 282 435 282 532 q 326 281 282 339 q 446 222 369 222 m 568 913 q 559 888 568 899 q 531 876 550 876 q 465 881 506 876 q 381 894 425 886 q 296 914 336 903 q 216 949 242 931 q 190 994 190 967 q 203 1040 190 1015 q 238 1083 215 1065 q 289 1101 261 1101 q 365 1078 322 1101 q 454 1026 407 1056 q 538 964 507 992 q 568 913 568 936 z "},"ő":{"ha":882,"x_min":42,"x_max":840,"o":"m 426 -4 q 223 45 310 -4 q 89 186 136 94 q 42 404 42 278 q 90 635 42 536 q 226 789 138 733 q 431 844 314 844 q 647 791 556 844 q 790 642 739 738 q 840 418 840 546 q 789 193 840 288 q 645 47 738 99 q 426 -4 553 -4 m 446 222 q 563 281 519 222 q 606 435 606 339 q 563 590 606 532 q 446 647 519 647 q 326 590 369 647 q 282 435 282 532 q 326 281 282 339 q 446 222 369 222 m 544 876 q 517 887 529 876 q 506 914 506 897 q 519 963 506 932 q 554 1029 532 993 q 590 1086 571 1057 q 632 1135 610 1115 q 682 1156 654 1156 q 728 1144 704 1156 q 767 1113 751 1132 q 783 1078 783 1094 q 731 1000 783 1047 q 676 955 707 978 q 616 914 644 932 q 569 883 588 896 q 558 878 564 881 q 544 876 551 876 m 265 876 q 238 886 250 876 q 226 913 226 896 q 240 962 226 932 q 276 1028 254 992 q 315 1090 296 1061 q 356 1136 335 1118 q 404 1154 378 1154 q 449 1142 426 1154 q 489 1113 472 1131 q 506 1076 506 1094 q 454 999 506 1046 q 396 953 428 976 q 335 912 364 931 q 286 883 306 893 q 275 878 281 881 q 265 876 269 876 z "},"ō":{"ha":882,"x_min":42,"x_max":840,"o":"m 426 -4 q 223 45 310 -4 q 89 186 136 94 q 42 404 42 278 q 90 635 42 536 q 226 789 138 733 q 431 844 314 844 q 647 791 556 844 q 790 642 739 738 q 840 418 840 546 q 789 193 840 288 q 645 47 738 99 q 426 -4 553 -4 m 446 222 q 563 281 519 222 q 606 435 606 339 q 563 590 606 532 q 446 647 519 647 q 326 590 369 647 q 282 435 282 532 q 326 281 282 339 q 446 222 369 222 m 282 885 q 196 907 224 885 q 168 964 168 929 q 193 1018 168 999 q 276 1053 218 1038 q 375 1068 321 1063 q 484 1076 429 1074 q 585 1079 539 1079 q 683 1058 654 1079 q 713 1000 713 1036 q 687 940 713 963 q 611 910 661 918 q 507 897 568 903 q 386 888 446 890 q 282 885 326 885 z "},"ø":{"ha":882,"x_min":42,"x_max":840,"o":"m 426 -4 q 223 45 310 -4 q 89 186 136 94 q 42 404 42 278 q 90 635 42 536 q 226 789 138 733 q 431 844 314 844 q 647 791 556 844 q 790 642 739 738 q 840 418 840 546 q 789 193 840 288 q 645 47 738 99 q 426 -4 553 -4 m 446 211 q 570 272 524 211 q 617 435 617 333 q 570 597 617 536 q 446 658 524 658 q 318 597 365 658 q 271 435 271 536 q 318 272 271 333 q 446 211 365 211 m 165 72 q 232 202 192 126 q 320 365 272 278 q 417 540 368 453 q 512 706 467 628 q 592 839 557 783 q 651 900 625 888 q 701 900 678 913 q 732 858 728 889 q 707 769 736 828 q 608 578 664 682 q 494 369 553 475 q 380 172 435 264 q 285 18 325 81 q 220 -51 247 -39 q 169 -50 193 -62 q 142 -10 146 -39 q 165 72 139 18 z "},"õ":{"ha":882,"x_min":42,"x_max":840,"o":"m 426 -4 q 223 45 310 -4 q 89 186 136 94 q 42 404 42 278 q 90 635 42 536 q 226 789 138 733 q 431 844 314 844 q 647 791 556 844 q 790 642 739 738 q 840 418 840 546 q 789 193 840 288 q 645 47 738 99 q 426 -4 553 -4 m 446 222 q 563 281 519 222 q 606 435 606 339 q 563 590 606 532 q 446 647 519 647 q 326 590 369 647 q 282 435 282 532 q 326 281 282 339 q 446 222 369 222 m 357 1086 q 447 1065 407 1086 q 524 1010 486 1044 q 540 1002 533 1001 q 549 1013 546 1003 q 581 1084 563 1061 q 638 1107 600 1107 q 697 1043 697 1107 q 681 975 697 1014 q 628 907 664 936 q 536 878 593 878 q 447 905 485 878 q 371 978 408 932 q 353 989 361 990 q 342 967 346 988 q 309 891 329 914 q 250 868 289 868 q 202 889 221 868 q 183 938 183 910 q 206 1009 183 975 q 268 1065 229 1043 q 357 1086 307 1086 z "},"œ":{"ha":1425,"x_min":42,"x_max":1400,"o":"m 426 -4 q 223 45 310 -4 q 89 186 136 94 q 42 404 42 278 q 90 635 42 536 q 226 789 138 733 q 431 844 314 844 q 640 791 551 844 q 778 642 729 738 q 826 418 826 546 q 777 193 826 288 q 638 47 728 99 q 426 -4 549 -4 m 446 222 q 563 281 519 222 q 606 435 606 339 q 563 590 606 532 q 446 647 519 647 q 326 590 369 647 q 282 435 282 532 q 326 281 282 339 q 446 222 369 222 m 1047 -11 q 792 35 889 -11 q 653 167 696 81 q 611 372 611 253 q 667 630 611 524 q 820 793 722 736 q 1042 850 918 850 q 1270 783 1197 850 q 1343 606 1343 715 q 1299 454 1343 518 q 1180 356 1256 390 q 1006 322 1104 322 q 897 334 949 322 q 803 367 844 346 l 836 435 q 832 368 832 401 q 886 249 832 285 q 1039 214 940 214 q 1162 230 1114 214 q 1244 261 1210 246 q 1311 276 1279 276 q 1352 265 1332 276 q 1386 231 1372 253 q 1400 175 1400 208 q 1360 83 1400 125 q 1241 15 1319 40 q 1047 -11 1163 -11 m 967 456 q 1089 493 1042 456 q 1136 588 1136 531 q 1108 655 1136 628 q 1022 682 1079 682 q 933 660 974 682 q 869 605 893 639 q 846 531 846 571 q 878 475 846 494 q 967 456 910 456 z "},"p":{"ha":861,"x_min":63,"x_max":819,"o":"m 179 861 q 254 816 225 861 q 296 675 283 771 l 267 653 q 360 801 292 750 q 521 853 428 853 q 674 808 607 853 q 781 674 742 764 q 819 450 819 585 q 740 128 819 232 q 525 25 660 25 q 374 67 429 25 q 297 168 319 108 l 314 176 q 333 17 325 96 q 340 -122 340 -62 q 313 -234 340 -189 q 225 -279 286 -279 q 138 -239 168 -279 q 97 -131 108 -199 q 81 22 89 -71 q 67 222 72 114 q 63 433 63 331 q 70 629 63 538 q 89 779 78 721 q 122 841 99 821 q 179 861 144 861 m 443 664 q 338 599 378 664 q 299 431 299 533 q 338 275 299 326 q 440 224 376 224 q 547 282 514 224 q 579 433 579 340 q 539 608 579 553 q 443 664 499 664 z "},"þ":{"ha":861,"x_min":63,"x_max":819,"o":"m 225 -279 q 138 -239 168 -279 q 97 -131 108 -199 q 81 22 89 -71 q 67 222 72 114 q 63 433 63 331 q 70 658 63 550 q 90 853 78 765 q 115 997 103 942 q 155 1087 128 1060 q 221 1114 182 1114 q 286 1080 260 1114 q 313 965 313 1046 q 308 870 313 922 q 297 764 304 818 q 281 663 290 710 l 267 653 q 360 801 292 750 q 521 853 428 853 q 674 808 607 853 q 781 674 742 764 q 819 450 819 585 q 740 128 819 232 q 525 25 660 25 q 374 67 429 25 q 297 168 319 108 l 314 176 q 333 17 325 96 q 340 -122 340 -62 q 313 -234 340 -189 q 225 -279 286 -279 m 440 224 q 547 282 514 224 q 579 433 579 340 q 539 608 579 553 q 443 664 499 664 q 338 599 378 664 q 299 431 299 533 q 338 275 299 326 q 440 224 376 224 z "},"q":{"ha":896,"x_min":42,"x_max":835,"o":"m 678 -272 q 604 -238 628 -272 q 581 -150 581 -204 q 583 -47 581 -103 q 592 67 586 10 q 604 176 597 125 l 614 175 q 510 38 582 88 q 329 -12 438 -12 q 182 28 247 -12 q 79 156 117 69 q 42 378 42 242 q 81 649 42 546 q 187 799 121 751 q 336 846 253 846 q 474 806 414 846 q 574 681 535 767 l 563 675 q 585 818 563 769 q 664 867 608 867 q 751 830 719 867 q 799 724 783 793 q 819 601 811 678 q 831 429 826 524 q 835 235 835 335 q 830 35 835 129 q 814 -125 825 -60 q 768 -233 801 -194 q 678 -272 735 -272 m 432 178 q 510 205 474 178 q 569 285 546 232 q 592 413 592 339 q 548 583 592 521 q 432 646 504 646 q 324 588 360 646 q 288 396 288 531 q 326 230 288 282 q 432 178 365 178 z "},"r":{"ha":667,"x_min":63,"x_max":642,"o":"m 63 606 q 93 814 63 750 q 181 878 124 878 q 246 848 222 878 q 281 774 269 818 q 292 686 292 731 l 285 689 q 357 818 308 764 q 475 872 406 872 q 601 803 560 872 q 642 632 642 735 q 606 442 642 496 q 510 388 569 388 q 444 418 465 388 q 429 521 424 449 q 422 615 433 589 q 385 642 410 642 q 334 603 353 642 q 315 506 315 565 q 322 434 315 478 q 338 340 329 390 q 353 239 346 289 q 360 146 360 189 q 329 32 360 67 q 243 -3 299 -3 q 151 31 185 -3 q 103 139 118 64 q 83 280 93 197 q 68 449 74 363 q 63 606 63 536 z "},"ŕ":{"ha":667,"x_min":63,"x_max":642,"o":"m 63 606 q 93 814 63 750 q 181 878 124 878 q 246 848 222 878 q 281 774 269 818 q 292 686 292 731 l 285 689 q 357 818 308 764 q 475 872 406 872 q 601 803 560 872 q 642 632 642 735 q 606 442 642 496 q 510 388 569 388 q 444 418 465 388 q 429 521 424 449 q 422 615 433 589 q 385 642 410 642 q 334 603 353 642 q 315 506 315 565 q 322 434 315 478 q 338 340 329 390 q 353 239 346 289 q 360 146 360 189 q 329 32 360 67 q 243 -3 299 -3 q 151 31 185 -3 q 103 139 118 64 q 83 280 93 197 q 68 449 74 363 q 63 606 63 536 m 207 929 q 239 981 207 953 q 321 1043 271 1008 q 410 1095 368 1072 q 488 1118 453 1118 q 538 1100 517 1118 q 572 1057 560 1082 q 585 1011 585 1032 q 559 965 585 983 q 481 931 533 947 q 395 911 440 919 q 310 898 350 903 q 244 893 271 893 q 217 904 228 893 q 207 929 207 915 z "},"ř":{"ha":667,"x_min":63,"x_max":642,"o":"m 63 606 q 93 814 63 750 q 181 878 124 878 q 246 848 222 878 q 281 774 269 818 q 292 686 292 731 l 285 689 q 357 818 308 764 q 475 872 406 872 q 601 803 560 872 q 642 632 642 735 q 606 442 642 496 q 510 388 569 388 q 444 418 465 388 q 429 521 424 449 q 422 615 433 589 q 385 642 410 642 q 334 603 353 642 q 315 506 315 565 q 322 434 315 478 q 338 340 329 390 q 353 239 346 289 q 360 146 360 189 q 329 32 360 67 q 243 -3 299 -3 q 151 31 185 -3 q 103 139 118 64 q 83 280 93 197 q 68 449 74 363 q 63 606 63 536 m 342 907 q 273 925 311 907 q 194 968 235 943 q 123 1027 150 999 q 96 1088 96 1056 q 114 1131 96 1114 q 160 1147 132 1147 q 244 1108 196 1147 q 342 983 292 1069 l 319 992 q 399 1100 353 1060 q 486 1140 444 1140 q 551 1119 525 1140 q 576 1063 576 1099 q 551 1005 576 1029 q 479 954 525 981 q 403 920 442 933 q 342 907 364 907 z "},"ŗ":{"ha":667,"x_min":63,"x_max":642,"o":"m 63 606 q 93 814 63 750 q 181 878 124 878 q 246 848 222 878 q 281 774 269 818 q 292 686 292 731 l 285 689 q 357 818 308 764 q 475 872 406 872 q 601 803 560 872 q 642 632 642 735 q 606 442 642 496 q 510 388 569 388 q 444 418 465 388 q 429 521 424 449 q 422 615 433 589 q 385 642 410 642 q 334 603 353 642 q 315 506 315 565 q 322 434 315 478 q 338 340 329 390 q 353 239 346 289 q 360 146 360 189 q 329 32 360 67 q 243 -3 299 -3 q 151 31 185 -3 q 103 139 118 64 q 83 280 93 197 q 68 449 74 363 q 63 606 63 536 m 343 -247 q 241 -222 269 -247 q 213 -153 213 -197 q 224 -102 213 -126 q 263 -62 235 -78 q 342 -46 292 -46 q 433 -74 399 -46 q 468 -162 468 -101 q 452 -235 468 -196 q 407 -307 436 -275 q 360 -347 383 -333 q 315 -361 338 -361 q 288 -354 299 -361 q 278 -332 278 -347 q 290 -296 278 -319 q 339 -233 301 -272 l 343 -247 z "},"s":{"ha":750,"x_min":42,"x_max":708,"o":"m 439 869 q 631 827 572 869 q 690 718 690 785 q 663 651 690 676 q 586 625 636 625 q 494 638 543 625 q 383 651 446 651 q 301 630 329 651 q 274 576 274 608 q 299 526 274 544 q 403 499 325 507 q 572 463 504 488 q 674 390 640 439 q 708 253 708 340 q 613 57 708 119 q 346 -6 517 -6 q 168 14 235 -6 q 72 69 101 33 q 42 153 42 106 q 71 222 42 197 q 140 246 100 246 q 208 238 172 246 q 285 222 244 231 q 368 213 325 213 q 474 276 474 213 q 463 313 474 299 q 422 338 451 328 q 333 354 392 347 q 182 384 246 363 q 83 452 118 406 q 49 579 49 499 q 150 790 49 710 q 439 869 251 869 z "},"ś":{"ha":750,"x_min":42,"x_max":708,"o":"m 439 869 q 631 827 572 869 q 690 718 690 785 q 663 651 690 676 q 586 625 636 625 q 494 638 543 625 q 383 651 446 651 q 301 630 329 651 q 274 576 274 608 q 299 526 274 544 q 403 499 325 507 q 572 463 504 488 q 674 390 640 439 q 708 253 708 340 q 613 57 708 119 q 346 -6 517 -6 q 168 14 235 -6 q 72 69 101 33 q 42 153 42 106 q 71 222 42 197 q 140 246 100 246 q 208 238 172 246 q 285 222 244 231 q 368 213 325 213 q 474 276 474 213 q 463 313 474 299 q 422 338 451 328 q 333 354 392 347 q 182 384 246 363 q 83 452 118 406 q 49 579 49 499 q 150 790 49 710 q 439 869 251 869 m 242 929 q 274 981 242 953 q 356 1043 306 1008 q 445 1095 403 1072 q 522 1118 488 1118 q 573 1100 551 1118 q 607 1057 594 1082 q 619 1011 619 1032 q 594 965 619 983 q 515 931 568 947 q 430 911 475 919 q 345 898 385 903 q 279 893 306 893 q 252 904 263 893 q 242 929 242 915 z "},"š":{"ha":750,"x_min":42,"x_max":708,"o":"m 439 869 q 631 827 572 869 q 690 718 690 785 q 663 651 690 676 q 586 625 636 625 q 494 638 543 625 q 383 651 446 651 q 301 630 329 651 q 274 576 274 608 q 299 526 274 544 q 403 499 325 507 q 572 463 504 488 q 674 390 640 439 q 708 253 708 340 q 613 57 708 119 q 346 -6 517 -6 q 168 14 235 -6 q 72 69 101 33 q 42 153 42 106 q 71 222 42 197 q 140 246 100 246 q 208 238 172 246 q 285 222 244 231 q 368 213 325 213 q 474 276 474 213 q 463 313 474 299 q 422 338 451 328 q 333 354 392 347 q 182 384 246 363 q 83 452 118 406 q 49 579 49 499 q 150 790 49 710 q 439 869 251 869 m 376 907 q 308 925 346 907 q 229 968 269 943 q 158 1027 185 999 q 131 1088 131 1056 q 149 1131 131 1114 q 194 1147 167 1147 q 278 1108 231 1147 q 376 983 326 1069 l 354 992 q 433 1100 388 1060 q 521 1140 479 1140 q 585 1119 560 1140 q 611 1063 611 1099 q 585 1005 611 1029 q 514 954 560 981 q 438 920 476 933 q 376 907 399 907 z "},"ş":{"ha":750,"x_min":42,"x_max":708,"o":"m 439 869 q 631 827 572 869 q 690 718 690 785 q 663 651 690 676 q 586 625 636 625 q 494 638 543 625 q 383 651 446 651 q 301 630 329 651 q 274 576 274 608 q 299 526 274 544 q 403 499 325 507 q 572 463 504 488 q 674 390 640 439 q 708 253 708 340 q 613 57 708 119 q 346 -6 517 -6 q 168 14 235 -6 q 72 69 101 33 q 42 153 42 106 q 71 222 42 197 q 140 246 100 246 q 208 238 172 246 q 285 222 244 231 q 368 213 325 213 q 474 276 474 213 q 463 313 474 299 q 422 338 451 328 q 333 354 392 347 q 182 384 246 363 q 83 452 118 406 q 49 579 49 499 q 150 790 49 710 q 439 869 251 869 m 322 -289 q 235 -228 235 -289 q 256 -181 235 -196 q 306 -161 278 -167 q 371 -152 339 -154 q 418 -146 403 -150 q 441 -137 432 -143 q 450 -122 450 -131 q 438 -106 450 -112 q 394 -96 426 -99 q 299 -70 331 -83 q 268 -29 268 -57 q 288 6 268 -4 q 338 15 308 15 q 443 -2 390 15 q 531 -53 496 -19 q 567 -135 567 -86 q 535 -211 567 -176 q 448 -267 503 -246 q 322 -289 393 -289 z "},"ș":{"ha":750,"x_min":42,"x_max":708,"o":"m 439 869 q 631 827 572 869 q 690 718 690 785 q 663 651 690 676 q 586 625 636 625 q 494 638 543 625 q 383 651 446 651 q 301 630 329 651 q 274 576 274 608 q 299 526 274 544 q 403 499 325 507 q 572 463 504 488 q 674 390 640 439 q 708 253 708 340 q 613 57 708 119 q 346 -6 517 -6 q 168 14 235 -6 q 72 69 101 33 q 42 153 42 106 q 71 222 42 197 q 140 246 100 246 q 208 238 172 246 q 285 222 244 231 q 368 213 325 213 q 474 276 474 213 q 463 313 474 299 q 422 338 451 328 q 333 354 392 347 q 182 384 246 363 q 83 452 118 406 q 49 579 49 499 q 150 790 49 710 q 439 869 251 869 m 378 -247 q 276 -222 304 -247 q 247 -153 247 -197 q 258 -102 247 -126 q 298 -62 269 -78 q 376 -46 326 -46 q 468 -74 433 -46 q 503 -162 503 -101 q 487 -235 503 -196 q 442 -307 471 -275 q 395 -347 418 -333 q 350 -361 372 -361 q 323 -354 333 -361 q 313 -332 313 -347 q 324 -296 313 -319 q 374 -233 336 -272 l 378 -247 z "},"ß":{"ha":886,"x_min":63,"x_max":844,"o":"m 619 725 q 583 794 619 768 q 483 821 546 821 q 349 771 392 821 q 307 618 307 721 q 309 499 307 568 q 314 356 311 431 q 319 211 317 281 q 324 88 322 142 q 326 10 326 35 q 294 -97 326 -53 q 199 -140 263 -140 q 99 -97 136 -140 q 63 28 63 -54 q 65 150 63 79 q 69 300 67 221 q 78 456 72 379 q 89 597 83 533 q 215 901 104 803 q 508 1000 325 1000 q 671 970 600 1000 q 783 882 742 940 q 824 739 824 824 q 771 605 824 664 q 624 507 718 546 q 789 411 733 469 q 844 263 844 353 q 806 123 844 183 q 698 28 767 63 q 539 -6 629 -6 q 422 26 458 -6 q 385 106 385 58 q 419 179 385 157 q 514 213 454 201 q 592 243 568 222 q 617 296 617 264 q 594 343 617 324 q 522 383 572 363 q 456 421 476 401 q 436 481 436 440 q 454 536 436 513 q 500 579 472 560 q 555 619 528 599 q 601 666 582 640 q 619 725 619 692 z "},"t":{"ha":749,"x_min":19,"x_max":729,"o":"m 297 836 l 275 836 q 279 952 271 897 q 316 1041 288 1007 q 397 1075 344 1075 q 472 1047 449 1075 q 496 969 496 1019 q 463 831 496 889 l 443 833 q 588 860 507 860 q 690 833 651 860 q 729 740 729 806 q 684 647 729 678 q 572 615 639 615 q 501 619 539 615 q 429 631 464 622 l 446 654 q 474 544 460 606 q 499 417 488 483 q 516 289 510 351 q 522 178 522 226 q 488 38 522 89 q 386 -14 454 -14 q 308 10 338 -14 q 264 72 279 33 q 243 156 249 110 q 238 246 238 201 q 244 372 238 301 q 263 516 251 442 q 292 660 275 590 l 314 632 q 164 596 254 596 q 58 625 96 596 q 19 717 19 654 q 61 817 19 782 q 174 853 103 853 q 242 848 210 853 q 297 836 274 843 z "},"ť":{"ha":749,"x_min":19,"x_max":838,"o":"m 297 836 l 275 836 q 279 952 271 897 q 316 1041 288 1007 q 397 1075 344 1075 q 472 1047 449 1075 q 496 969 496 1019 q 463 831 496 889 l 443 833 q 588 860 507 860 q 690 833 651 860 q 729 740 729 806 q 684 647 729 678 q 572 615 639 615 q 501 619 539 615 q 429 631 464 622 l 446 654 q 474 544 460 606 q 499 417 488 483 q 516 289 510 351 q 522 178 522 226 q 488 38 522 89 q 386 -14 454 -14 q 308 10 338 -14 q 264 72 279 33 q 243 156 249 110 q 238 246 238 201 q 244 372 238 301 q 263 516 251 442 q 292 660 275 590 l 314 632 q 164 596 254 596 q 58 625 96 596 q 19 717 19 654 q 61 817 19 782 q 174 853 103 853 q 242 848 210 853 q 297 836 274 843 m 613 935 q 594 991 594 949 q 603 1092 593 1033 q 623 1182 614 1140 q 654 1247 632 1224 q 704 1273 674 1271 q 765 1266 735 1275 q 814 1243 796 1257 q 836 1197 838 1225 q 811 1121 835 1168 q 770 1053 793 1088 q 726 989 747 1018 q 686 942 704 960 q 649 924 671 925 q 613 935 628 922 z "},"ț":{"ha":749,"x_min":19,"x_max":729,"o":"m 297 836 l 275 836 q 279 952 271 897 q 316 1041 288 1007 q 397 1075 344 1075 q 472 1047 449 1075 q 496 969 496 1019 q 463 831 496 889 l 443 833 q 588 860 507 860 q 690 833 651 860 q 729 740 729 806 q 684 647 729 678 q 572 615 639 615 q 501 619 539 615 q 429 631 464 622 l 446 654 q 474 544 460 606 q 499 417 488 483 q 516 289 510 351 q 522 178 522 226 q 488 38 522 89 q 386 -14 454 -14 q 308 10 338 -14 q 264 72 279 33 q 243 156 249 110 q 238 246 238 201 q 244 372 238 301 q 263 516 251 442 q 292 660 275 590 l 314 632 q 164 596 254 596 q 58 625 96 596 q 19 717 19 654 q 61 817 19 782 q 174 853 103 853 q 242 848 210 853 q 297 836 274 843 m 383 -247 q 281 -222 310 -247 q 253 -153 253 -197 q 264 -102 253 -126 q 303 -62 275 -78 q 382 -46 332 -46 q 474 -74 439 -46 q 508 -162 508 -101 q 492 -235 508 -196 q 447 -307 476 -275 q 401 -347 424 -333 q 356 -361 378 -361 q 328 -354 339 -361 q 318 -332 318 -347 q 330 -296 318 -319 q 379 -233 342 -272 l 383 -247 z "},"u":{"ha":892,"x_min":63,"x_max":831,"o":"m 713 8 q 644 34 668 8 q 611 101 619 60 q 603 188 603 142 l 610 193 q 552 90 593 133 q 458 24 511 47 q 351 1 404 1 q 219 35 276 1 q 128 143 161 69 q 80 324 97 213 q 63 553 63 435 q 67 663 63 613 q 83 747 72 714 q 126 810 97 790 q 199 831 156 831 q 278 795 249 831 q 313 696 307 760 q 320 590 318 651 q 325 467 322 528 q 331 364 328 406 q 367 260 339 293 q 439 226 396 226 q 532 276 500 226 q 564 413 564 325 q 559 514 564 457 q 549 625 554 571 q 544 714 544 679 q 572 824 544 790 q 650 857 600 857 q 722 837 692 857 q 767 781 751 817 q 800 668 786 739 q 822 508 814 597 q 831 318 831 418 q 805 85 831 163 q 713 8 779 8 z "},"ú":{"ha":892,"x_min":63,"x_max":831,"o":"m 713 8 q 644 34 668 8 q 611 101 619 60 q 603 188 603 142 l 610 193 q 552 90 593 133 q 458 24 511 47 q 351 1 404 1 q 219 35 276 1 q 128 143 161 69 q 80 324 97 213 q 63 553 63 435 q 67 663 63 613 q 83 747 72 714 q 126 810 97 790 q 199 831 156 831 q 278 795 249 831 q 313 696 307 760 q 320 590 318 651 q 325 467 322 528 q 331 364 328 406 q 367 260 339 293 q 439 226 396 226 q 532 276 500 226 q 564 413 564 325 q 559 514 564 457 q 549 625 554 571 q 544 714 544 679 q 572 824 544 790 q 650 857 600 857 q 722 837 692 857 q 767 781 751 817 q 800 668 786 739 q 822 508 814 597 q 831 318 831 418 q 805 85 831 163 q 713 8 779 8 m 325 914 q 357 965 325 938 q 439 1028 389 993 q 528 1080 486 1057 q 606 1103 571 1103 q 656 1085 635 1103 q 690 1042 678 1067 q 703 996 703 1017 q 677 950 703 968 q 599 915 651 932 q 513 896 558 904 q 428 883 468 888 q 363 878 389 878 q 335 889 346 878 q 325 914 325 900 z "},"ŭ":{"ha":892,"x_min":63,"x_max":831,"o":"m 713 8 q 644 34 668 8 q 611 101 619 60 q 603 188 603 142 l 610 193 q 552 90 593 133 q 458 24 511 47 q 351 1 404 1 q 219 35 276 1 q 128 143 161 69 q 80 324 97 213 q 63 553 63 435 q 67 663 63 613 q 83 747 72 714 q 126 810 97 790 q 199 831 156 831 q 278 795 249 831 q 313 696 307 760 q 320 590 318 651 q 325 467 322 528 q 331 364 328 406 q 367 260 339 293 q 439 226 396 226 q 532 276 500 226 q 564 413 564 325 q 559 514 564 457 q 549 625 554 571 q 544 714 544 679 q 572 824 544 790 q 650 857 600 857 q 722 837 692 857 q 767 781 751 817 q 800 668 786 739 q 822 508 814 597 q 831 318 831 418 q 805 85 831 163 q 713 8 779 8 m 454 879 q 301 929 356 879 q 246 1046 246 979 q 307 1108 246 1108 q 378 1050 365 1108 q 402 1001 386 1017 q 453 985 418 985 q 500 999 485 985 q 524 1042 515 1013 q 550 1101 533 1081 q 601 1122 567 1122 q 647 1104 632 1122 q 663 1053 663 1086 q 638 967 663 1007 q 567 903 614 928 q 454 879 521 879 z "},"û":{"ha":892,"x_min":63,"x_max":831,"o":"m 713 8 q 644 34 668 8 q 611 101 619 60 q 603 188 603 142 l 610 193 q 552 90 593 133 q 458 24 511 47 q 351 1 404 1 q 219 35 276 1 q 128 143 161 69 q 80 324 97 213 q 63 553 63 435 q 67 663 63 613 q 83 747 72 714 q 126 810 97 790 q 199 831 156 831 q 278 795 249 831 q 313 696 307 760 q 320 590 318 651 q 325 467 322 528 q 331 364 328 406 q 367 260 339 293 q 439 226 396 226 q 532 276 500 226 q 564 413 564 325 q 559 514 564 457 q 549 625 554 571 q 544 714 544 679 q 572 824 544 790 q 650 857 600 857 q 722 837 692 857 q 767 781 751 817 q 800 668 786 739 q 822 508 814 597 q 831 318 831 418 q 805 85 831 163 q 713 8 779 8 m 460 1118 q 521 1105 482 1118 q 597 1069 560 1092 q 669 1019 643 1044 q 694 963 694 994 q 669 906 694 926 q 604 885 643 885 q 517 924 563 885 q 438 1033 471 964 l 460 1042 q 362 917 410 956 q 278 878 314 878 q 232 894 250 878 q 214 938 214 911 q 241 998 214 969 q 313 1057 268 1026 q 391 1101 353 1083 q 460 1118 429 1118 z "},"ü":{"ha":892,"x_min":63,"x_max":831,"o":"m 713 8 q 644 34 668 8 q 611 101 619 60 q 603 188 603 142 l 610 193 q 552 90 593 133 q 458 24 511 47 q 351 1 404 1 q 219 35 276 1 q 128 143 161 69 q 80 324 97 213 q 63 553 63 435 q 67 663 63 613 q 83 747 72 714 q 126 810 97 790 q 199 831 156 831 q 278 795 249 831 q 313 696 307 760 q 320 590 318 651 q 325 467 322 528 q 331 364 328 406 q 367 260 339 293 q 439 226 396 226 q 532 276 500 226 q 564 413 564 325 q 559 514 564 457 q 549 625 554 571 q 544 714 544 679 q 572 824 544 790 q 650 857 600 857 q 722 837 692 857 q 767 781 751 817 q 800 668 786 739 q 822 508 814 597 q 831 318 831 418 q 805 85 831 163 q 713 8 779 8 m 290 885 q 204 914 232 885 q 176 982 176 943 q 213 1063 176 1035 q 314 1092 249 1092 q 400 1060 372 1092 q 428 986 428 1029 q 389 910 428 936 q 290 885 350 885 m 613 1106 q 703 1074 675 1106 q 731 1000 731 1042 q 697 919 731 946 q 599 892 663 892 q 509 922 539 892 q 479 996 479 953 q 516 1077 479 1049 q 613 1106 553 1106 z "},"ù":{"ha":892,"x_min":63,"x_max":831,"o":"m 713 8 q 644 34 668 8 q 611 101 619 60 q 603 188 603 142 l 610 193 q 552 90 593 133 q 458 24 511 47 q 351 1 404 1 q 219 35 276 1 q 128 143 161 69 q 80 324 97 213 q 63 553 63 435 q 67 663 63 613 q 83 747 72 714 q 126 810 97 790 q 199 831 156 831 q 278 795 249 831 q 313 696 307 760 q 320 590 318 651 q 325 467 322 528 q 331 364 328 406 q 367 260 339 293 q 439 226 396 226 q 532 276 500 226 q 564 413 564 325 q 559 514 564 457 q 549 625 554 571 q 544 714 544 679 q 572 824 544 790 q 650 857 600 857 q 722 837 692 857 q 767 781 751 817 q 800 668 786 739 q 822 508 814 597 q 831 318 831 418 q 805 85 831 163 q 713 8 779 8 m 582 914 q 573 889 582 900 q 544 878 564 878 q 479 883 519 878 q 394 896 439 888 q 310 915 350 904 q 230 950 256 932 q 204 996 204 968 q 217 1042 204 1017 q 252 1085 229 1067 q 303 1103 275 1103 q 378 1080 336 1103 q 468 1028 421 1057 q 551 965 521 993 q 582 914 582 938 z "},"ű":{"ha":892,"x_min":63,"x_max":831,"o":"m 713 8 q 644 34 668 8 q 611 101 619 60 q 603 188 603 142 l 610 193 q 552 90 593 133 q 458 24 511 47 q 351 1 404 1 q 219 35 276 1 q 128 143 161 69 q 80 324 97 213 q 63 553 63 435 q 67 663 63 613 q 83 747 72 714 q 126 810 97 790 q 199 831 156 831 q 278 795 249 831 q 313 696 307 760 q 320 590 318 651 q 325 467 322 528 q 331 364 328 406 q 367 260 339 293 q 439 226 396 226 q 532 276 500 226 q 564 413 564 325 q 559 514 564 457 q 549 625 554 571 q 544 714 544 679 q 572 824 544 790 q 650 857 600 857 q 722 837 692 857 q 767 781 751 817 q 800 668 786 739 q 822 508 814 597 q 831 318 831 418 q 805 85 831 163 q 713 8 779 8 m 558 878 q 531 888 543 878 q 519 915 519 899 q 533 964 519 933 q 568 1031 546 994 q 604 1088 585 1058 q 646 1137 624 1117 q 696 1157 668 1157 q 742 1145 718 1157 q 781 1115 765 1133 q 797 1079 797 1096 q 744 1001 797 1049 q 690 956 721 979 q 630 915 658 933 q 583 885 601 897 q 572 880 578 882 q 558 878 565 878 m 279 878 q 252 888 264 878 q 240 914 240 897 q 254 963 240 933 q 290 1029 268 993 q 329 1091 310 1063 q 370 1138 349 1119 q 418 1156 392 1156 q 463 1144 440 1156 q 503 1114 486 1132 q 519 1078 519 1096 q 468 1000 519 1047 q 410 955 442 978 q 349 913 378 932 q 300 885 319 894 q 289 880 294 882 q 279 878 283 878 z "},"ū":{"ha":892,"x_min":63,"x_max":831,"o":"m 713 8 q 644 34 668 8 q 611 101 619 60 q 603 188 603 142 l 610 193 q 552 90 593 133 q 458 24 511 47 q 351 1 404 1 q 219 35 276 1 q 128 143 161 69 q 80 324 97 213 q 63 553 63 435 q 67 663 63 613 q 83 747 72 714 q 126 810 97 790 q 199 831 156 831 q 278 795 249 831 q 313 696 307 760 q 320 590 318 651 q 325 467 322 528 q 331 364 328 406 q 367 260 339 293 q 439 226 396 226 q 532 276 500 226 q 564 413 564 325 q 559 514 564 457 q 549 625 554 571 q 544 714 544 679 q 572 824 544 790 q 650 857 600 857 q 722 837 692 857 q 767 781 751 817 q 800 668 786 739 q 822 508 814 597 q 831 318 831 418 q 805 85 831 163 q 713 8 779 8 m 296 886 q 210 908 238 886 q 182 965 182 931 q 207 1019 182 1000 q 290 1054 232 1039 q 389 1069 335 1064 q 498 1078 443 1075 q 599 1081 553 1081 q 697 1059 668 1081 q 726 1001 726 1038 q 701 942 726 964 q 625 911 675 919 q 521 898 582 904 q 400 889 460 892 q 296 886 340 886 z "},"ų":{"ha":892,"x_min":63,"x_max":831,"o":"m 713 8 q 644 34 668 8 q 611 101 619 60 q 603 188 603 142 l 610 193 q 552 90 593 133 q 458 24 511 47 q 351 1 404 1 q 219 35 276 1 q 128 143 161 69 q 80 324 97 213 q 63 553 63 435 q 67 663 63 613 q 83 747 72 714 q 126 810 97 790 q 199 831 156 831 q 278 795 249 831 q 313 696 307 760 q 320 590 318 651 q 325 467 322 528 q 331 364 328 406 q 367 260 339 293 q 439 226 396 226 q 532 276 500 226 q 564 413 564 325 q 559 514 564 457 q 549 625 554 571 q 544 714 544 679 q 572 824 544 790 q 650 857 600 857 q 722 837 692 857 q 767 781 751 817 q 800 668 786 739 q 822 508 814 597 q 831 318 831 418 q 805 85 831 163 q 713 8 779 8 m 660 -293 q 533 -261 583 -293 q 483 -167 483 -229 q 524 -61 483 -112 q 658 39 565 -10 l 778 42 q 669 -52 710 -3 q 628 -126 628 -101 q 640 -147 628 -142 q 672 -153 651 -153 q 703 -151 686 -153 q 738 -149 719 -149 q 783 -165 768 -149 q 797 -208 797 -181 q 762 -272 797 -251 q 660 -293 726 -293 z "},"ů":{"ha":892,"x_min":63,"x_max":831,"o":"m 713 8 q 644 34 668 8 q 611 101 619 60 q 603 188 603 142 l 610 193 q 552 90 593 133 q 458 24 511 47 q 351 1 404 1 q 219 35 276 1 q 128 143 161 69 q 80 324 97 213 q 63 553 63 435 q 67 663 63 613 q 83 747 72 714 q 126 810 97 790 q 199 831 156 831 q 278 795 249 831 q 313 696 307 760 q 320 590 318 651 q 325 467 322 528 q 331 364 328 406 q 367 260 339 293 q 439 226 396 226 q 532 276 500 226 q 564 413 564 325 q 559 514 564 457 q 549 625 554 571 q 544 714 544 679 q 572 824 544 790 q 650 857 600 857 q 722 837 692 857 q 767 781 751 817 q 800 668 786 739 q 822 508 814 597 q 831 318 831 418 q 805 85 831 163 q 713 8 779 8 m 450 875 q 318 905 371 875 q 265 997 265 935 q 317 1102 265 1061 q 467 1143 369 1143 q 599 1105 557 1143 q 640 1014 640 1067 q 590 914 640 953 q 450 875 539 875 m 442 954 q 517 967 486 954 q 547 1008 547 981 q 524 1052 547 1036 q 453 1068 501 1068 q 381 1049 404 1068 q 358 1007 358 1029 q 381 969 358 983 q 442 954 404 954 z "},"v":{"ha":814,"x_min":26,"x_max":788,"o":"m 142 874 q 237 832 206 874 q 288 704 268 790 q 324 553 301 640 q 375 372 347 465 q 429 196 403 278 l 435 196 q 481 363 460 275 q 519 535 503 451 q 542 679 535 618 q 576 810 550 771 q 657 850 601 850 q 753 807 718 850 q 788 674 788 764 q 774 530 788 606 q 737 380 760 454 q 685 243 714 306 q 609 108 649 165 q 520 21 569 51 q 406 -10 471 -10 q 279 37 333 -10 q 168 186 225 83 q 92 360 124 269 q 44 539 61 451 q 26 699 26 626 q 53 830 26 786 q 142 874 81 874 z "},"w":{"ha":1078,"x_min":26,"x_max":1051,"o":"m 26 564 q 67 772 26 708 q 172 836 107 836 q 236 810 214 836 q 267 742 258 785 q 276 646 276 699 q 276 531 276 596 q 276 396 276 465 q 276 265 276 326 l 282 265 q 362 537 321 433 q 445 688 403 640 q 529 735 488 735 q 617 688 575 735 q 702 540 660 640 q 788 279 744 439 l 793 279 q 792 490 793 379 q 792 693 792 601 q 824 826 792 783 q 915 868 857 868 q 1019 806 986 868 q 1051 640 1051 744 q 1043 477 1051 564 q 1020 310 1035 390 q 986 169 1006 229 q 917 35 957 81 q 815 -11 878 -11 q 714 38 765 -11 q 618 193 663 88 q 539 468 574 299 l 533 468 q 451 206 500 307 q 348 58 403 106 q 240 11 293 11 q 134 63 178 11 q 65 221 90 114 q 44 337 53 275 q 31 458 36 399 q 26 564 26 518 z "},"ẃ":{"ha":1078,"x_min":26,"x_max":1051,"o":"m 26 564 q 67 772 26 708 q 172 836 107 836 q 236 810 214 836 q 267 742 258 785 q 276 646 276 699 q 276 531 276 596 q 276 396 276 465 q 276 265 276 326 l 282 265 q 362 537 321 433 q 445 688 403 640 q 529 735 488 735 q 617 688 575 735 q 702 540 660 640 q 788 279 744 439 l 793 279 q 792 490 793 379 q 792 693 792 601 q 824 826 792 783 q 915 868 857 868 q 1019 806 986 868 q 1051 640 1051 744 q 1043 477 1051 564 q 1020 310 1035 390 q 986 169 1006 229 q 917 35 957 81 q 815 -11 878 -11 q 714 38 765 -11 q 618 193 663 88 q 539 468 574 299 l 533 468 q 451 206 500 307 q 348 58 403 106 q 240 11 293 11 q 134 63 178 11 q 65 221 90 114 q 44 337 53 275 q 31 458 36 399 q 26 564 26 518 m 410 929 q 442 981 410 953 q 524 1043 474 1008 q 613 1095 571 1072 q 690 1118 656 1118 q 741 1100 719 1118 q 775 1057 763 1082 q 788 1011 788 1032 q 762 965 788 983 q 683 931 736 947 q 598 911 643 919 q 513 898 553 903 q 447 893 474 893 q 420 904 431 893 q 410 929 410 915 z "},"ŵ":{"ha":1078,"x_min":26,"x_max":1051,"o":"m 26 564 q 67 772 26 708 q 172 836 107 836 q 236 810 214 836 q 267 742 258 785 q 276 646 276 699 q 276 531 276 596 q 276 396 276 465 q 276 265 276 326 l 282 265 q 362 537 321 433 q 445 688 403 640 q 529 735 488 735 q 617 688 575 735 q 702 540 660 640 q 788 279 744 439 l 793 279 q 792 490 793 379 q 792 693 792 601 q 824 826 792 783 q 915 868 857 868 q 1019 806 986 868 q 1051 640 1051 744 q 1043 477 1051 564 q 1020 310 1035 390 q 986 169 1006 229 q 917 35 957 81 q 815 -11 878 -11 q 714 38 765 -11 q 618 193 663 88 q 539 468 574 299 l 533 468 q 451 206 500 307 q 348 58 403 106 q 240 11 293 11 q 134 63 178 11 q 65 221 90 114 q 44 337 53 275 q 31 458 36 399 q 26 564 26 518 m 544 1133 q 606 1120 567 1133 q 682 1085 644 1107 q 753 1035 728 1060 q 779 978 779 1010 q 753 921 779 942 q 689 900 728 900 q 601 940 647 900 q 522 1049 556 979 l 544 1057 q 447 932 494 971 q 363 893 399 893 q 317 910 335 893 q 299 953 299 926 q 326 1013 299 985 q 397 1072 353 1042 q 476 1116 438 1099 q 544 1133 514 1133 z "},"ẅ":{"ha":1078,"x_min":26,"x_max":1051,"o":"m 26 564 q 67 772 26 708 q 172 836 107 836 q 236 810 214 836 q 267 742 258 785 q 276 646 276 699 q 276 531 276 596 q 276 396 276 465 q 276 265 276 326 l 282 265 q 362 537 321 433 q 445 688 403 640 q 529 735 488 735 q 617 688 575 735 q 702 540 660 640 q 788 279 744 439 l 793 279 q 792 490 793 379 q 792 693 792 601 q 824 826 792 783 q 915 868 857 868 q 1019 806 986 868 q 1051 640 1051 744 q 1043 477 1051 564 q 1020 310 1035 390 q 986 169 1006 229 q 917 35 957 81 q 815 -11 878 -11 q 714 38 765 -11 q 618 193 663 88 q 539 468 574 299 l 533 468 q 451 206 500 307 q 348 58 403 106 q 240 11 293 11 q 134 63 178 11 q 65 221 90 114 q 44 337 53 275 q 31 458 36 399 q 26 564 26 518 m 375 900 q 289 929 317 900 q 261 997 261 958 q 297 1078 261 1050 q 399 1107 333 1107 q 485 1076 457 1107 q 513 1001 513 1044 q 474 926 513 951 q 375 900 435 900 m 697 1121 q 788 1089 760 1121 q 815 1015 815 1057 q 781 934 815 961 q 683 907 747 907 q 594 938 624 907 q 564 1011 564 968 q 601 1092 564 1064 q 697 1121 638 1121 z "},"ẁ":{"ha":1078,"x_min":26,"x_max":1051,"o":"m 26 564 q 67 772 26 708 q 172 836 107 836 q 236 810 214 836 q 267 742 258 785 q 276 646 276 699 q 276 531 276 596 q 276 396 276 465 q 276 265 276 326 l 282 265 q 362 537 321 433 q 445 688 403 640 q 529 735 488 735 q 617 688 575 735 q 702 540 660 640 q 788 279 744 439 l 793 279 q 792 490 793 379 q 792 693 792 601 q 824 826 792 783 q 915 868 857 868 q 1019 806 986 868 q 1051 640 1051 744 q 1043 477 1051 564 q 1020 310 1035 390 q 986 169 1006 229 q 917 35 957 81 q 815 -11 878 -11 q 714 38 765 -11 q 618 193 663 88 q 539 468 574 299 l 533 468 q 451 206 500 307 q 348 58 403 106 q 240 11 293 11 q 134 63 178 11 q 65 221 90 114 q 44 337 53 275 q 31 458 36 399 q 26 564 26 518 m 667 929 q 658 904 667 915 q 629 893 649 893 q 564 898 604 893 q 479 911 524 903 q 394 931 435 919 q 315 965 340 947 q 289 1011 289 983 q 301 1057 289 1032 q 337 1100 314 1082 q 388 1118 360 1118 q 463 1095 421 1118 q 553 1043 506 1072 q 636 981 606 1008 q 667 929 667 953 z "},"x":{"ha":886,"x_min":21,"x_max":867,"o":"m 149 -12 q 58 25 94 -12 q 21 118 21 63 q 59 226 21 172 q 169 329 97 281 q 343 413 242 378 l 343 418 q 99 565 178 481 q 21 729 21 649 q 40 798 21 769 q 92 842 60 826 q 158 858 124 858 q 273 817 219 858 q 372 703 326 776 q 454 529 418 629 l 460 529 q 591 788 517 706 q 749 871 665 871 q 836 837 806 871 q 867 750 867 803 q 792 580 867 661 q 567 436 717 499 l 567 429 q 775 286 708 364 q 842 135 842 208 q 808 46 842 79 q 726 13 774 13 q 618 53 667 13 q 531 167 569 94 q 461 331 492 239 l 456 331 q 365 137 415 213 q 258 24 314 61 q 149 -12 203 -12 z "},"y":{"ha":858,"x_min":26,"x_max":832,"o":"m 228 -276 q 139 -176 139 -276 q 168 -69 139 -131 q 252 60 197 -7 q 382 192 307 128 l 381 176 q 116 469 206 339 q 26 707 26 599 q 60 807 26 771 q 149 843 93 843 q 327 718 244 843 q 472 342 410 593 l 478 342 q 583 733 519 607 q 736 858 647 858 q 808 827 783 858 q 832 739 832 796 q 815 631 832 696 q 769 487 799 567 q 699 321 739 407 q 610 150 658 235 q 396 -174 486 -72 q 228 -276 306 -276 z "},"ý":{"ha":858,"x_min":26,"x_max":832,"o":"m 228 -276 q 139 -176 139 -276 q 168 -69 139 -131 q 252 60 197 -7 q 382 192 307 128 l 381 176 q 116 469 206 339 q 26 707 26 599 q 60 807 26 771 q 149 843 93 843 q 327 718 244 843 q 472 342 410 593 l 478 342 q 583 733 519 607 q 736 858 647 858 q 808 827 783 858 q 832 739 832 796 q 815 631 832 696 q 769 487 799 567 q 699 321 739 407 q 610 150 658 235 q 396 -174 486 -72 q 228 -276 306 -276 m 300 918 q 332 969 300 942 q 414 1032 364 997 q 503 1084 461 1061 q 581 1107 546 1107 q 631 1089 610 1107 q 665 1046 653 1071 q 678 1000 678 1021 q 652 954 678 972 q 574 919 626 936 q 488 900 533 908 q 403 887 443 892 q 338 882 364 882 q 310 893 321 882 q 300 918 300 904 z "},"ŷ":{"ha":858,"x_min":26,"x_max":832,"o":"m 228 -276 q 139 -176 139 -276 q 168 -69 139 -131 q 252 60 197 -7 q 382 192 307 128 l 381 176 q 116 469 206 339 q 26 707 26 599 q 60 807 26 771 q 149 843 93 843 q 327 718 244 843 q 472 342 410 593 l 478 342 q 583 733 519 607 q 736 858 647 858 q 808 827 783 858 q 832 739 832 796 q 815 631 832 696 q 769 487 799 567 q 699 321 739 407 q 610 150 658 235 q 396 -174 486 -72 q 228 -276 306 -276 m 435 1122 q 496 1109 457 1122 q 572 1074 535 1096 q 644 1024 618 1049 q 669 967 669 999 q 644 910 669 931 q 579 889 618 889 q 492 928 538 889 q 413 1038 446 968 l 435 1046 q 337 921 385 960 q 253 882 289 882 q 207 899 225 882 q 189 942 189 915 q 216 1002 189 974 q 288 1061 243 1031 q 366 1105 328 1088 q 435 1122 404 1122 z "},"ÿ":{"ha":858,"x_min":26,"x_max":832,"o":"m 228 -276 q 139 -176 139 -276 q 168 -69 139 -131 q 252 60 197 -7 q 382 192 307 128 l 381 176 q 116 469 206 339 q 26 707 26 599 q 60 807 26 771 q 149 843 93 843 q 327 718 244 843 q 472 342 410 593 l 478 342 q 583 733 519 607 q 736 858 647 858 q 808 827 783 858 q 832 739 832 796 q 815 631 832 696 q 769 487 799 567 q 699 321 739 407 q 610 150 658 235 q 396 -174 486 -72 q 228 -276 306 -276 m 265 889 q 179 918 207 889 q 151 986 151 947 q 188 1067 151 1039 q 289 1096 224 1096 q 375 1065 347 1096 q 403 990 403 1033 q 364 915 403 940 q 265 889 325 889 m 588 1110 q 678 1078 650 1110 q 706 1004 706 1046 q 672 923 706 950 q 574 896 638 896 q 484 926 514 896 q 454 1000 454 957 q 491 1081 454 1053 q 588 1110 528 1110 z "},"ỳ":{"ha":858,"x_min":26,"x_max":832,"o":"m 228 -276 q 139 -176 139 -276 q 168 -69 139 -131 q 252 60 197 -7 q 382 192 307 128 l 381 176 q 116 469 206 339 q 26 707 26 599 q 60 807 26 771 q 149 843 93 843 q 327 718 244 843 q 472 342 410 593 l 478 342 q 583 733 519 607 q 736 858 647 858 q 808 827 783 858 q 832 739 832 796 q 815 631 832 696 q 769 487 799 567 q 699 321 739 407 q 610 150 658 235 q 396 -174 486 -72 q 228 -276 306 -276 m 557 918 q 548 893 557 904 q 519 882 539 882 q 454 887 494 882 q 369 900 414 892 q 285 919 325 908 q 205 954 231 936 q 179 1000 179 972 q 192 1046 179 1021 q 227 1089 204 1071 q 278 1107 250 1107 q 353 1084 311 1107 q 443 1032 396 1061 q 526 969 496 997 q 557 918 557 942 z "},"z":{"ha":810,"x_min":40,"x_max":769,"o":"m 40 167 q 98 308 40 232 q 269 472 156 385 q 547 651 382 558 l 547 657 q 423 628 490 642 q 294 608 356 615 q 190 601 232 601 q 77 627 113 601 q 42 703 42 653 q 67 772 42 743 q 138 818 93 801 q 234 847 178 835 q 354 865 290 858 q 478 871 418 871 q 640 858 575 871 q 737 809 704 844 q 769 706 769 774 q 742 617 769 667 q 651 509 714 568 q 485 376 589 450 q 228 214 381 303 l 228 208 q 335 235 274 224 q 462 253 396 246 q 589 260 528 260 q 719 235 679 260 q 758 154 758 211 q 668 37 758 83 q 406 -10 578 -10 q 130 37 219 -10 q 40 167 40 83 z "}}}
